<svg xmlns="http://www.w3.org/2000/svg" id="Layer_5" height="512" viewBox="0 0 64 64" width="512"><path d="M49 33H15.714l-.743.011 1.856 4.176A2.004 2.004 0 0115 40c-.79 0-1.507-.466-1.828-1.188l-2.549-5.735-.223.004-.18.076A2 2 0 009 35v22c0 1.103.897 2 2 2h38c1.103 0 2-.897 2-2V35c0-1.103-.897-2-2-2zM30 54a8 8 0 110-16 8 8 0 010 16z" fill="#f4d75c" data-original="#F0BC5E" data-old_color="#f0bc5e"/><path d="M58 29H27v-6h2a.852.852 0 00.124-.008C34.184 22.36 38 18.037 38 12.938V8c0-1.654-1.346-3-3-3-.817 0-1.583.319-2.156.897a3.005 3.005 0 00-.875 2.154c.012 1.36.02 3.211.024 4.947a3.962 3.962 0 01-1.165 2.828A3.965 3.965 0 0128 17h-2.54A5.97 5.97 0 0027 13c0-3.309-2.691-6-6-6s-6 2.691-6 6a5.97 5.97 0 001.684 4.157C11.763 17.99 8 22.271 8 27.424c0 .533.054 1.057.133 1.576H6c-2.757 0-5 2.243-5 5v24c0 2.757 2.243 5 5 5h52c2.757 0 5-2.243 5-5V34c0-2.757-2.243-5-5-5zM21 9c2.206 0 4 1.794 4 4s-1.794 4-4 4-4-1.794-4-4 1.794-4 4-4zm-2.576 10H28a5.956 5.956 0 004.245-1.761 5.95 5.95 0 001.749-4.245 831.624 831.624 0 00-.024-4.96A1.023 1.023 0 0135 7c.551 0 1 .449 1 1v4.938A8.146 8.146 0 0128.936 21H26a1 1 0 00-1 1v7h-8v-6.421a1 1 0 00-1.449-.893A6.395 6.395 0 0012 27.425c0 .905.186 1.782.554 2.609l3.36 7.56a1.003 1.003 0 01-.507 1.321 1.022 1.022 0 01-1.32-.508l-3.36-7.561A8.346 8.346 0 0110 27.424C10 22.779 13.779 19 18.424 19zM14 27.424a4.39 4.39 0 011-2.798V29h-.69a4.379 4.379 0 01-.31-1.576zM3 41h1c.551 0 1 .448 1 1v8c0 .552-.449 1-1 1H3zm0 17v-5h1c1.654 0 3-1.346 3-3v-8c0-1.654-1.346-3-3-3H3v-5c0-1.654 1.346-3 3-3h2.646c.081.22.157.442.253.658l3.36 7.561a3.002 3.002 0 003.96 1.521 3.004 3.004 0 001.521-3.959L15.172 31H53v30H6c-1.654 0-3-1.346-3-3zm58 0c0 1.654-1.346 3-3 3h-3V31h3c1.654 0 3 1.346 3 3z" data-original="#000000" class="active-path" data-old_color="#000000" fill="#030715"/><path d="M57 41h2v10h-2zm-6-16c6.065 0 11-4.935 11-11v-2c0-6.065-4.935-11-11-11S40 5.935 40 12v2c0 6.065 4.935 11 11 11zm-9-13c0-4.962 4.038-9 9-9s9 4.038 9 9v2c0 4.962-4.038 9-9 9s-9-4.038-9-9z" data-original="#000000" class="active-path" data-old_color="#000000" fill="#030715"/><path d="M51 7c2.757 0 5 2.243 5 5v2c0 .88-.231 1.744-.668 2.499l1.73 1.002A6.987 6.987 0 0058 14v-2c0-3.86-3.14-7-7-7s-7 3.14-7 7h2c0-2.757 2.243-5 5-5zm0 14a6.988 6.988 0 004.667-1.783l-1.334-1.49A4.99 4.99 0 0151 19c-2.757 0-5-2.243-5-5h-2c0 3.86 3.14 7 7 7z" data-original="#000000" class="active-path" data-old_color="#000000" fill="#030715"/><path d="M51 11c.551 0 1 .449 1 1h2c0-1.654-1.346-3-3-3s-3 1.346-3 3v2c0 1.654 1.346 3 3 3s3-1.346 3-3h-2c0 .551-.449 1-1 1s-1-.449-1-1v-2c0-.551.449-1 1-1zm-9.293 27.707l-1.414-1.414-3.194 3.194C35.45 38.37 32.885 37 30 37c-4.962 0-9 4.037-9 9s4.038 9 9 9 9-4.037 9-9a8.94 8.94 0 00-.831-3.755zM37 46c0 3.859-3.14 7-7 7s-7-3.141-7-7 3.14-7 7-7a6.991 6.991 0 015.672 2.914L30 47.586l-3.293-3.293-1.414 1.414L30 50.414l6.633-6.633A6.94 6.94 0 0137 46z" data-original="#000000" class="active-path" data-old_color="#000000" fill="#030715"/></svg>