<svg xmlns="http://www.w3.org/2000/svg" xmlns:xlink="http://www.w3.org/1999/xlink" version="1.1" id="Layer_1" x="0" y="0" viewBox="0 0 496 496" xml:space="preserve" width="512" height="512" class="hovered-paths"><circle cx="248" cy="136" r="104" data-original="#FFA64D" data-old_color="#FFA64D" fill="#f4d75c"/><path data-original="#333333" class="hovered-path active-path" data-old_color="#333333" fill="#030715" d="M64 352h160v16H64zm0-32h160v16H64zm0 64h160v16H64zm144 32h16v16h-16zm-144 0h128v16H64zm288-256h80v16h-80zm-16 32h96v16h-96zm80 32h16v16h-16zm-80 0h64v16h-64zm-16 175.36V432h112V320h-53.48c-9.008-18.888-28.24-32-50.52-32-30.872 0-56 25.128-56 56 0 28.152 20.912 51.456 48 55.36zM368 344c0 19.312-13.768 35.472-32 39.192V336h31.192c.528 2.584.808 5.264.808 8zm48-8v80h-80v-16.64c27.088-3.904 48-27.208 48-55.36 0-2.72-.264-5.376-.64-8H416zm-88-32c13.016 0 24.488 6.344 31.792 16H320v63.192c-18.232-3.72-32-19.872-32-39.192 0-22.056 17.944-40 40-40zM240 0h16v32h-16z"/><path transform="rotate(150 188.002 32.085)" data-original="#333333" class="hovered-path active-path" data-old_color="#333333" fill="#030715" d="M180 16.086h16v31.999h-16z"/><path transform="rotate(120 144.074 75.995)" data-original="#333333" class="hovered-path active-path" data-old_color="#333333" fill="#030715" d="M136.072 59.995h16v31.999h-16z"/><path transform="rotate(150.009 351.93 76.009)" data-original="#333333" class="hovered-path active-path" data-old_color="#333333" fill="#030715" d="M335.933 68.008h32v16h-32z"/><path transform="rotate(119.993 308 32.07)" data-original="#333333" class="hovered-path active-path" data-old_color="#333333" fill="#030715" d="M292.001 24.068h32v16h-32z"/><path d="M464 144v-16H335.592C331.536 83.216 293.824 48 248 48s-83.536 35.216-87.592 80H32v16H0v352h496V144h-32zm-272 59.776V224h-16v16h16v32h16v16H80V176h89.696c5.4 10.512 12.864 19.992 22.304 27.776zM208 256v-16h80v16h-80zm40-104c-8.824 0-16-7.176-16-16s7.176-16 16-16 16 7.176 16 16-7.176 16-16 16zm56 120v-32h16v-16h-16v-20.224c18.312-15.096 29.464-36.4 31.56-59.776H448v304H256V272h48zM248 64c39.704 0 72 32.296 72 72 0 22.768-10.504 43.728-28.816 57.504L288 195.896V224h-32v-57.136c13.768-3.576 24-15.992 24-30.864 0-17.648-14.352-32-32-32s-32 14.352-32 32c0 14.872 10.232 27.288 24 30.864V224h-32v-28.104l-3.184-2.4C186.496 179.728 176 158.768 176 136c0-39.704 32.296-72 72-72zM48 144h112.44c.488 5.472 1.528 10.808 2.992 16H64v144h160v-32h16v176H48V144zm432 336H16V160h16v304h432V160h16v320z" data-original="#333333" class="hovered-path active-path" data-old_color="#333333" fill="#030715"/></svg>