<svg xmlns="http://www.w3.org/2000/svg" id="Layer_35" height="512" viewBox="0 0 64 64" width="512" class="hovered-paths"><path d="M51.121 35.131C49.733 32.702 49 29.863 49 26.923V18c0-9.374-7.626-17-17-17S15 8.626 15 18v8.924c0 2.914-.75 5.782-2.17 8.295a21.94 21.94 0 00-2.819 11.489c.041 1.302.209 2.634.501 3.959l.118.539a14.886 14.886 0 014.625-2.992l10.259-4.197A4 4 0 0028 40.315v-1.249a17.546 17.546 0 01-8-14.715v-1.395a6 6 0 013.636-5.515L27 16l1.658.829A30.04 30.04 0 0042.09 20H44v4.351a17.546 17.546 0 01-8 14.715v1.249a4 4 0 002.485 3.702l10.259 4.197a14.893 14.893 0 014.638 3.005l.118-.546c.332-1.533.5-3.106.5-4.673 0-3.812-.996-7.57-2.879-10.869z" fill="#f4d75c" data-original="#F0BC5E" class="hovered-path" data-old_color="#f0bc5e"/><path d="M49.123 47.289l-10.259-4.198A2.988 2.988 0 0137 40.314v-.718c4.921-3.401 8-9.039 8-15.246V19h-2.91c-4.484 0-8.975-1.06-12.985-3.065A1.991 1.991 0 0128 14.146V14c0-1.103.897-2 2-2s2 .897 2 2h2c0-2.206-1.794-4-4-4s-4 1.794-4 4v.146c0 .388.055.767.16 1.126l-2.917 1.25A6.995 6.995 0 0019 22.957v1.395a18.516 18.516 0 008 15.246v.718a2.987 2.987 0 01-1.864 2.776l-10.259 4.197A15.837 15.837 0 005 62v1h54v-1a15.837 15.837 0 00-9.877-14.711zm-6.247 4.916l-5.905 1.181L40.586 57l-4 4h-2.26l4.503-15.762 3.242 1.326zm-21.752 0l.806-5.641 3.241-1.326L29.674 61h-2.26l-4-4 3.614-3.614zm7.376-2.596c1.076.246 2.261.391 3.5.391 1.24 0 2.424-.145 3.5-.391L32.246 61h-.491zM21 24.351v-1.395a4.993 4.993 0 013.031-4.596l3.167-1.357c.293.286.633.53 1.014.72A31.178 31.178 0 0042.09 21H43v3.351a16.526 16.526 0 01-11 15.591 16.525 16.525 0 01-11-15.591zm7.964 16.445c.864.45 1.772.837 2.719 1.152l.317.106.316-.105a18.69 18.69 0 002.719-1.152 4.955 4.955 0 001.978 3.516l-.865 3.029c-2.297.813-5.998.814-8.296 0l-.865-3.029a4.96 4.96 0 001.977-3.517zm-13.33 8.343l4.15-1.698-.908 6.354 4.095.819L20.586 57l4 4H17v-7h-2v7H7.035a13.842 13.842 0 018.599-11.861zM49 61v-7h-2v7h-7.586l4-4-2.386-2.386 4.095-.819-.908-6.353 4.15 1.698A13.84 13.84 0 0156.964 61z" data-original="#000000" class="active-path" data-old_color="#000000" fill="#323232"/><circle cx="26" cy="24" r="1" data-original="#000000" class="active-path" data-old_color="#000000" fill="#323232"/><circle cx="38" cy="24" r="1" data-original="#000000" class="active-path" data-old_color="#000000" fill="#323232"/><path d="M36 32h-2c0 1.103-.897 2-2 2s-2-.897-2-2h-2c0 2.206 1.794 4 4 4s4-1.794 4-4z" data-original="#000000" class="active-path" data-old_color="#000000" fill="#323232"/></svg>