<svg height="511pt" viewBox="-45 1 511 511.999" width="511pt" xmlns="http://www.w3.org/2000/svg"><path d="M413.465 71.793L350.543 8.871v62.805zm0 0"/><path d="M422.414 101.938h-87.043c-8.351-.016-15.117-6.79-15.117-15.145V0H67.387C59.02 0 52.238 6.781 52.238 15.145V286.09c15.77-6.59 33.059-10.235 51.188-10.235 6.918 0 13.71.532 20.347 1.555a15.056 15.056 0 01-.773-4.75c0-8.363 6.781-15.144 15.148-15.144h182.41c8.364 0 15.145 6.78 15.145 15.144 0 8.363-6.781 15.145-15.144 15.145H158.547c46.027 21.008 78.098 67.46 78.098 121.27 0 20.808-4.801 40.519-13.348 58.081H407.27c8.363 0 15.144-6.781 15.144-15.144zm-156.379 51.578c0 8.367-6.781 15.144-15.144 15.144H138.148c-8.367 0-15.148-6.777-15.148-15.144 0-8.364 6.781-15.145 15.148-15.145h112.743c8.363 0 15.144 6.781 15.144 15.145zm54.524 74.718h-182.41c-8.368 0-15.149-6.78-15.149-15.144 0-8.367 6.781-15.149 15.148-15.149h182.41c8.364 0 15.145 6.782 15.145 15.149 0 8.363-6.781 15.144-15.144 15.144zm0 0"/><path d="M206.352 409.074c0-56.754-46.172-102.926-102.926-102.926C46.672 306.148.5 352.32.5 409.074.5 465.828 46.672 512 103.426 512c56.754 0 102.926-46.172 102.926-102.926zm-59.622 44.262c-2.957 2.957-6.832 4.437-10.707 4.437s-7.753-1.48-10.71-4.437l-21.887-21.887-21.887 21.887a15.097 15.097 0 01-10.707 4.437 15.083 15.083 0 01-10.71-4.437c-5.915-5.914-5.915-15.504 0-21.418l21.886-21.887-21.887-21.886c-5.914-5.915-5.914-15.504 0-21.418s15.504-5.914 21.418 0l21.89 21.886 21.887-21.886c5.914-5.914 15.504-5.918 21.418 0 5.914 5.914 5.914 15.503 0 21.418l-21.886 21.886 21.886 21.887c5.91 5.914 5.91 15.504-.004 21.418zm0 0"/></svg>