<svg height="434pt" viewBox="0 -37 434 434" width="434pt" xmlns="http://www.w3.org/2000/svg"><path d="M41 265.508h88.945L165.891 325l.086.137a11.612 11.612 0 009.835 5.402A11.606 11.606 0 00185.73 325l13.575-22.465h35.71l31.477 52.102c.028.047.059.09.086.136a11.106 11.106 0 0018.746 0c.028-.046.059-.09.086-.136l31.477-52.102H397c20.426-.02 36.977-16.574 37-37V103.621c-.023-20.426-16.574-36.976-37-37h-43V41c-.027-22.633-18.367-40.973-41-41H41C18.367.027.027 18.367 0 41v183.508c.023 22.633 18.367 40.972 41 41zM397 80.62c12.695.012 22.984 10.3 23 23v161.92c-.016 12.695-10.305 22.984-23 23h-84.063a7.006 7.006 0 00-5.992 3.379l-31 51.3-31-51.3a6.995 6.995 0 00-5.988-3.379h-31.2l13.915-23.031H313c22.633-.028 40.977-18.367 41-41V80.62zM14 41c.016-14.906 12.094-26.984 27-27h272c14.906.016 26.984 12.094 27 27v183.508c-.016 14.902-12.094 26.984-27 27h-95.27a7.001 7.001 0 00-5.992 3.379l-21.84 36.14a7.026 7.026 0 00-1.132 1.88l-12.957 21.44-35.926-59.46a6.996 6.996 0 00-5.992-3.38H41c-14.906-.015-26.984-12.097-27-27zm0 0"/><path d="M151.34 179.93a7 7 0 009.785.11l95.71-91.419a7.006 7.006 0 00.228-9.898 7.006 7.006 0 00-9.899-.227l-90.766 86.695-49.449-49.453c-2.734-2.734-7.164-2.734-9.898 0s-2.735 7.164 0 9.899zm0 0"/></svg>