<svg version="1.1" id="Layer_1" xmlns="http://www.w3.org/2000/svg" xmlns:xlink="http://www.w3.org/1999/xlink" x="0" y="0" viewBox="0 0 512 512" xml:space="preserve"><circle cx="256" cy="256" r="256" fill="#31bafd"/><path d="M511.914 262.684L366.792 117.562l-15.969 22.082-37.935-37.933-89.643 204.857-78.35 87.526 117.819 117.819c136.06-3.504 245.712-113.165 249.2-249.229z" fill="#2b9ed8"/><path d="M358.284 398.222h-204.57c-6.347 0-11.493-5.146-11.493-11.493v-261.46c0-6.347 5.146-11.492 11.493-11.492h204.571c6.347 0 11.493 5.146 11.493 11.492v261.46c0 6.347-5.146 11.493-11.494 11.493z" fill="#324a5e"/><path d="M358.284 113.778H254.85v284.444h103.434c6.347 0 11.493-5.146 11.493-11.493V125.271c.001-6.347-5.145-11.493-11.493-11.493z" fill="#2b3b4e"/><path fill="#e9eff4" d="M162.047 131.017h187.906v249.966H162.047z"/><path fill="#cfdbe6" d="M254.845 131.017h95.108v249.966h-95.108z"/><path fill="#f9b54c" d="M199.111 101.71h113.778v39.65H199.111z"/><path fill="#f4a200" d="M254.845 101.71h58.039v39.65h-58.039z"/><path d="M175.407 175.407h18.963v18.963h-18.963zm0 48.994h18.963v18.963h-18.963zm0 48.976h18.963v18.963h-18.963zm0 48.993h18.963v18.963h-18.963z" fill="#c1321f"/><path d="M211.178 186.182h113.778v5.172H211.178zm0 49.424h113.778v5.172H211.178zm0 49.407h113.778v5.172H211.178zm0 49.425h113.778v5.172H211.178z" fill="#d0d1d3"/><path d="M254.845 186.182h70.104v5.172h-70.104zm0 49.424h70.104v5.172h-70.104zm0 49.407h70.104v5.172h-70.104zm0 49.425h70.104v5.172h-70.104z" fill="#a6a8aa"/></svg>