<svg version="1.1" id="Capa_1" xmlns="http://www.w3.org/2000/svg" xmlns:xlink="http://www.w3.org/1999/xlink" x="0" y="0" viewBox="0 0 512 512" xml:space="preserve"><path d="M465.414 365.077l-234.667-192c-4.565-3.723-11.285-3.04-15.008 1.525a10.666 10.666 0 00-2.4 6.731v320a10.667 10.667 0 007.573 10.219c1.003.302 2.046.453 3.093.448a10.668 10.668 0 008.875-4.757L315.057 384h143.616c5.891-.007 10.661-4.788 10.654-10.679a10.669 10.669 0 00-3.913-8.244z" fill="#2196f3"/><path d="M224.006 106.667c-5.891 0-10.667-4.776-10.667-10.667V10.667C213.34 4.776 218.115 0 224.006 0s10.667 4.776 10.667 10.667V96c0 5.891-4.776 10.667-10.667 10.667zM138.673 192H53.34c-5.891 0-10.667-4.776-10.667-10.667s4.776-10.667 10.667-10.667h85.333c5.891 0 10.667 4.776 10.667 10.667S144.564 192 138.673 192zm256 0H309.34c-5.891 0-10.667-4.776-10.667-10.667s4.776-10.667 10.667-10.667h85.333c5.891 0 10.667 4.776 10.667 10.667S400.564 192 394.673 192zm-230.997-60.331a10.663 10.663 0 01-7.552-3.115L95.772 68.267c-4.189-4.189-4.189-10.979 0-15.168s10.979-4.189 15.168 0l60.267 60.352c4.171 4.16 4.179 10.914.019 15.085a10.667 10.667 0 01-7.571 3.134h.021zm-60.352 181.014a10.667 10.667 0 01-7.552-18.219l60.352-60.352c4.237-4.092 10.99-3.975 15.083.262 3.992 4.134 3.992 10.687 0 14.82l-60.267 60.373a10.665 10.665 0 01-7.616 3.116zm181.013-181.014a10.667 10.667 0 01-7.552-18.219l60.288-60.352c4.237-4.093 10.99-3.975 15.083.262 3.992 4.134 3.992 10.687 0 14.82l-60.267 60.352a10.661 10.661 0 01-7.552 3.137z" fill="#455a64"/></svg>