<svg xmlns="http://www.w3.org/2000/svg" height="511pt" viewBox="-43 1 511 511.999" width="511pt"><g id="surface1"><path d="M318.305 3.266C316.367 1.223 313.715 0 310.96 0H146.246c-27.129 0-49.773 19.887-54.262 45.793-22.843 3.98-40.796 22.031-44.773 44.777C20.797 94.648.5 117.598.5 145.133v311.484C.5 487.012 25.078 512 55.473 512h223.566c27.129 0 49.672-19.79 54.262-45.695 23.355-3.567 41.918-21.926 45.894-45.18 25.907-4.488 45.59-27.129 45.59-54.363V119.535c0-2.652-.918-5.203-2.754-7.14zm2.449 32.738l70.172 73.129H345.64c-13.465 0-24.887-10.813-24.887-24.278zm-41.715 455.598H55.473c-19.176 0-34.575-15.809-34.575-34.985v-311.48c0-15.914 10.2-29.375 25.497-33.453v300.058c0 30.395 24.582 55.383 54.972 55.383h210.82c-4.386 14.277-17.542 24.477-33.148 24.477zm45.899-44.875h-223.57c-19.071 0-34.575-15.809-34.575-34.985V100.258c0-15.606 10.2-28.762 24.477-33.149v299.758c0 30.39 24.582 55.38 54.976 55.38h211.836c-4.383 14.28-17.543 24.48-33.144 24.48zm44.875-44.88H146.245c-19.074 0-34.574-15.808-34.574-34.984V55.383c0-19.074 15.398-34.985 34.574-34.985h154.11v64.457c0 24.786 20.5 44.676 45.285 44.676h58.746v237.332c0 19.176-15.399 34.985-34.575 34.985zm0 0"/><path d="M341.969 336.574h-167.88c-5.609 0-10.198 4.59-10.198 10.2 0 5.609 4.59 10.199 10.199 10.199h167.98c5.61 0 10.2-4.59 10.2-10.2 0-5.609-4.59-10.199-10.301-10.199zm-49.364-123.41h-28.964v-41.41c0-5.61-4.59-10.2-10.204-10.2-5.609 0-10.199 4.59-10.199 10.2v51.914c0 5.61 4.184 9.894 9.895 9.894h39.574c5.61 0 10.2-4.59 10.2-10.199 0-5.61-4.692-10.199-10.302-10.199zm0 0"/><path d="M258.027 112.293c-57.316 0-103.93 46.61-103.93 103.93 0 57.32 46.614 103.93 103.93 103.93 57.32 0 103.934-46.61 103.934-103.93 0-57.32-46.613-103.93-103.934-103.93zm0 187.46c-46.097 0-83.53-37.429-83.53-83.53 0-46.098 37.433-83.532 83.53-83.532 46.102 0 83.532 37.434 83.532 83.532 0 46.101-37.43 83.53-83.532 83.53zm0 0"/></g></svg>