<svg xmlns="http://www.w3.org/2000/svg" xmlns:xlink="http://www.w3.org/1999/xlink" version="1.1" id="Layer_1" x="0" y="0" viewBox="0 0 496 496" xml:space="preserve" width="512" height="512"><circle cx="248" cy="248" r="128" data-original="#F9BA48" data-old_color="#F9BA48" fill="#f4d75c"/><path d="M248 72c-97.048 0-176 78.952-176 176s78.952 176 176 176 176-78.952 176-176S345.048 72 248 72zm0 336c-88.224 0-160-71.776-160-160S159.776 88 248 88s160 71.776 160 160-71.776 160-160 160z" data-original="#333333" class="active-path" data-old_color="#333333" fill="#030614"/><path data-original="#333333" class="active-path" data-old_color="#333333" fill="#030614" d="M240 240H136v16h120V136h-16z"/><circle cx="248" cy="112" r="8" data-original="#333333" class="active-path" data-old_color="#333333" fill="#030614"/><circle cx="248" cy="384" r="8" data-original="#333333" class="active-path" data-old_color="#333333" fill="#030614"/><circle cx="384" cy="248" r="8" data-original="#333333" class="active-path" data-old_color="#333333" fill="#030614"/><circle cx="112" cy="248" r="8" data-original="#333333" class="active-path" data-old_color="#333333" fill="#030614"/><path d="M56.568 341.032L47.32 364.16C26.824 328.888 16 289.056 16 248 16 120.08 120.08 16 248 16c52.904 0 104.68 18.32 145.8 51.584l10.064-12.44C359.904 19.584 304.552 0 248 0 111.248 0 0 111.248 0 248c0 44.232 11.776 87.12 34.024 125.048L9.568 368.16l-3.136 15.68 46.52 9.304 18.48-46.176-14.864-5.936z" data-original="#333333" class="active-path" data-old_color="#333333" fill="#030614"/><circle cx="72" cy="408" r="8" data-original="#333333" class="active-path" data-old_color="#333333" fill="#030614"/><path d="M461.976 122.952l24.456 4.888 3.144-15.688-46.52-9.304-18.48 46.176 14.856 5.936 9.248-23.128C469.176 167.112 480 206.944 480 248c0 127.92-104.08 232-232 232-52.904 0-104.68-18.32-145.8-51.584l-10.064 12.44C136.096 476.416 191.448 496 248 496c136.752 0 248-111.248 248-248 0-44.232-11.776-87.12-34.024-125.048z" data-original="#333333" class="active-path" data-old_color="#333333" fill="#030614"/><circle cx="424" cy="88" r="8" data-original="#333333" class="active-path" data-old_color="#333333" fill="#030614"/></svg>