<svg version="1.1" id="Layer_1" xmlns="http://www.w3.org/2000/svg" xmlns:xlink="http://www.w3.org/1999/xlink" x="0" y="0" viewBox="0 0 512 512" xml:space="preserve"><circle cx="256" cy="256" r="256" fill="#f9b54c"/><path d="M512 256L369.778 113.778l-112.628 176.7-114.928 107.744L256 512c141.384 0 256-114.616 256-256z" fill="#f4a200"/><path fill="#e9eff4" d="M193.653 113.778l-51.431 51.431v233.013h227.556V113.778z"/><path d="M255.431 113.778h114.347v284.444H255.431zm-61.778 51.431v-51.431l-51.431 51.431z" fill="#cfdbe6"/><path d="M170.667 196.525h170.667v5.172H170.667zm0 28.445h170.667v5.172H170.667zm0 28.444h170.667v5.172H170.667zm0 28.445h170.667v5.172H170.667zm0 28.444h170.667v5.172H170.667zm104.508 43.672c-5.875.757-8.654-1.705-12.122-6.089-.717-.907-1.352-1.96-2.345-2.586-3.906-2.463-7.689.591-11.109 2.488l-9.847 5.465c-1.655.919-7.184 5.068-8.923 4.542.147.045-2.727-11.435-3.6-13.034-1.171-2.145-3.948-1.302-4.727.617-1.072 2.643-2.165 5.501-3.741 7.928-2.963 4.563-8.797 8.482-14.65 6.142-1.651-.66-2.836-1.905-3.636-3.472a21.348 21.348 0 005.463-6.966c1.965-4.024 4.618-10.949 2.788-15.4-1.641-3.993-4.934-4.02-7.858-1.424-5.601 4.973-8.064 14.093-6.26 21.647-3.624 2.103-7.933 2.334-11.91-1.414-2.422-2.281-6.085 1.369-3.656 3.656 5.311 5.004 11.893 5.211 17.449 2.493.862 1.503 1.933 2.875 3.281 4.013 10.2 8.607 19.301-.326 24.619-9.519.205 2.043.205 4.081.746 6.32.281 1.162.49 2.119 1.358 2.951 3.444 3.303 8.618-.598 11.643-2.277l11.254-6.244c3.381-1.876 5.972-4.239 10.385-1.389.743.479 1.022 1.693 1.726 2.231 4.308 3.289 8.04 5.217 13.667 4.491 3.26-.419 3.301-5.596.005-5.17zm-73.068-14.366c.946-1.188 1.117-3.17 1.658-.884.371 1.565-1.374 5.392-1.995 6.818-.648 1.488-1.545 2.95-2.61 4.282-.028-3.885 1.123-7.928 2.947-10.216z" fill="#d0d1d3"/><path d="M255.431 196.525h85.906v5.172h-85.906zm0 28.445h85.906v5.172h-85.906zm0 28.444h85.906v5.172h-85.906zm0 28.445h85.906v5.172h-85.906zm0 28.444h85.906v5.172h-85.906zm19.744 43.672c-5.875.757-8.654-1.705-12.122-6.089-.717-.907-1.352-1.96-2.345-2.586-1.795-1.131-3.562-1.093-5.282-.543v6.363c1.286-.102 2.691.229 4.355 1.305.743.479 1.022 1.693 1.726 2.231 4.308 3.289 8.04 5.217 13.667 4.491 3.256-.421 3.297-5.598.001-5.172z" fill="#a6a8aa"/><path d="M304.052 334.202l-23.957-15.334 99.668-155.724c4.234-6.616 13.029-8.547 19.646-4.311 6.616 4.234 8.547 13.029 4.311 19.646l-99.668 155.723z" fill="#324a5e"/><path d="M399.408 158.832c-.071-.045-.145-.079-.217-.124L291.955 326.461l12.097 7.742 99.668-155.726c4.234-6.616 2.303-15.411-4.312-19.645z" fill="#2b3b4e"/><path fill="#f9b54c" d="M276.74 350.492l27.312-16.29-23.957-15.335z"/><path fill="#f4a200" d="M276.77 350.217l-.03.275 27.312-16.29-12.097-7.743z"/></svg>