<svg xmlns="http://www.w3.org/2000/svg" xmlns:xlink="http://www.w3.org/1999/xlink" version="1.1" id="Capa_1" x="0" y="0" viewBox="0 0 496 496" xml:space="preserve" width="512" height="512" class="hovered-paths"><path data-original="#F0BC5E" data-old_color="#F0BC5E" fill="#f4d75c" d="M96 336h144v104H96z"/><path data-original="#000000" class="hovered-path active-path" data-old_color="#000000" fill="#030715" d="M240 72h128v16H240zm0 32h128v16H240zM96 328h144v16H96zm0 64h144v16H96zm0-32h64v16H96zm80 0h64v16h-64zm-80 64h64v16H96zm80 0h64v16h-64z"/><path d="M480 305.472V200c0-8.288-5.576-15.632-13.568-17.848L400 163.696V32H178.888c-.456-.504-.856-1.048-1.344-1.536-10.344-10.352-25.184-14.016-38.864-10.16C131.696 7.888 118.624 0 104 0S76.304 7.888 69.328 20.296c-13.696-3.84-28.528-.184-38.864 10.168-10.344 10.344-14.008 25.168-10.16 38.864C7.888 76.304 0 89.376 0 104s7.888 27.696 20.304 34.672c-3.848 13.704-.184 28.52 10.16 38.864 5.008 5.008 11.064 8.456 17.536 10.24v109.312l16-13.336V496h235.32L400 395.312v-111.56l48-13.712v-47.064l16-4.448v86.952c-9.288 3.312-16 12.112-16 22.528v56h48v-56c0-10.424-6.712-19.224-16-22.536zM192 104c0 10.48-6.808 19.632-16.936 22.784l-3.184.992c2.624-7.456 4.12-15.44 4.12-23.776s-1.496-16.32-4.12-23.768l3.184.992C185.192 84.368 192 93.52 192 104zM64 262.92v-74.104a39.916 39.916 0 005.328-1.112C76.304 200.112 89.376 208 104 208s27.696-7.888 34.672-20.296c1.76.496 3.536.864 5.328 1.112v74.104l-40-33.336-40 33.336zM104 176c8.336 0 16.32-1.496 23.768-4.12l-.992 3.184C123.632 185.192 114.48 192 104 192s-19.632-6.808-22.784-16.936l-.992-3.184C87.68 174.504 95.664 176 104 176zm-56-72c0-30.88 25.12-56 56-56s56 25.12 56 56-25.12 56-56 56-56-25.12-56-56zm90.144 66.36l-2.968-1.56a72.321 72.321 0 0033.624-33.624l1.56 2.968c4.936 9.384 3.28 20.672-4.136 28.08-7.4 7.408-18.688 9.072-28.08 4.136zm28.08-128.584c7.408 7.408 9.072 18.696 4.136 28.08l-1.56 2.968A72.357 72.357 0 00135.176 39.2l2.968-1.56c9.384-4.952 20.68-3.28 28.08 4.136zM104 16c10.48 0 19.632 6.808 22.784 16.936l.992 3.184C120.32 33.496 112.336 32 104 32s-16.32 1.496-23.768 4.12l.992-3.184C84.368 22.808 93.52 16 104 16zM41.776 41.776c7.408-7.408 18.696-9.08 28.08-4.136l2.968 1.56A72.357 72.357 0 0039.2 72.824l-1.56-2.968c-4.936-9.384-3.28-20.672 4.136-28.08zM16 104c0-10.48 6.808-19.632 16.936-22.784l3.184-.992C33.496 87.68 32 95.664 32 104s1.496 16.32 4.12 23.768l-3.184-.992C22.808 123.632 16 114.48 16 104zm25.776 62.224c-7.408-7.408-9.072-18.696-4.136-28.08l1.56-2.968A72.321 72.321 0 0072.824 168.8l-2.968 1.56c-9.392 4.928-20.68 3.272-28.08-4.136zM384 384h-96v80h16v-64h68.688l-80 80H80V270.416l24-20 56 46.664V187.776a39.661 39.661 0 0017.536-10.232c10.344-10.344 14.008-25.168 10.16-38.864C200.112 131.696 208 118.624 208 104s-7.888-27.696-20.304-34.672c1.992-7.072 1.936-14.432.032-21.328H384v111.248l-56-15.56-138.432 38.456C181.576 184.368 176 191.712 176 200s5.576 15.632 13.568 17.848l18.432 5.12v47.064l120 34.288 56-16V384zm48-126.032L328 287.68l-104-29.712v-30.552l104 28.888 104-28.888v30.552zm30.152-55.536L328 239.696l-134.152-37.264C192.76 202.128 192 201.128 192 200s.76-2.128 1.848-2.432L328 160.304l134.152 37.264c1.088.304 1.848 1.304 1.848 2.432s-.76 2.128-1.848 2.432zM480 368h-16v-40c0-4.408 3.592-8 8-8s8 3.592 8 8v40z" data-original="#000000" class="hovered-path active-path" data-old_color="#000000" fill="#030715"/><circle cx="104" cy="104" r="40" data-original="#F0BC5E" data-old_color="#F0BC5E" fill="#f4d75c"/><path data-original="#F0BC5E" data-old_color="#F0BC5E" fill="#f4d75c" d="M240 88h128v16H240z"/></svg>