<svg height="472" viewBox="0 -1 354.509 354" width="472" xmlns="http://www.w3.org/2000/svg"><path d="M49.059 337.836a7.007 7.007 0 005.289 5.621 7.012 7.012 0 007.246-2.664l15-20.36A175.359 175.359 0 00177.508 352c97.601 0 177-79.402 177-177a175.783 175.783 0 00-13.621-68.191 6.997 6.997 0 00-5.57-4.297 6.996 6.996 0 00-6.493 2.71 7.005 7.005 0 00-.855 6.989A161.844 161.844 0 01340.508 175c0 89.879-73.121 163-163 163a161.475 161.475 0 01-92.606-28.844l22.168-30.086a7.004 7.004 0 00.395-7.707 7.003 7.003 0 00-6.93-3.386l-54.945 7.132a7.01 7.01 0 00-6 8.14zm37.011-53.863L69.535 306.41c-.015.02-.031.035-.043.055-.015.02-.043.066-.066.101l-9.371 12.715-5.414-31.226zM177 14.254a161.475 161.475 0 0192.605 28.844l-22.168 30.086a7.007 7.007 0 00-.613 7.308 6.994 6.994 0 007.149 3.785l54.941-7.132a7.005 7.005 0 006-8.137l-9.46-54.59a6.986 6.986 0 00-5.29-5.617 6.997 6.997 0 00-7.242 2.66l-15 20.36A175.363 175.363 0 00177 .253c-97.602 0-177 79.402-177 177a175.854 175.854 0 0013.621 68.191 7.009 7.009 0 005.57 4.301 7.01 7.01 0 006.496-2.715 7.004 7.004 0 00.852-6.988A161.9 161.9 0 0114 177.253c0-89.878 73.121-163 163-163zm117.453 18.719l5.414 31.226-31.43 4.082 16.532-22.437c.015-.02.031-.035.047-.055.015-.02.043-.066.066-.102zm0 0"/><path d="M177.254 108.422c16.523.016 29.914 13.406 29.934 29.933a7.001 7.001 0 0014 0c-.028-21.55-15.665-39.91-36.934-43.37V81.128c0-3.867-3.133-7-7-7s-7 3.133-7 7v13.855c-22.602 3.657-38.606 24.059-36.774 46.88 1.829 22.82 20.88 40.41 43.774 40.421 16.465-.004 29.836 13.293 29.934 29.754.093 16.465-13.125 29.914-29.586 30.102-.118-.004-.23-.016-.348-.016-.117 0-.23.012-.348.016-16.386-.207-29.566-13.536-29.586-29.922a7.001 7.001 0 00-14 0c.028 21.55 15.664 39.91 36.934 43.37v15.54a7.001 7.001 0 0014 0v-15.54c22.601-3.655 38.605-24.058 36.773-46.878-1.828-22.824-20.879-40.414-43.773-40.422-16.465-.094-29.762-13.469-29.762-29.934 0-16.464 13.297-29.84 29.762-29.933zm0 0"/></svg>