<svg version="1.1" id="Capa_1" xmlns="http://www.w3.org/2000/svg" xmlns:xlink="http://www.w3.org/1999/xlink" x="0" y="0" viewBox="0 0 512 512" xml:space="preserve"><path d="M414.317 213.105l-42.422-42.422c-5.859-5.859-15.352-5.859-21.211 0L300 221.367V15c0-8.291-6.709-15-15-15h-60c-8.291 0-15 6.709-15 15v206.367l-50.683-50.684c-5.859-5.859-15.352-5.859-21.211 0l-42.422 42.422c-5.859 5.859-5.859 15.352 0 21.211l148.711 148.711c5.859 5.86 15.351 5.86 21.21 0l148.712-148.711c5.859-5.859 5.859-15.352 0-21.211z"/><path d="M497 332h-60c-8.291 0-15 6.709-15 15v75H90v-75c0-8.291-6.709-15-15-15H15c-8.291 0-15 6.709-15 15v120c0 24.814 20.186 45 45 45h422c24.814 0 45-20.186 45-45V347c0-8.291-6.709-15-15-15z"/></svg>