<svg xmlns="http://www.w3.org/2000/svg" xmlns:xlink="http://www.w3.org/1999/xlink" version="1.1" id="Layer_1" x="0" y="0" viewBox="0 0 291.638 291.638" xml:space="preserve" width="512" height="512" class="hovered-paths"><circle cx="164.57" cy="126.923" r="65.625" data-original="#F9BA48" class="hovered-path" data-old_color="#F9BA48" fill="#f4d75c"/><path d="M261.934 19.111c-32.906 0-65.076-6.197-95.62-18.412L164.57 0l-1.739.698C132.283 12.914 100.112 19.11 67.206 19.11H56.757v98.438H33.32c-7.753 0-14.062 6.309-14.062 14.062v79.688c0 7.753 6.309 14.063 14.062 14.063h42.21c11.072 17.592 26.414 32.123 44.705 42.094l44.334 24.183 44.334-24.183a121.73 121.73 0 0063.478-106.931V19.111h-10.447zM28.632 211.298V131.61c0-2.583 2.1-4.687 4.687-4.687h42.187a4.692 4.692 0 014.687 4.687v79.688c0 2.583-2.1 4.688-4.687 4.688H33.32a4.693 4.693 0 01-4.688-4.688zm60.938-70.354c15.652-.848 28.125-13.852 28.125-29.709V87.08c0-6.459 5.255-11.719 11.719-11.719s11.719 5.259 11.719 11.719v29.503c0 8.287 6.741 15.028 15.028 15.028h34.364c8.948 0 16.233 7.28 16.233 16.233v51.909c0 8.953-7.284 16.233-16.233 16.233h-69.066a11.092 11.092 0 01-9.239-4.945 20.438 20.438 0 00-17.039-9.117H89.57v-60.98zm173.437 19.579a112.365 112.365 0 01-58.589 98.7l-39.848 21.736-39.848-21.736c-16.308-8.897-30.089-21.708-40.223-37.205a13.963 13.963 0 004.978-9.797c9.459 16.317 23.081 29.686 39.736 38.77l35.358 19.289 35.358-19.289a102.986 102.986 0 0053.705-90.464V89.423h-9.375v71.105a93.614 93.614 0 01-48.816 82.233l-30.872 16.838-30.872-16.838c-13.209-7.205-24.305-17.386-32.644-29.705 1.308.82 2.48 1.861 3.366 3.188a20.438 20.438 0 0017.039 9.117h69.066c14.123 0 25.608-11.489 25.608-25.608v-51.909c0-14.119-11.484-25.608-25.608-25.608h-34.364a5.66 5.66 0 01-5.653-5.653V87.08c0-11.63-9.464-21.094-21.094-21.094s-21.094 9.464-21.094 21.094v24.15c0 10.688-8.292 19.378-18.769 20.217-.047-4.073-1.852-7.702-4.669-10.242V46.697a284.205 284.205 0 0079.687-16.566 284.254 284.254 0 0079.687 16.566v5.227h9.375V37.777l-4.472-.206a275.04 275.04 0 01-82.964-16.828l-1.627-.605-1.627.6a275.1 275.1 0 01-82.964 16.828l-4.472.211v79.772h-9.375V28.486h1.073c33.483 0 66.225-6.188 97.364-18.394 31.139 12.206 63.881 18.394 97.364 18.394h1.073v132.037h.002z" data-original="#333333" class="active-path" data-old_color="#333333" fill="#030715"/><path data-original="#333333" class="active-path" data-old_color="#333333" fill="#030715" d="M244.257 70.673h9.375v9.375h-9.375zM38.007 197.236h32.812v9.375H38.007z"/></svg>