<svg xmlns="http://www.w3.org/2000/svg" xmlns:xlink="http://www.w3.org/1999/xlink" version="1.1" id="Capa_1" x="0" y="0" viewBox="0 0 496 496" xml:space="preserve" width="512" height="512" class="hovered-paths"><path d="M128 160c-35.288 0-64-28.712-64-64s28.712-64 64-64 64 28.712 64 64-28.712 64-64 64zm240-32H240V32h128v96z" data-original="#F0BC5E" data-old_color="#F0BC5E" fill="#f4d75c"/><path d="M456 288h-24V48h-32V0H32v48H0v416h176.808c3.712 18.232 19.88 32 39.192 32s35.48-13.768 39.192-32H432v-96h24c22.056 0 40-17.944 40-40s-17.944-40-40-40zm-24 32h-32v16h32v16H304v-16h80v-16h-80v-16h128v16zm-144 27.056l-29.264-14.632A4.93 4.93 0 01256 328a4.93 4.93 0 012.736-4.424L288 308.944v38.112zM400 80V64h16v224h-16V96h-16v192h-89.888l-42.536 21.264C244.44 312.84 240 320.016 240 328s4.44 15.16 11.576 18.736L294.112 368H384v48H224V16h160v64h16zM48 16h160v400H48V16zm368 432H240v8c0 13.232-10.768 24-24 24s-24-10.768-24-24v-8H16V64h16v368h368v-64h16v80zm40-96h-8v-48h8c13.232 0 24 10.768 24 24s-10.768 24-24 24z" data-original="#000000" class="hovered-path active-path" data-old_color="#000000" fill="#030715"/><path data-original="#000000" class="hovered-path active-path" data-old_color="#000000" fill="#030715" d="M240 384h128v16H240zM96 176h96v16H96zm-32 32h128v16H64zm0 32h128v16H64zm0 32h128v16H64zm176-128h128v16H240zm0 32h128v16H240zm0 32h128v16H240zm0 32h72v16h-72zM64 304h128v16H64zm48 32h80v16h-80zm-48 0h32v16H64zm0 32h128v16H64zm0-192h16v16H64z"/></svg>