<svg xmlns="http://www.w3.org/2000/svg" xmlns:xlink="http://www.w3.org/1999/xlink" version="1.1" id="Capa_1" x="0" y="0" viewBox="0 0 496 496" xml:space="preserve" width="512" height="512" class="hovered-paths"><path d="M176 120v136h24v-16c0-8.84 7.16-16 16-16s16 7.16 16 16v16h88V120H176z" data-original="#FFA64D" data-old_color="#FFA64D" fill="#f4d75c"/><path d="M456 304V72c0-22.056-17.944-40-40-40H307.824C294.888 12.72 272.904 0 248 0s-46.888 12.72-59.824 32H80c-22.056 0-40 17.944-40 40v232H0v40c0 22.056 17.944 40 40 40h101.16a183.027 183.027 0 0025.152 49.8L184 458.56V496h128v-37.816c13.24-22.72 21.136-48.088 23.32-74.184H456c22.056 0 40-17.944 40-40v-40h-40zM248 16c30.88 0 56 25.12 56 56v48h16V96h72v176h16V96c0-8.824-7.176-16-16-16h-72v-8c0-8.424-1.528-16.48-4.2-24H416c13.232 0 24 10.768 24 24v232h-32v-16h-16v16h-62.24c-4.392-4.872-10.696-8-17.76-8-3.16 0-6.16.648-8.928 1.76C300.312 287.56 291.064 280 280 280c-3.16 0-6.16.648-8.928 1.76C268.312 271.56 259.064 264 248 264c-2.816 0-5.488.576-8 1.472V240c0-13.232-10.768-24-24-24s-24 10.768-24 24v64h-19.608c-4.72-4.968-11.328-8-18.632-8-7.312 0-13.88 3.096-18.576 8H104V96h168v24h16V72c0-22.056-17.944-40-40-40s-40 17.944-40 40c0 4.408-3.592 8-8 8s-8-3.592-8-8c0-30.88 25.12-56 56-56zm-56 304v48h-1.584l-10.672-48H192zm80-240h-49.472c.896-2.512 1.472-5.184 1.472-8 0-13.232 10.768-24 24-24s24 10.768 24 24v8zM56 72c0-13.232 10.768-24 24-24h100.2c-2.672 7.52-4.2 15.576-4.2 24 0 2.816.576 5.488 1.472 8H104c-8.824 0-16 7.176-16 16v208H56V72zM40 368c-13.232 0-24-10.768-24-24v-24h112.176c-.04.592-.176 1.152-.176 1.76v4.296c0 1.872.208 3.76.616 5.584l7.808 35.128c.096.416.24.816.336 1.232H40zm280 1.352c0 29.072-7.904 57.608-22.856 82.528L296 453.784V480h-96v-26.56l-20.664-28.936c-13.192-18.472-22.376-39.064-27.296-61.2l-7.808-35.128a9.948 9.948 0 01-.232-2.12v-4.296c0-5.384 4.376-9.76 9.76-9.76 4.608 0 8.52 3.144 9.52 7.64L177.584 384H208V240c0-4.408 3.592-8 8-8s8 3.592 8 8v120h16v-72c0-4.416 3.592-8 8-8 4.408 0 8 3.584 8 8v72h16v-56c0-4.416 3.592-8 8-8s8 3.584 8 8v56h16v-40c0-4.416 3.592-8 8-8s8 3.584 8 8v49.352zM480 344c0 13.232-10.768 24-24 24H336v-48h144v24z" data-original="#333333" class="hovered-path active-path" data-old_color="#333333" fill="#323232"/><path d="M248 144c-13.232 0-24 10.768-24 24 0 10.416 6.712 19.216 16 22.528V224h16v-33.472c9.288-3.312 16-12.112 16-22.528 0-13.232-10.768-24-24-24zm0 32c-4.408 0-8-3.592-8-8s3.592-8 8-8c4.408 0 8 3.592 8 8s-3.592 8-8 8z" data-original="#333333" class="hovered-path active-path" data-old_color="#333333" fill="#323232"/></svg>