<svg xmlns="http://www.w3.org/2000/svg" id="Layer_1" data-name="Layer 1" viewBox="0 0 512 512" width="512" height="512"><path d="M65.742 422.074l-24.159 56.805a6 6 0 006.556 8.259L135.8 471.8a158.969 158.969 0 0053.893 9.434c81.11 0 148.288-60.781 158.385-139.187a160.944 160.944 0 0028.113-7.314l87.666 15.336a6 6 0 006.556-8.258l-24.159-56.805A158.11 158.11 0 00482 184.471c0-88.058-71.64-159.7-159.7-159.7A159.713 159.713 0 00163.923 163.93C88.078 176.291 30 242.254 30 321.538a158.1 158.1 0 0035.742 100.536zm157.11-346.8a147.328 147.328 0 0199.451-38.5c81.44 0 147.7 66.257 147.7 147.7a146.225 146.225 0 01-35.269 95.626 6 6 0 00-.953 6.238l21.272 50.014-78.37-13.709a6 6 0 00-3.119.283 149.473 149.473 0 01-24.374 6.745q.2-4.039.206-8.128a158.726 158.726 0 00-15.375-68.323l.75-.283.131-.052c26.739-10.832 47.519-26.776 60.1-46.106 11.2-17.211 15.475-36.436 12.031-54.177-4.711-23.35-21.691-38.437-43.26-38.437-10.539 0-21.824 3.8-32.857 11.017-11.17-7.552-22.3-11.375-33.138-11.375-21.7 0-38.617 15.255-43.092 38.85a66.893 66.893 0 00-.285 22.9 158.778 158.778 0 00-64.7-13.708c-4.531 0-9.015.2-13.451.572a147.327 147.327 0 0146.602-87.15zm45.458 107.3a57.36 57.36 0 01-1.841-27.671c3.4-17.949 15.4-29.1 31.305-29.1 9.207 0 19.408 3.979 29.5 11.508a6 6 0 007.113.045c10.092-7.324 20.253-11.195 29.384-11.195 15.842 0 27.912 11.039 31.489 28.767 7.522 38.759-27.112 71.517-64.8 86.805l-2.035.77a160.888 160.888 0 00-60.115-59.931zm-78.61-8.734c81.442 0 147.7 66.257 147.7 147.7s-66.257 147.7-147.7 147.7a147.121 147.121 0 01-51.261-9.247 6.021 6.021 0 00-3.119-.284l-78.37 13.71L78.219 423.4a6 6 0 00-.953-6.238A146.22 146.22 0 0142 321.538C42 240.1 108.257 173.84 189.7 173.84z"/><path d="M107.837 405.985h40a6 6 0 006-6V393h3.23a56.222 56.222 0 0129.666 8.455c11.13 6.9 23.376 7.477 35.994 7.477h32.559a17.113 17.113 0 0014.983-25.406 17.107 17.107 0 003.034-25.3 17.45 17.45 0 00.178-22.634 16.428 16.428 0 00-12.381-27.263h-40.37a2.623 2.623 0 01-2.61-2.342 36.835 36.835 0 012.125-16.872 57.6 57.6 0 003.69-20.318v-3.83a24.861 24.861 0 00-24.835-24.834 6 6 0 00-5.931 5.091l-2.119 13.83a88.961 88.961 0 01-15.65 38.305 21.759 21.759 0 01-17.557 8.949h-4.009v-8.67a6 6 0 00-6-6h-40a6 6 0 00-6 6v102.347a6 6 0 006.003 6zm50.008-87.677a33.806 33.806 0 0027.281-13.918 101.007 101.007 0 0017.787-43.518l1.184-7.726a12.854 12.854 0 017.838 11.821v3.83a45.636 45.636 0 01-2.924 16.1 48.919 48.919 0 00-2.821 22.394 14.606 14.606 0 0014.54 13.039h40.37a4.454 4.454 0 110 8.907h-9.62a6.085 6.085 0 00-.743.051h-6.091a6 6 0 000 12h15.39a5.523 5.523 0 110 11.045h-15.39a6 6 0 100 12h15.738a5.175 5.175 0 110 10.349h-22.691a6 6 0 000 12h17.592a5.127 5.127 0 110 10.253h-32.559c-11.228 0-21.21-.427-29.667-5.674A68.211 68.211 0 00157.066 381h-3.23v-62.692zm-44.008-14.67h28v90.347h-28z"/></svg>