<svg xmlns="http://www.w3.org/2000/svg" xmlns:xlink="http://www.w3.org/1999/xlink" version="1.1" id="Layer_1" x="0" y="0" viewBox="0 0 290.626 290.626" xml:space="preserve" width="512" height="512" class="hovered-paths"><circle cx="65.626" cy="79.688" r="23.438" data-original="#F9BA48" class="hovered-path" data-old_color="#F9BA48" fill="#f4d75c"/><path data-original="#333333" class="active-path" data-old_color="#333333" fill="#333" d="M87.381 69.225l-6.01-7.2L56.542 82.72l-6.352-6.347-6.628 6.629 12.399 12.403zm15.745-3.6h70.312V75h-70.312zm0 18.75h79.687v9.375h-79.687zM87.381 116.1l-6.01-7.2-24.829 20.695-6.352-6.347-6.628 6.629 12.399 12.403zm15.745-3.6h98.437v9.375h-98.437zm0 18.75h18.75v9.375h-18.75zm28.125 0h70.312v9.375h-70.312zm-43.87 31.725l-6.01-7.2-24.829 20.695-6.352-6.347-6.628 6.629 12.399 12.403zm15.745-3.6h98.437v9.375h-98.437zm0 18.75h70.312v9.375h-70.312zm79.687 0h18.75v9.375h-18.75zm0-112.5h18.75V75h-18.75z"/><path d="M276.563 215.625h-37.5V23.438C239.063 10.514 228.549 0 215.626 0H23.439C10.515 0 .001 10.514.001 23.438s10.514 23.438 23.437 23.438v243.75h196.875V262.5h18.75v-18.75h37.5c7.753 0 14.062-6.309 14.062-14.063s-6.309-14.062-14.062-14.062zM229.688 23.438v192.188h-9.375V37.5h-4.688c-7.753 0-14.062-6.309-14.062-14.063s6.309-14.063 14.062-14.063 14.063 6.31 14.063 14.064zm-220.312 0c0-7.753 6.309-14.063 14.062-14.063h173.559c-2.977 3.928-4.809 8.766-4.809 14.063s1.833 10.134 4.809 14.063H23.439c-7.753-.001-14.063-6.31-14.063-14.063zM32.814 281.25V46.875h178.125v168.75H78.929l-42.187 14.063 42.187 14.063h132.009v37.5H32.814v-.001zm33.572-51.562l8.615-2.874v5.742l-8.615-2.868zm163.302 23.437h-9.375v-9.375h9.375v9.375zm9.375-18.75H84.376V225h154.687v9.375zm18.75 0h-9.375V225h9.375v9.375zm18.75 0h-9.375V225h9.375c2.587 0 4.687 2.105 4.687 4.688s-2.099 4.687-4.687 4.687z" data-original="#333333" class="active-path" data-old_color="#333333" fill="#333"/></svg>