<svg version="1.1" id="Capa_1" xmlns="http://www.w3.org/2000/svg" xmlns:xlink="http://www.w3.org/1999/xlink" x="0" y="0" viewBox="0 0 343.5 343.5" xml:space="preserve"><path d="M322.05 161.8h-182.6c-5.5 0-10 4.5-10 10s4.5 10 10 10h182.6c5.5 0 10-4.5 10-10s-4.4-10-10-10zm-264.1-36.5c-25.7 0-46.5 20.8-46.5 46.5s20.8 46.5 46.5 46.5 46.5-20.8 46.5-46.5-20.8-46.5-46.5-46.5zm0 73c-14.7 0-26.5-11.9-26.5-26.5 0-14.7 11.9-26.5 26.5-26.5s26.5 11.9 26.5 26.5-11.9 26.5-26.5 26.5zm264.1-161.5h-182.6c-5.5 0-10 4.5-10 10s4.5 10 10 10h182.6c5.5 0 10-4.5 10-10s-4.4-10-10-10zM57.95 0c-25.7 0-46.5 20.8-46.5 46.5S32.25 93 57.95 93s46.5-20.8 46.5-46.5c0-25.6-20.8-46.4-46.5-46.5zm0 73.1c-14.7 0-26.5-11.9-26.5-26.5s11.9-26.5 26.5-26.5c14.7 0 26.5 11.9 26.5 26.5s-11.9 26.5-26.5 26.5zm264.1 213.7h-182.6c-5.5 0-10 4.5-10 10s4.5 10 10 10h182.6c5.5 0 10-4.5 10-10s-4.4-10-10-10zm-264.1-36.3c-25.7 0-46.5 20.8-46.5 46.5s20.8 46.5 46.5 46.5 46.5-20.8 46.5-46.5c0-25.6-20.8-46.5-46.5-46.5zm0 73.1c-14.7 0-26.5-11.9-26.5-26.5 0-14.7 11.9-26.5 26.5-26.5 14.7 0 26.5 11.9 26.5 26.5s-11.9 26.5-26.5 26.5z"/></svg>