<svg height="648" viewBox="-32 0 486 486.035" width="648" xmlns="http://www.w3.org/2000/svg"><path d="M421.273 283.547c0-50.684-42.28-91.918-94.257-91.918-40.606 0-75.297 25.172-88.528 60.351A167.157 167.157 0 00167.016 236c-45.082 0-87.04 17.512-118.141 49.305-31.504 32.21-48.86 76.28-48.86 124.101 0 3.867 3.137 7 7 7h253.95v62.63a7 7 0 0011.758 5.137l54.293-50.294 54.3 50.293a7.002 7.002 0 0011.758-5.137V349.051a90.53 90.53 0 0028.2-65.504zm-94.257-77.918c44.254 0 80.257 34.953 80.257 77.918a76.6 76.6 0 01-24.566 56.027 7.096 7.096 0 00-2.395 2.16c-30.66 26.305-75.925 26.305-106.59 0a6.984 6.984 0 00-2.394-2.16 76.6 76.6 0 01-24.566-56.027c0-42.965 36-77.918 80.254-77.918zM14.152 402.402c1.594-41.414 17.336-79.3 44.73-107.308C87.333 266.016 125.73 250 167.017 250a152.916 152.916 0 0167.55 15.625 90.11 90.11 0 0026.399 83.426v53.351zM379.07 463l-47.3-43.809a7.001 7.001 0 00-9.512 0L274.96 463V360.137c31.691 20.433 72.41 20.433 104.102 0zm0 0"/><path d="M274.848 275.809l25.5 18.035-9.72 29.097a7 7 0 0010.68 7.934l25.712-18.176 25.707 18.176a7.001 7.001 0 0010.683-7.934l-9.719-29.097 25.5-18.035a6.999 6.999 0 00-4.043-12.715h-31.726l-9.766-29.25a7 7 0 00-13.281 0l-9.766 29.25h-31.726a6.997 6.997 0 00-6.672 4.879 7.005 7.005 0 002.629 7.836zm40.812 1.285a6.994 6.994 0 006.637-4.785l4.726-14.149 4.723 14.156a7 7 0 006.64 4.782h14.747l-11.77 8.316a7.004 7.004 0 00-2.601 7.934l4.601 13.765-12.3-8.699a7.005 7.005 0 00-8.083 0l-12.3 8.7 4.601-13.766a7.003 7.003 0 00-2.601-7.934l-11.762-8.316zM64.016 103c0 56.887 46.117 103 103 103 56.886 0 103-46.113 103-103s-46.114-103-103-103c-56.856.066-102.934 46.14-103 103zm192 0c0 49.152-39.844 89-89 89-49.153 0-89-39.848-89-89s39.847-89 89-89c49.132.055 88.945 39.871 89 89zm0 0"/></svg>