<svg height="572" viewBox="-7 0 429 429.796" width="572" xmlns="http://www.w3.org/2000/svg"><path d="M191.672 184.18a7.002 7.002 0 009.742.882l36.227-29.472a7.005 7.005 0 002.558-6.567 6.994 6.994 0 00-4.445-5.464 6.989 6.989 0 00-6.945 1.171l-30.926 25.16-11.117-13.019a7.005 7.005 0 00-6.621-2.39 6.997 6.997 0 00-4.027 11.48zm0 0"/><path d="M207.332 241.895c42.527 0 77-34.473 77-77 0-42.524-34.473-77-77-77-42.523 0-77 34.476-77 77 .05 42.507 34.496 76.953 77 77zm0-140c34.793 0 63 28.207 63 63 0 34.796-28.207 63-63 63s-63-28.204-63-63c.04-34.778 28.223-62.958 63-63zm0 0"/><path d="M401.504 160.766l-65.348-40.328a6.92 6.92 0 00-.73-.391l-1.028-.477v-17.035c0-1.726-.636-3.39-1.789-4.676L247.074 2.504a7.524 7.524 0 00-.344-.348 6.976 6.976 0 00-5.835-2.11l-.122-.01a6.984 6.984 0 00-.699-.036h-120.96C97.741.023 80.421 17.344 80.397 38.715v81.383L13.316 160.75A27.162 27.162 0 00.398 183.79v194.558c.028 28.402 23.043 51.418 51.446 51.449h311.11c28.401-.031 51.417-23.047 51.444-51.45V183.79a27.16 27.16 0 00-12.894-23.023zm-7.328 11.93a13.08 13.08 0 016.222 11.093v10.633l-66 40.336v-98.953zM248.684 25.265l54.222 60.449h-29.508c-13.644-.016-24.699-11.074-24.714-24.719zm-129.57-11.27h115.57v47c.023 21.371 17.343 38.691 38.714 38.719h42.067l4.933 5.5v138.097l-113 69.055-113-69.055V38.715c.012-13.645 11.07-24.703 24.715-24.719zM20.597 172.707l59.8-36.242v98.293l-66-40.336v-10.633a13.077 13.077 0 016.2-11.082zm342.355 243.09H51.843c-20.671-.024-37.425-16.777-37.445-37.45V210.829l68.176 41.668a6.985 6.985 0 002.52 1.54l118.652 72.507a6.993 6.993 0 007.3 0l118.657-72.512a6.985 6.985 0 002.52-1.539l68.175-41.664v167.52c-.02 20.672-16.773 37.425-37.445 37.449zm0 0"/></svg>