<svg xmlns="http://www.w3.org/2000/svg" height="512" viewBox="0 0 496 496.704" width="512" class="hovered-paths"><path d="M320.352 464v-16c70.578 0 128-57.426 128-128h16c0 79.398-64.598 144-144 144zm0 0" data-original="#000000" class="hovered-path" data-old_color="#000000" fill="#323232"/><path d="M439.281 184.168l-36.273-33.246c3.289-4.113 5.344-9.258 5.344-14.922 0-7.816-3.809-14.695-9.61-19.078l40.64-40.64c5.786-5.786 8.97-13.473 8.97-21.657 0-16.883-13.743-30.625-30.625-30.625-8.176 0-15.872 3.184-21.657 8.969l-27.949 27.953A10.62 10.62 0 01360.688 64c-5.29 0-9.766-3.953-10.422-9.2l-3.993-31.921C344.648 9.832 333.503 0 320.352 0c-13.153 0-24.297 9.832-25.918 22.879L290.44 54.8c-.656 5.246-5.136 9.199-10.425 9.199-2.77 0-5.473-1.129-7.43-3.078l-27.953-27.953C238.848 27.184 231.16 24 222.977 24c-16.88 0-30.625 13.742-30.625 30.625 0 8.176 3.183 15.871 8.968 21.656l40.64 40.64c-5.8 4.384-9.608 11.263-9.608 19.079 0 5.664 2.054 10.809 5.343 14.91l-36.27 33.25c-16.624 15.246-30.019 33.367-39.816 53.848l14.438 6.902c8.906-18.637 21.09-35.11 36.183-48.957L251.465 160h137.773l39.227 35.96c32.976 30.224 51.887 73.208 51.887 117.942V320c0 88.223-71.778 160-160 160-45.91 0-89.72-19.91-120.176-54.625l-12.031 10.547C221.648 474.105 269.84 496 320.352 496c97.046 0 176-78.953 176-176v-6.098c0-49.199-20.809-96.488-57.07-129.734zM208.351 54.625c0-8.066 6.56-14.625 14.626-14.625 3.847 0 7.625 1.559 10.343 4.281l27.953 27.95C266.207 77.167 273.04 80 280.016 80c13.343 0 24.648-9.984 26.296-23.215l3.993-31.914c.632-5.055 4.953-8.871 10.047-8.871 5.097 0 9.418 3.816 10.046 8.863l3.993 31.914C336.039 70.016 347.344 80 360.687 80c6.977 0 13.81-2.832 18.747-7.77l27.949-27.949A14.719 14.719 0 01417.727 40c8.066 0 14.625 6.559 14.625 14.625 0 3.848-1.559 7.621-4.282 10.344L381.04 112H259.663l-47.031-47.031a14.719 14.719 0 01-4.281-10.344zm48 89.375c-4.413 0-8-3.586-8-8s3.587-8 8-8h128c4.419 0 8 3.586 8 8s-3.581 8-8 8zm0 0" data-original="#000000" class="hovered-path" data-old_color="#000000" fill="#323232"/><path d="M120.352 496.703l-3.153-1.351A192.562 192.562 0 01.352 318.152V240h28.777c31.215 0 61.84-10.742 86.223-30.246l5-3.992 5 3.992C149.734 229.258 180.359 240 211.574 240h28.778v78.152a192.554 192.554 0 01-116.848 177.2zm0 0" fill="#f4d75c" data-original="#F0BC5E" class="active-path" data-old_color="#f0bc5e"/><path d="M120.352 344c-8.825 0-16-7.176-16-16s7.175-16 16-16c8.824 0 16 7.176 16 16h16c0-14.871-10.23-27.29-24-30.863V280h-16v17.137c-13.766 3.574-24 15.992-24 30.863 0 17.648 14.351 32 32 32 8.824 0 16 7.176 16 16s-7.176 16-16 16c-8.825 0-16-7.176-16-16h-16c0 14.871 10.234 27.29 24 30.863V424h16v-17.137c13.77-3.574 24-15.992 24-30.863 0-17.648-14.352-32-32-32zm0 0" data-original="#000000" class="hovered-path" data-old_color="#000000" fill="#323232"/></svg>