<svg version="1.1" id="Capa_1" xmlns="http://www.w3.org/2000/svg" xmlns:xlink="http://www.w3.org/1999/xlink" x="0" y="0" viewBox="0 0 512 512" xml:space="preserve"><path d="M320 12.499v115.499h115.499z"/><path d="M298.667 170.667c-11.776 0-21.333-9.536-21.333-21.333V0h-192C73.557 0 64 9.536 64 21.333v469.333C64 502.464 73.557 512 85.333 512h341.333c11.776 0 21.333-9.536 21.333-21.333v-320H298.667zm-128-42.667h42.667c11.776 0 21.333 9.536 21.333 21.333 0 11.797-9.557 21.333-21.333 21.333h-42.667c-11.776 0-21.333-9.536-21.333-21.333-.001-11.797 9.557-21.333 21.333-21.333zm170.666 256H170.667c-11.776 0-21.333-9.536-21.333-21.333s9.557-21.333 21.333-21.333h170.667c11.776 0 21.333 9.536 21.333 21.333S353.109 384 341.333 384zm0-106.667H170.667c-11.776 0-21.333-9.536-21.333-21.333s9.557-21.333 21.333-21.333h170.667c11.776 0 21.333 9.536 21.333 21.333s-9.558 21.333-21.334 21.333z"/></svg>