<svg version="1.1" id="Layer_1" xmlns="http://www.w3.org/2000/svg" xmlns:xlink="http://www.w3.org/1999/xlink" x="0" y="0" viewBox="0 0 512 512" xml:space="preserve"><circle cx="256" cy="256" r="256" fill="#31bafd"/><path d="M327.189 501.96c90.526-26.155 160.425-100.923 179.576-194.208L362.477 163.464l-53.322-22.68-18.323 18.323-53.298-53.298-49.878-27.913-37.792 39.321 46.949 46.949-6.642 200.776L327.189 501.96z" fill="#2b9ed8"/><path d="M362.477 163.464l-38.565-38.185a7.757 7.757 0 00-10.969.053l-38.184 38.565a7.755 7.755 0 00.053 10.969 7.728 7.728 0 005.458 2.246 7.727 7.727 0 005.511-2.3l24.922-25.171v142.16a7.759 7.759 0 0015.516 0V149.397l25.343 25.091a7.754 7.754 0 0010.969-.053 7.756 7.756 0 00-.054-10.971z" fill="#fff"/><path d="M362.477 163.464l-38.565-38.185a7.731 7.731 0 00-5.563-2.239v176.511c.038 0 .072.01.11.01a7.759 7.759 0 007.758-7.758V149.397l25.343 25.091a7.754 7.754 0 0010.969-.053 7.754 7.754 0 00-.052-10.971z" fill="#e9eff4"/><path d="M237.534 105.812l-38.567-38.185a7.758 7.758 0 00-10.969.055l-38.185 38.565a7.755 7.755 0 00.053 10.969 7.728 7.728 0 005.458 2.246 7.727 7.727 0 005.511-2.3l24.923-25.169-.007 199.811a7.759 7.759 0 0015.516 0l.007-200.061 25.345 25.093a7.76 7.76 0 0010.971-.055c3.012-3.041 2.988-7.954-.056-10.969z" fill="#fff"/><path d="M237.534 105.812l-38.567-38.185c-1.438-1.424-3.294-2.145-5.168-2.214v234.12c4.148-.155 7.468-3.543 7.468-7.728l.007-200.061 25.345 25.093a7.76 7.76 0 0010.971-.055 7.76 7.76 0 00-.056-10.97z" fill="#e9eff4"/><circle cx="255.983" cy="305.062" r="88.981" fill="#ffc61b"/><path d="M255.984 216.078c-.043 0-.084.003-.126.003v177.955c.043 0 .084.003.126.003 49.143 0 88.981-39.838 88.981-88.981s-39.839-88.98-88.981-88.98z" fill="#eaa22f"/><path d="M286.275 287.72a6.897 6.897 0 006.896-6.896v-4.711c0-14.281-13.502-25.921-30.291-26.374v-1.8a6.897 6.897 0 00-13.792 0v1.8c-16.791.453-30.291 12.093-30.291 26.374v9.425c0 14.279 13.502 25.919 30.291 26.372v34.68c-9.04-.393-16.499-5.987-16.499-12.586v-4.711a6.897 6.897 0 00-13.792 0v4.711c0 14.279 13.502 25.919 30.291 26.372v1.801a6.897 6.897 0 0013.792 0v-1.801c16.791-.453 30.291-12.093 30.291-26.372v-9.425c0-14.281-13.502-25.921-30.291-26.374v-34.68c9.04.393 16.5 5.989 16.5 12.588v4.711a6.896 6.896 0 006.895 6.896zm-53.687-2.183v-9.425c0-6.599 7.459-12.197 16.499-12.588v34.599c-9.038-.391-16.499-5.986-16.499-12.586zm46.792 39.042v9.425c0 6.599-7.459 12.195-16.5 12.586v-34.599c9.04.393 16.5 5.989 16.5 12.588z" fill="#b97850"/><path d="M286.275 287.72a6.897 6.897 0 006.896-6.896v-4.711c0-14.281-13.502-25.921-30.291-26.374v-1.8a6.897 6.897 0 00-6.896-6.896c-.043 0-.083.012-.126.012v128.007c.043 0 .083.012.126.012a6.897 6.897 0 006.896-6.896v-1.801c16.791-.453 30.291-12.093 30.291-26.372v-9.425c0-14.281-13.502-25.921-30.291-26.374v-34.68c9.04.393 16.5 5.989 16.5 12.588v4.711a6.896 6.896 0 006.895 6.895zm-6.895 36.859v9.425c0 6.599-7.459 12.195-16.5 12.586v-34.599c9.04.393 16.5 5.989 16.5 12.588z" fill="#9a4f03"/></svg>