<svg version="1.1" id="Capa_1" xmlns="http://www.w3.org/2000/svg" xmlns:xlink="http://www.w3.org/1999/xlink" x="0" y="0" viewBox="0 0 511.996 511.996" xml:space="preserve"><path d="M410.716 220.103l-160-144c-4.704-4.224-11.456-5.312-17.248-2.72a16.052 16.052 0 00-9.472 14.624v80.448c-114.752 6.432-202.432 81.952-215.68 188.064L.124 421.991c-.928 7.456 3.424 14.56 10.528 17.056 1.76.64 3.552.96 5.344.96 5.376 0 10.592-2.752 13.568-7.52l16.096-25.792c31.936-51.072 95.84-110.688 170.88-110.688h7.456v80a16.052 16.052 0 009.472 14.624c5.792 2.496 12.512 1.536 17.216-2.72l160-144c3.36-3.04 5.312-7.36 5.312-11.904s-1.952-8.864-5.28-11.904z"/><path d="M506.716 220.103l-160-144c-6.56-5.888-16.672-5.344-22.624 1.184-5.92 6.592-5.376 16.704 1.184 22.624l146.816 132.096-146.816 132.096c-6.56 5.952-7.104 16.032-1.184 22.624 3.2 3.488 7.52 5.28 11.904 5.28 3.808 0 7.648-1.344 10.72-4.096l160-144c3.328-3.04 5.28-7.36 5.28-11.904s-1.952-8.864-5.28-11.904z"/></svg>