<svg version="1.1" id="Capa_1" xmlns="http://www.w3.org/2000/svg" xmlns:xlink="http://www.w3.org/1999/xlink" x="0" y="0" viewBox="0 0 512.005 512.005" xml:space="preserve"><path d="M224 170.669h-42.667c-5.888 0-10.667 4.779-10.667 10.667v128c0 5.888 4.779 10.667 10.667 10.667H224c5.888 0 10.667-4.779 10.667-10.667v-128c0-5.888-4.779-10.667-10.667-10.667zm-85.333 64H96c-5.888 0-10.667 4.779-10.667 10.667v64c0 5.888 4.779 10.667 10.667 10.667h42.667c5.888 0 10.667-4.779 10.667-10.667v-64c-.001-5.888-4.779-10.667-10.667-10.667zm170.666-128h-42.667c-5.888 0-10.667 4.779-10.667 10.667v192c0 5.888 4.779 10.667 10.667 10.667h42.667c5.888 0 10.667-4.779 10.667-10.667v-192c0-5.888-4.779-10.667-10.667-10.667z"/><path d="M505.749 475.587L378.411 348.248c30.123-36.779 48.256-83.755 48.256-134.912C426.667 95.704 330.966.003 213.334.003S0 95.704 0 213.336s95.701 213.333 213.333 213.333c51.157 0 98.133-18.133 134.912-48.256l127.339 127.339c4.16 4.16 9.621 6.251 15.083 6.251s10.923-2.091 15.083-6.251c8.341-8.341 8.341-21.824-.001-30.165zm-292.416-91.584c-94.101 0-170.667-76.565-170.667-170.667S119.232 42.669 213.333 42.669 384 119.235 384 213.336s-76.565 170.667-170.667 170.667z"/></svg>