<svg version="1.1" id="Layer_1" xmlns="http://www.w3.org/2000/svg" xmlns:xlink="http://www.w3.org/1999/xlink" x="0" y="0" viewBox="0 0 512 512" xml:space="preserve"><circle cx="256" cy="256" r="256" fill="#b5f1f4"/><path d="M305.976 507.109c101.292-20.047 181.086-99.84 201.131-201.133L376.679 175.547l-22.79 7.677-69.442-69.446-94.815 109.18.6.6-76.452 60.887 65.405 65.405-3.636 26.831 130.427 130.428z" fill="#84dbff"/><path d="M398.224 284.444v-56.889h-32.028c-2.686-10.438-6.839-20.282-12.186-29.336l22.673-22.673-40.227-40.227-22.673 22.673c-9.052-5.349-18.897-9.5-29.336-12.186v-32.028h-56.889v32.028c-10.438 2.686-20.282 6.839-29.336 12.186l-22.673-22.673-40.227 40.226 22.673 22.673c-5.349 9.052-9.5 18.897-12.186 29.336h-32.028v56.889h32.028c2.686 10.438 6.839 20.282 12.186 29.336l-22.673 22.673 40.226 40.227 22.673-22.673c9.052 5.349 18.897 9.5 29.336 12.186v32.03h56.889v-32.028c10.438-2.686 20.282-6.837 29.336-12.186l22.673 22.673 40.226-40.226-22.673-22.673c5.349-9.052 9.5-18.897 12.186-29.336h32.032v-.002zm-142.222 28.445c-31.418 0-56.889-25.471-56.889-56.889s25.471-56.889 56.889-56.889 56.889 25.471 56.889 56.889-25.471 56.889-56.889 56.889z" fill="#324a5e"/><path d="M398.224 284.444v-56.889h-32.028c-2.686-10.438-6.839-20.282-12.186-29.336l22.673-22.673-40.227-40.227-22.673 22.673c-9.052-5.349-18.897-9.5-29.336-12.186v-32.028h-29.019v85.347c.191-.002.381-.014.574-.014 31.418 0 56.889 25.471 56.889 56.889s-25.471 56.889-56.889 56.889c-.193 0-.383-.012-.574-.014v85.347h29.019v-32.028c10.438-2.686 20.282-6.837 29.336-12.186l22.673 22.673 40.226-40.226-22.673-22.673c5.349-9.052 9.5-18.897 12.186-29.336h32.03v-.002z" fill="#2b3b4e"/><path d="M256.002 347.367c-50.381 0-91.367-40.986-91.367-91.367s40.986-91.367 91.367-91.367 91.367 40.986 91.367 91.367-40.988 91.367-91.367 91.367zm0-170.667c-43.725 0-79.3 35.575-79.3 79.3s35.575 79.3 79.3 79.3 79.3-35.575 79.3-79.3-35.575-79.3-79.3-79.3z" fill="#f9b54c"/><path d="M256.002 164.633c-.193 0-.381.014-.574.014v12.067c.193-.002.381-.014.574-.014 43.725 0 79.3 35.575 79.3 79.3s-35.575 79.3-79.3 79.3c-.193 0-.381-.014-.574-.014v12.067c.193.002.381.014.574.014 50.381 0 91.367-40.986 91.367-91.367s-40.988-91.367-91.367-91.367z" fill="#f4a200"/><path fill="#734b46" d="M241.636 287.265l-22.698-22.702 8.054-8.054 14.644 14.648 43.374-43.376 8.056 8.056z"/><path fill="#57442f" d="M285.01 227.781l-29.584 29.584v16.11l37.64-37.638z"/></svg>