<svg width="64" xmlns="http://www.w3.org/2000/svg" height="64" viewBox="0 0 64 64" xmlns:xlink="http://www.w3.org/1999/xlink"><path fill="#1D1D1B" d="M63.386 16.193l.002-.002a2.359 2.359 0 00.405-.688c.032-.076.053-.148.076-.225.058-.191.094-.389.106-.596.006-.076.018-.148.016-.226 0-.04.01-.076.008-.115a2.601 2.601 0 00-.136-.687c-.006-.023-.022-.041-.03-.064a2.441 2.441 0 00-.363-.645c-.021-.027-.028-.063-.05-.09L53.109.709c-.789-.93-2.084-.948-2.894-.037-.808.91-.823 2.402-.032 3.334l5.558 6.549c-8.121-1.076-16.104.633-16.481.717C14.614 15.739-2.827 38.499.38 62.008.539 63.172 1.408 64 2.399 64c.106 0 .212-.009.32-.027 1.116-.203 1.878-1.409 1.704-2.696-2.857-20.94 13.056-41.282 35.537-45.358.103-.024 8.351-1.794 16.117-.574L47.5 20.438c-1.005.598-1.398 2.02-.881 3.177.516 1.159 1.748 1.608 2.756 1.017l13.52-8.028c.183-.111.347-.25.491-.411z"/></svg>