<svg version="1.1" id="Capa_1" xmlns="http://www.w3.org/2000/svg" xmlns:xlink="http://www.w3.org/1999/xlink" x="0" y="0" viewBox="0 0 512 512" xml:space="preserve"><path d="M437.02 74.98C388.667 26.629 324.38 0 256 0S123.333 26.629 74.98 74.98C26.629 123.333 0 187.62 0 256s26.629 132.668 74.98 181.02C123.333 485.371 187.62 512 256 512s132.667-26.629 181.02-74.98C485.371 388.668 512 324.38 512 256s-26.629-132.667-74.98-181.02zM256 472c-119.103 0-216-96.897-216-216S136.897 40 256 40s216 96.897 216 216-96.897 216-216 216z"/><path d="M368.993 285.776c-.072.214-7.298 21.626-25.02 42.393C321.419 354.599 292.628 368 258.4 368c-34.475 0-64.195-13.561-88.333-40.303-18.92-20.962-27.272-42.54-27.33-42.691l-37.475 13.99c.42 1.122 10.533 27.792 34.013 54.273C171.022 389.074 212.215 408 258.4 408c46.412 0 86.904-19.076 117.099-55.166 22.318-26.675 31.165-53.55 31.531-54.681l-38.037-12.377z"/><circle cx="168" cy="180.12" r="32"/><circle cx="344" cy="180.12" r="32"/></svg>