<svg xmlns="http://www.w3.org/2000/svg" id="Layer_35" height="512" viewBox="0 0 64 64" width="512"><path d="M21.158 41.233a37.592 37.592 0 006.086 1.409A3.983 3.983 0 0028 40.315v-1.249a17.546 17.546 0 01-8-14.715V17h1l.172.172A9.656 9.656 0 0028 20v-3l.172.172A9.656 9.656 0 0035 20v-3l.172.172A9.656 9.656 0 0042 20h2v4.351a17.546 17.546 0 01-8 14.715v1.249c0 .855.278 1.662.756 2.328a37.383 37.383 0 006.086-1.409C46.525 40.048 49 36.615 49 32.693V18c0-9.374-7.626-17-17-17S15 8.626 15 18v14.693c0 3.922 2.475 7.355 6.158 8.54z" fill="#f4d75c" data-original="#F0BC5E" data-old_color="#f0bc5e"/><path d="M49.123 47.288l-10.259-4.197A2.988 2.988 0 0137 40.314v-.718c4.921-3.401 8-9.039 8-15.245V19h-3c-2.312 0-4.486-.9-6.121-2.536L34 14.591v4.353a8.586 8.586 0 01-5.122-2.48L27 14.591v4.353a8.586 8.586 0 01-5.122-2.48L21.413 16H19v8.351a18.513 18.513 0 008 15.245v.718a2.987 2.987 0 01-1.864 2.776l-10.259 4.197A15.84 15.84 0 005 62v1h54v-1a15.838 15.838 0 00-9.877-14.712zM21 24.351v-5.972A10.571 10.571 0 0028 21h1v-1.846A10.582 10.582 0 0035 21h1v-1.846A10.582 10.582 0 0042 21h1v3.351a16.526 16.526 0 01-11 15.591 16.526 16.526 0 01-11-15.591zm10.684 17.597l.316.106.316-.105a18.69 18.69 0 002.719-1.152 4.98 4.98 0 00.842 2.349C34.933 44.316 33.528 45 32 45s-2.933-.684-3.878-1.856c.471-.686.76-1.491.842-2.349.864.451 1.773.838 2.72 1.153zm-5.79 2.994c.279-.114.538-.258.787-.415C27.999 46.088 29.914 47 32 47s4.001-.912 5.32-2.473c.248.157.507.301.787.415l3.48 1.424a11.063 11.063 0 01-5.92 4.994l-.667.236V61h-6v-9.404l-.666-.235a11.064 11.064 0 01-5.92-4.994zM15.635 49.14l4.921-2.013A13.076 13.076 0 0027 52.989V61H17v-6h-2v6H7.035a13.839 13.839 0 018.6-11.86zM49 61v-6h-2v6H37v-8.012a13.071 13.071 0 006.444-5.862l4.921 2.013a13.84 13.84 0 018.6 11.86H49z" data-original="#000000" class="active-path" data-old_color="#000000" fill="#030715"/><circle cx="26" cy="24" r="1" data-original="#000000" class="active-path" data-old_color="#000000" fill="#030715"/><circle cx="38" cy="24" r="1" data-original="#000000" class="active-path" data-old_color="#000000" fill="#030715"/><path d="M36 32h-2c0 1.103-.897 2-2 2s-2-.897-2-2h-2c0 2.206 1.794 4 4 4s4-1.794 4-4zm-5 25h2v2h-2zm0-4h2v2h-2zm0-4h2v2h-2zm1-42V5a13.02 13.02 0 00-9.689 4.333l1.49 1.334A11.015 11.015 0 0132 7zm-9.529 5.5l-1.73-1.002a12.976 12.976 0 00-1 2.168l1.885.667c.224-.634.508-1.25.845-1.833z" data-original="#000000" class="active-path" data-old_color="#000000" fill="#030715"/></svg>