<svg xmlns="http://www.w3.org/2000/svg" xmlns:xlink="http://www.w3.org/1999/xlink" width="512" height="459.37" viewBox="0 0 512 459.37"><defs><linearGradient id="a" data-name="Безымянный градиент 18" y1="229.68" x2="512" y2="229.68" gradientUnits="userSpaceOnUse"><stop offset="0" stop-color="#fa5663"/><stop offset="1" stop-color="#f4d75c"/></linearGradient><linearGradient id="b" x1="241" y1="224.69" x2="271" y2="224.69" xlink:href="#a"/><linearGradient id="c" x1="236" y1="349.67" x2="276" y2="349.67" xlink:href="#a"/></defs><path d="M503.84 369.06l-195.7-339a60.21 60.21 0 00-104.28 0l-195.7 339a60.2 60.2 0 0052.14 90.31h391.4a60.2 60.2 0 0052.14-90.31zm-26 45.21a29.9 29.9 0 01-26.16 15.1H60.3a30.21 30.21 0 01-26.16-45.31l195.7-339a30.21 30.21 0 0152.32 0l195.7 339a29.9 29.9 0 010 30.21z" fill="url(#a)"/><path fill="url(#b)" d="M241 149.7h30v149.98h-30z"/><path d="M256 329.67a20 20 0 1020 20 20 20 0 00-20-20z" fill="url(#c)"/></svg>