<svg xmlns:svg="http://www.w3.org/2000/svg" xmlns="http://www.w3.org/2000/svg" version="1.1" id="svg7952" viewBox="0 0 212.934 74.871" height="79.863" width="227.129"><defs id="defs7954"><clipPath id="clipPath128" clipPathUnits="userSpaceOnUse"><path id="path130" d="M206.078 466.607h85.115v34.842h-85.115v-34.842z"/></clipPath></defs><g transform="translate(-226.39 -143.83)" id="layer1"><g id="g124" transform="matrix(2.86405 0 0 -2.86405 -363.829 1555.088)"><g clip-path="url(#clipPath128)" id="g126"><g transform="translate(214.471 492.749)" id="g132"><path id="path134" d="M0 0c1.779 0 2.338-1.276 2.807-2.55l4.959-13.581c.037-.106.012-.28-.151-.343-.164-.062-2.566-.996-2.699-1.046a.257.257 0 00-.33.156c-.05.131-1.047 2.891-1.159 3.199h-6.852c-.108-.308-1.117-3.074-1.162-3.199-.046-.127-.189-.213-.331-.156l-2.697 1.046a.271.271 0 00-.153.343c.17.474 4.723 12.931 4.955 13.581C-2.361-1.295-1.783 0 0 0m-8.134-22.653a.263.263 0 01-.259-.266v-2.959a.26.26 0 01.259-.264H8.127c.147 0 .262.118.262.264v2.959a.263.263 0 01-.262.266H-8.134M-.016-4.134l-2.316-6.955h4.67L.014-4.134h-.03zm34.753-11.404a2.367 2.367 0 00-.834-.143c-.554 0-.861.219-.861.787 0 .592.39.79 1.156.79.187 0 .371-.027.457-.057v-.424c0-.457.025-.757.082-.953m1.969-.678c-.409.621-.516.987-.516 1.77v1.59c0 .856-.1 1.165-.326 1.477-.315.442-.84.634-1.805.634a7.999 7.999 0 01-1.988-.238l.232-1.13c.434.061.889.113 1.21.113 1.025 0 1.142-.148 1.142-.917v-.287a2.975 2.975 0 01-.781.105c-1.543 0-2.358-.755-2.358-2.005 0-1.172.871-1.811 1.932-1.811.396 0 .81.073 1.138.207.198.086.284.137.54.303.154-.224.463-.453.589-.496l.991.685zm15.263.678a2.367 2.367 0 00-.834-.143c-.556 0-.867.219-.867.787 0 .592.395.79 1.163.79.187 0 .372-.027.456-.057v-.424c0-.457.024-.757.082-.953m1.971-.678c-.412.621-.517.987-.517 1.77v1.59c0 .856-.102 1.165-.33 1.477-.311.442-.837.634-1.805.634a8.028 8.028 0 01-1.991-.238l.229-1.13c.435.061.891.113 1.221.113 1.019 0 1.14-.148 1.14-.917v-.287a2.971 2.971 0 01-.785.105c-1.545 0-2.363-.755-2.363-2.005 0-1.172.873-1.811 1.939-1.811.401 0 .811.073 1.136.207.201.086.284.137.54.303.156-.224.465-.453.592-.496l.994.685zm12.014-.566s-.846 1.803-1.053 2.213c-.233.462-.449.781-.925.896v.026c.319.061.573.254.851.844.263.575.341.699.496.836.152.136.36.087.36.087l.078 1.063c-.221.03-.466.031-.719.017-.42-.025-.637-.146-.844-.354-.162-.159-.272-.397-.408-.67-.144-.298-.258-.538-.408-.841-.149-.311-.219-.451-.62-.451h-.261v4.709h-1.545v-8.375h1.545v2.408l.211.004c.443 0 .521-.111.755-.578.274-.557.799-1.834.799-1.834h1.688zm-43.524 0h1.783l-2.697 8.235a3.243 3.243 0 01-1.01.154c-.409 0-.555-.054-.875-.154l-2.854-8.235h1.711s.231.722.503 1.617h2.956c.264-.894.483-1.617.483-1.617m-3.005 2.998l.571 1.91c.196.666.494 1.724.494 1.724h.049s.276-1.096.456-1.712l.54-1.922h-2.11zm19.913.942a.99.99 0 010-1.981c.546 0 .987.442.987.991a.99.99 0 01-.987.99M26.33-8.407h-1.549v-8.374h1.549v8.374zm30.775-3.669c.856-.018.962-.195.962-.913v-3.793h1.535v3.926c0 .856-.1 1.165-.328 1.477-.315.442-.934.634-1.981.634-1.036 0-1.696-.11-2.545-.363v-5.674h1.551v4.634c.407.059.479.072.806.072M30.161-8.258c-.968 0-1.495-.192-1.805-.633-.228-.313-.329-.629-.329-1.487v-.73h-.769v-1.252h.769v-4.422h1.536l-.004 4.422h1.531v1.252h-1.531l.004.671c0 .768.117.917 1.143.917.111 0 .236-.006.369-.016l.242 1.203a8.86 8.86 0 01-1.156.075m12.324-.078c.527.031 1.705.075 2.444.075.135 0 .275-.001.415-.008 1.453 0 2.286-1.058 2.286-2.3 0-.845-.387-1.406-1.294-1.74 1.067-.236 1.626-1.069 1.626-2.088 0-.748-.211-1.342-.598-1.747-.502-.494-1.262-.771-2.274-.771-.9 0-2.03.028-2.605.062v8.517zm2.444-1.372c-.256 0-.573-.005-.887-.016v-2.011h.888c.352 0 .635.098.828.287.184.178.28.43.28.729 0 .643-.348 1.007-.995 1.011h-.114zm.032-5.763h.067c.807 0 1.301.429 1.307 1.293a1.15 1.15 0 01-.34.803c-.233.234-.563.356-.95.356h-1.003v-2.443c.283-.006.595-.007.919-.009" fill="#ee2a23" fill-opacity="1" fill-rule="nonzero" stroke="none"/></g></g></g></g></svg>