<svg xmlns="http://www.w3.org/2000/svg" xmlns:xlink="http://www.w3.org/1999/xlink" version="1.1" id="Layer_1" x="0" y="0" viewBox="0 0 509.287 509.287" xml:space="preserve" width="512" height="512"><circle cx="254.644" cy="254.644" r="254.644" data-original="#886C60" class="active-path" data-old_color="#886C60" fill="#1273eb"/><path data-original="#646B79" fill="#646b79" d="M115.285 161.399h279.057v273.293H115.285z"/><path data-original="#F1F3F7" fill="#f1f3f7" d="M479.449 149.87L254.644 34.246 29.838 149.87z"/><path data-original="#FCFCFD" fill="#fcfcfd" d="M126.474 126.474l128.17-65.78 128.169 65.78z"/><path data-original="#DEDEDF" fill="#dededf" d="M60.016 149.87h389.256v22.718H60.016zm0 273.632h389.256v22.718H60.016z"/><path data-original="#BDBDBE" data-old_color="#BDBDBE" fill="#bdbdbe" d="M40.011 445.203h429.266v22.718H40.011zm30.177-272.276v13.563c0 9.155 7.46 16.615 16.615 16.615h57.642c9.155 0 16.615-7.46 16.615-16.615v-13.563H70.188zm90.872 250.575v-13.563c0-9.155-7.46-16.615-16.615-16.615H86.803c-9.155 0-16.615 7.46-16.615 16.615v13.563h90.872z"/><path data-original="#DEDEDF" fill="#dededf" d="M86.124 203.105h59.338v190.559H86.124z"/><path d="M209.886 172.927v13.563c0 9.155 7.46 16.615 16.615 16.615h57.981c9.155 0 16.615-7.46 16.615-16.615v-13.563h-91.211zm90.872 250.575v-13.563c0-9.155-7.46-16.615-16.615-16.615h-57.981c-9.155 0-16.615 7.46-16.615 16.615v13.563h91.211z" data-original="#BDBDBE" data-old_color="#BDBDBE" fill="#bdbdbe"/><path data-original="#DEDEDF" fill="#dededf" d="M225.483 203.105h59.338v190.559h-59.338z"/><path d="M349.245 172.927v13.563c0 9.155 7.46 16.615 16.615 16.615h57.981c9.155 0 16.615-7.46 16.615-16.615v-13.563h-91.211zm90.872 250.575v-13.563c0-9.155-7.46-16.615-16.615-16.615H365.86c-9.155 0-16.615 7.46-16.615 16.615v13.563h90.872z" data-original="#BDBDBE" data-old_color="#BDBDBE" fill="#bdbdbe"/><path data-original="#DEDEDF" fill="#dededf" d="M365.181 203.105h59.338v190.559h-59.338z"/></svg>