<svg xmlns="http://www.w3.org/2000/svg" xmlns:xlink="http://www.w3.org/1999/xlink" width="512" height="512" viewBox="0 0 512 512"><defs><linearGradient id="a" data-name="Безымянный градиент 9" x1="256" y1="512" x2="256" gradientUnits="userSpaceOnUse"><stop offset="0" stop-color="#0a923e"/><stop offset="1" stop-color="#a0cf65"/></linearGradient><linearGradient id="b" x1="256" y1="342.53" x2="256" y2="169.47" xlink:href="#a"/></defs><path d="M437 75A256 256 0 0075 437 256 256 0 10437 75zM256 482C131.38 482 30 380.62 30 256S131.38 30 256 30s226 101.38 226 226-101.38 226-226 226z" fill="url(#a)"/><path d="M357.09 173.86L224.63 306.32l-69.73-69.73a15 15 0 10-21.21 21.21L214 338.14a15 15 0 0021.21 0L378.3 195.07a15 15 0 10-21.21-21.21z" fill="url(#b)"/></svg>