<svg xmlns="http://www.w3.org/2000/svg" width="97.3" height="14.24" viewBox="0 0 97.3 14.24"><path d="M90.06 4.43h2.1a5.21 5.21 0 013.73 1.36 4.61 4.61 0 011.41 3.45 4.37 4.37 0 01-1.62 3.55 6.23 6.23 0 01-4 1.28h-3.75a2.41 2.41 0 01-1.56-.52 1.81 1.81 0 01-.68-1.45V2.38a2 2 0 012.2-2.1 2.18 2.18 0 011.58.59 2 2 0 01.6 1.49v2.07zM81.56 4v8a2.2 2.2 0 01-4.4 0V4H76c-1.22 0-2.25-.51-2.25-1.87S74.72.28 76 .28h6.86c1.23 0 2.25.53 2.25 1.89S84 4 82.82 4zM68 4v1.19h2.06a2.2 2.2 0 011.5.51 1.77 1.77 0 01.61 1.38 1.76 1.76 0 01-.63 1.38 2.21 2.21 0 01-1.48.54H68v1.24h2.87c1.19 0 2.22.49 2.22 1.83S72.13 14 70.87 14h-5a2.44 2.44 0 01-1.57-.51 1.82 1.82 0 01-.67-1.49V2.27a1.93 1.93 0 01.59-1.42 2.13 2.13 0 011.54-.57h5.11c1.22 0 2.1.59 2.1 1.89S72.08 4 70.87 4zm-5 7.54a2.15 2.15 0 01-1.52 2 9.18 9.18 0 01-3.53.68 7.64 7.64 0 01-5.56-2.07 6.87 6.87 0 01-2-5.09A6.73 6.73 0 0152.49 2 7.77 7.77 0 0158 0a9.18 9.18 0 012.9.39 2.41 2.41 0 011.94 2.2 1.74 1.74 0 01-.13.75 1.9 1.9 0 01-1.78 1.14 5.57 5.57 0 01-1.5-.33 4.8 4.8 0 00-1.29-.28 2.76 2.76 0 00-2.94 2 4.12 4.12 0 00-.2 1.25 3.54 3.54 0 00.76 2.25 2.8 2.8 0 002.32.9A5 5 0 0059.8 10a3.39 3.39 0 011.2-.28 2.16 2.16 0 011.44.5 1.72 1.72 0 01.56 1.35zm-13.23-4.4a6.86 6.86 0 01-2 5.12 7.63 7.63 0 01-5.51 2 7.71 7.71 0 01-5.56-2 6.78 6.78 0 01-2-5.08 6.88 6.88 0 012-5.12 7.7 7.7 0 015.59-2 7.64 7.64 0 015.56 2 6.9 6.9 0 012 5.12zm-23 2.78V12a2 2 0 01-.6 1.49 2.18 2.18 0 01-1.58.59 2 2 0 01-2.2-2.1V2.23a1.79 1.79 0 01.7-1.43 2.41 2.41 0 011.57-.52h3.72a6.18 6.18 0 014.05 1.3A4.46 4.46 0 0134 5.17a4.49 4.49 0 01-1.4 3.42 5.26 5.26 0 01-3.72 1.33zm-7.11-3.61a3.58 3.58 0 012.14 3.36A3.81 3.81 0 0120.12 13a6.55 6.55 0 01-3.79 1h-4.08a2.22 2.22 0 01-1.55-.57 1.89 1.89 0 01-.62-1.43V2.23c0-1.34.91-2 2.18-2h3.89a4.88 4.88 0 013.13 1 3.4 3.4 0 011.35 2.76 3 3 0 01-1 2.24zM4.37 4v1.19h2.06a2.2 2.2 0 011.5.51 1.77 1.77 0 01.61 1.38 1.76 1.76 0 01-.63 1.38A2.21 2.21 0 016.43 9H4.37v1.24h2.87c1.19 0 2.22.49 2.22 1.83S8.5 14 7.24 14h-5a2.44 2.44 0 01-1.57-.51A1.82 1.82 0 010 12V2.27A1.93 1.93 0 01.59.85 2.13 2.13 0 012.13.28h5.11c1.22 0 2.1.59 2.1 1.89S8.45 4 7.24 4zm85.68 4v2.4h1.18c.87 0 1.57-.18 1.57-1.18a1 1 0 00-.38-.79 1.63 1.63 0 00-1.07-.35zM42.21 3.86a3.26 3.26 0 103.26 3.26 3.26 3.26 0 00-3.26-3.26zm-15.43.09v2.32h1.31a1.63 1.63 0 001.07-.35 1 1 0 00.38-.79c0-1-.7-1.18-1.57-1.18zm-12.33 0v1.24h.87c.48 0 1 0 1-.63s-.45-.61-.92-.61zm0 4.87v1.48H16c.53 0 1.33 0 1.33-.74s-.93-.74-1.45-.74z" fill-rule="evenodd"/></svg>