<svg version="1.1" id="Capa_1" xmlns="http://www.w3.org/2000/svg" xmlns:xlink="http://www.w3.org/1999/xlink" x="0" y="0" viewBox="0 0 511.997 511.997" xml:space="preserve"><path d="M211.26 389.24l-60.331 60.331c-25.012 25.012-65.517 25.012-90.508.005-24.996-24.996-24.996-65.505-.005-90.496l120.683-120.683c24.991-24.992 65.5-24.992 90.491 0 8.331 8.331 21.839 8.331 30.17 0 8.331-8.331 8.331-21.839 0-30.17-41.654-41.654-109.177-41.654-150.831 0L30.247 328.909c-41.654 41.654-41.654 109.177 0 150.831 41.649 41.676 109.177 41.676 150.853 0l60.331-60.331c8.331-8.331 8.331-21.839 0-30.17s-21.84-8.33-30.171.001z" transform="translate(1 1)"/><path d="M479.751 30.24c-41.654-41.654-109.199-41.654-150.853 0l-72.384 72.384c-8.331 8.331-8.331 21.839 0 30.17 8.331 8.331 21.839 8.331 30.17 0l72.384-72.384c24.991-24.992 65.521-24.992 90.513 0 24.991 24.991 24.991 65.5 0 90.491L316.845 283.638c-24.992 24.992-65.5 24.992-90.491 0-8.331-8.331-21.839-8.331-30.17 0s-8.331 21.839 0 30.17c41.654 41.654 109.177 41.654 150.831 0l132.736-132.736c41.654-41.654 41.654-109.178 0-150.832z" transform="translate(1 1)"/></svg>