<svg xmlns="http://www.w3.org/2000/svg" width="746.76" height="208.68"><defs><linearGradient id="a" data-name="Безымянный градиент 6" y1="104.34" x2="159.67" y2="104.34" gradientUnits="userSpaceOnUse"><stop offset="0" stop-color="#fa5663"/><stop offset=".14" stop-color="#f87861"/><stop offset=".3" stop-color="#f79a5f"/><stop offset=".47" stop-color="#f6b55e"/><stop offset=".64" stop-color="#f5c85d"/><stop offset=".81" stop-color="#f4d35c"/><stop offset="1" stop-color="#f4d75c"/></linearGradient></defs><path d="M159.67 70v42.67h-31v60s-3.17 36.5-43 36v-96H73.33c-10.68 0-30.33 13-30.33 30.33v29.66s-3.17 36.5-43 36V71.33A71.32 71.32 0 0171.33 0v41.81A31.34 31.34 0 0043 73v4.47A26.87 26.87 0 0162.5 70h23.18A71.33 71.33 0 01157 0v41.81A31.35 31.35 0 00128.81 70z" fill="url(#a)"/><path d="M221.31 145.23v-47h-4.58a8.45 8.45 0 110-16.89h4.58V65.62a20 20 0 015.58-14 17.86 17.86 0 0113.6-6h6.73a8.5 8.5 0 016 14.46 8.17 8.17 0 01-6 2.43h-4.72a2.93 2.93 0 00-2.22 1 3.27 3.27 0 00-.93 2.29v15.57h10a8.45 8.45 0 110 16.89h-10v47a8.92 8.92 0 01-2.65 6.44 8.82 8.82 0 01-12.74 0 8.91 8.91 0 01-2.65-6.47zm113.54-55.7v55.27a9.11 9.11 0 01-2.94 6.73 9.29 9.29 0 01-6.66 2.86 8.12 8.12 0 01-5.94-2.51 7.27 7.27 0 01-2.51-5.08 28.72 28.72 0 01-8.52 5.23 29.31 29.31 0 01-11.67 2.36A34.45 34.45 0 01271 143.51 36.54 36.54 0 01260.4 117 36.13 36.13 0 01271 90.75a34.57 34.57 0 0125.63-10.81 29.31 29.31 0 0111.67 2.36 28.75 28.75 0 018.52 5.23 7.27 7.27 0 012.51-5.08 8.12 8.12 0 015.94-2.51 9.29 9.29 0 016.66 2.86 9.11 9.11 0 012.92 6.73zm-22.62 42.31a20.8 20.8 0 005.58-14.84 20.3 20.3 0 00-5.58-14.68 18.83 18.83 0 00-14.17-5.8 19.14 19.14 0 00-14.32 6.08 20 20 0 00-5.87 14.4 20.57 20.57 0 005.8 14.6 19 19 0 0014.39 6.16 18.61 18.61 0 0014.17-5.92zm70.87 7.23a19.36 19.36 0 009.09-1.86q3.51-1.86 3.51-4.87t-4.29-4.72a63.94 63.94 0 00-10.38-3 114.36 114.36 0 01-12.17-3.29 23.12 23.12 0 01-10.38-6.94 18.4 18.4 0 01-4.29-12.53q0-9 8.16-15.39T383 80.08q12.74 0 20.55 4.51t7.8 9.81a8.36 8.36 0 01-2.08 5.58 7.21 7.21 0 01-5.8 2.43 6.92 6.92 0 01-2.86-.64 19.15 19.15 0 01-3.15-1.86q-1.72-1.22-2-1.36a24.53 24.53 0 00-12.6-3.44q-5.58 0-8.59 2t-3 4.72q0 3 4.37 4.8a60.46 60.46 0 0010.59 3.08 120.05 120.05 0 0112.4 3.29 24.65 24.65 0 0110.59 6.66 16.77 16.77 0 014.37 12q0 10.31-9 16.54T383 154.39q-12.46 0-21-4.58t-8.52-10a8.19 8.19 0 018.3-8.45 9.66 9.66 0 015.3 1.93 57.5 57.5 0 006.8 3.87 20.74 20.74 0 009.22 1.91zm85.9-.57a8.45 8.45 0 01-6 14.5h-6.87a19.53 19.53 0 01-14.1-5.44 18.42 18.42 0 01-5.66-13.89v-35.4h-5a8.45 8.45 0 010-16.89h5v-10a8.58 8.58 0 012.71-6.38 8.92 8.92 0 016.44-2.65 8.76 8.76 0 016.3 2.65 8.58 8.58 0 012.72 6.37v10h10.17a8.24 8.24 0 015.94 2.43 8.47 8.47 0 010 12 8.24 8.24 0 01-5.94 2.43h-10.17v35.08a3 3 0 002.72 2.72H463a8.18 8.18 0 016 2.47zm91.35-47.96v54.69a9.16 9.16 0 01-18.33 0v-47h-29.21v47a8.92 8.92 0 01-2.65 6.44 8.82 8.82 0 01-12.74 0 8.91 8.91 0 01-2.65-6.44v-47h-4.58a8.45 8.45 0 110-16.89h4.58V65.62a20 20 0 015.58-14 17.86 17.86 0 0113.6-6h6.73a8.5 8.5 0 016 14.46 8.17 8.17 0 01-6 2.43H516a2.93 2.93 0 00-2.22 1 3.27 3.27 0 00-.93 2.29v15.57h38.37a9.29 9.29 0 019.16 9.16zm-17-20.19a11.06 11.06 0 117.87 3.29 10.74 10.74 0 01-7.91-3.29zm96.03 74.88V117a20.41 20.41 0 00-5.51-14.39 19 19 0 00-27.63 0 20.4 20.4 0 00-5.52 14.39v28.21a9.16 9.16 0 01-18.33 0V117a35.46 35.46 0 0111-26.34 38.39 38.39 0 0153.33.07 35.42 35.42 0 0111 26.27v28.21a9.16 9.16 0 01-18.33 0zM736 124h-42.79q1 5.73 6.59 9.88a19.76 19.76 0 0012 4.15q8.59 0 13-3a12 12 0 016.59-2.15 8.45 8.45 0 016 2.29 7.54 7.54 0 012.43 5.73q0 4.87-4.87 8.16-8.73 5.3-23.19 5.3A37.16 37.16 0 01674.17 117a35.37 35.37 0 0111-26.13 35.91 35.91 0 0126.13-10.81 34.35 34.35 0 0125.13 10.31q10.38 10.31 10.38 23.34a9.81 9.81 0 01-3 7.44A10.75 10.75 0 01736 124zm-24.75-27.88a18 18 0 00-12 4.44q-5.23 4.44-6.08 9.88h36.22q-.43-5.3-5.73-9.81a18.61 18.61 0 00-12.41-4.51z" fill="#1e2838"/></svg>