<svg version="1.1" id="svg2784" xmlns:svg="http://www.w3.org/2000/svg" xmlns="http://www.w3.org/2000/svg" xmlns:xlink="http://www.w3.org/1999/xlink" x="0" y="0" width="600" height="290.683" viewBox="0 0 600 290.683" xml:space="preserve"><g id="layer1" transform="translate(-14.615 -346.277)"><g id="g2984" transform="translate(195.472 -1407.988) scale(3.47501)"><path id="polygon12" fill="#0055A5" d="M-52.045 588.46h83.649v-83.637h-83.649z"/><path id="polygon14" fill="#0055A5" d="M118.116 504.836H36.98v83.637h83.636v-83.637z"/><path id="polygon16" fill="#FFF" d="M41.992 583.46h73.599v-73.612H41.992z"/><path id="path20" fill="#FFF" d="M-44.386 550.658v17.438h2.875v-5.063c.562.488 1.181.781 1.844.781.95 0 1.731-.5 2.344-1.5.688-1.113 1.031-2.756 1.031-4.906 0-1.5-.275-2.85-.812-4l-.094-.188-.094-.156-.063-.156-.094-.125-.094-.156-.125-.156-.094-.125-.094-.125-.125-.125-.094-.125-.125-.125-.125-.094-.125-.125-.125-.094-.125-.094-.125-.094-.156-.062-.125-.094-.125-.062-.156-.062-.156-.063-.156-.063-.156-.062-.156-.031-.156-.031-.156-.031-.187-.062h-.156l-.187-.031h-.156l-.188-.031h-3.189zm2.719 2.469h.281c.725 0 1.288.419 1.687 1.219.4.8.594 2.037.594 3.75 0 .925-.113 1.656-.375 2.156-.25.5-.575.75-.937.75-.35 0-.638-.237-.875-.688-.237-.437-.375-1.068-.375-1.906v-5.281z"/><path id="path26" fill="#FFF" d="M23.255 549.81l-.237.237s-6.012 6.275-6.462 6.75v-6.15h-2.812v17.475h2.812v-7.175c.075-.087 3.687-3.913 4.1-4.35.025.637.412 11.525.412 11.525h2.875l-.688-18.312z"/><path id="path28" fill="#FFF" d="M9.542 550.048l-.013.025-.025.012-.025.038-.038.037-.05.05-.05.05-.063.063-.062.063-.075.075-.075.088-.088.087-.087.087-.088.1-.1.1-.112.112-.225.238-.237.25-.25.263-.262.275-.275.287-.288.287-.287.3-.288.313-.587.612-.287.3-.287.288-.275.287-.262.288-.262.263-.238.25-.225.237-.112.112-.1.113-.1.1-.088.1-.087.088-.075.088-.075.075-.075.075-.062.063-.05.05-.05.05-.038.05-.038.025-.025.038v-6.15H.255v17.475H3.08v-7.175c.075-.087 3.688-3.913 4.1-4.35.025.637.413 11.525.413 11.525h2.862l-.688-18.315-.225.238z"/><path id="path30" fill="#FFF" d="M-6.808 563.785l-.175-.212-.15-.212-.15-.238-.125-.237-.125-.25-.113-.25-.113-.262-.087-.263-.075-.287-.075-.275-.063-.3-.05-.3-.038-.313-.025-.313-.013-.325-.013-.325c0-1.837.45-3.3 1.325-4.375.963-1.175 2.363-1.762 4.188-1.762h.137v-3.05h-.137c-2.85 0-5.038.875-6.525 2.637-1.35 1.588-2.037 3.8-2.037 6.575 0 2.675.75 4.887 2.212 6.55 1.55 1.75 3.688 2.65 6.388 2.65h.137v-3.062h-.137c-1.773-.001-3.173-.601-4.161-1.801z"/><path id="path34" fill="#FFF" d="M-29.417 550.221c-1.512 0-2.719.856-3.594 2.531-.85 1.65-1.281 3.844-1.281 6.531 0 2.775.406 5.019 1.219 6.656.825 1.675 2.056 2.531 3.656 2.531 1.638 0 2.931-.906 3.844-2.656.85-1.638 1.281-3.85 1.281-6.563 0-2.675-.438-4.863-1.313-6.5l-.094-.156-.094-.156-.063-.156-.125-.125-.063-.125-.125-.125-.094-.125-.094-.125-.094-.125-.125-.125-.094-.094-.125-.094-.094-.094-.125-.094-.094-.094-.125-.094-.125-.063-.125-.062-.125-.062-.125-.062-.125-.063-.125-.063-.125-.031-.156-.063-.125-.031-.156-.031-.125-.031h-.125l-.156-.031-.156-.031h-.31zm0 2.812c.8 0 1.388.569 1.75 1.719.35 1.037.5 2.55.5 4.5 0 1.887-.175 3.456-.562 4.656l-.063.125-.031.094-.031.094-.031.094-.031.094-.062.094-.031.094-.063.063-.031.094-.063.063-.031.094-.031.063-.062.062-.063.062-.031.062-.062.031-.031.062-.063.062-.062.031-.063.062-.063.031-.063.031-.031.031-.063.031h-.063l-.063.031-.062.031h-.063l-.063.031h-.22c-.687 0-1.206-.587-1.594-1.75-.4-1.213-.594-2.769-.594-4.594 0-1.862.194-3.4.594-4.562.365-1.111.896-1.686 1.596-1.686z"/><path id="path36" fill="#FFF" d="M-17.645 563.785l-.075-.1-.088-.112-.163-.212-.137-.238-.138-.237-.125-.25-.112-.25-.1-.262-.1-.263-.075-.287-.075-.275-.05-.3-.05-.3-.037-.313-.025-.313-.025-.325v-.325c0-1.837.437-3.3 1.325-4.375.95-1.175 2.35-1.762 4.175-1.762h.15v-3.05h-.15c-2.838 0-5.038.875-6.512 2.637-1.363 1.588-2.037 3.8-2.037 6.575 0 2.675.737 4.887 2.212 6.55 1.537 1.75 3.687 2.65 6.388 2.65h.137v-3.062h-.137c-1.789-.001-3.189-.601-4.176-1.801z"/><path id="polygon38" fill="#FFF" d="M-44.358 525.023v17.562h3.238v-14.65h4v14.65h3.225v-17.562z"/><path id="path42" fill="#FFF" d="M-23.98 524.564c-1.713 0-3.088.862-4.062 2.563-.963 1.663-1.438 3.863-1.438 6.562 0 2.787.45 5.069 1.375 6.719.937 1.688 2.325 2.531 4.125 2.531 1.837 0 3.287-.881 4.312-2.656.963-1.65 1.469-3.881 1.469-6.594 0-2.7-.525-4.913-1.5-6.562l-.094-.156-.094-.156-.094-.156-.125-.125-.094-.156-.125-.125-.094-.125-.125-.125-.125-.125-.094-.094-.125-.125-.125-.094-.125-.094-.125-.094-.156-.094-.125-.063-.125-.094-.125-.063-.156-.063-.125-.062-.156-.063-.156-.063-.125-.031-.156-.063-.156-.031-.156-.031-.156-.031-.156-.031h-.344l-.156-.031h-.188zm.032 2.969c.875 0 1.494.563 1.906 1.688.375 1.025.562 2.519.562 4.469 0 1.862-.219 3.419-.656 4.594-.425 1.15-1.012 1.687-1.812 1.687h-.282l-.063-.031-.063-.031h-.063l-.063-.031-.062-.031-.063-.031-.063-.031-.063-.031-.063-.063-.062-.031-.063-.062-.063-.031-.031-.063-.063-.062-.063-.063-.031-.063-.063-.063-.063-.094-.031-.063-.063-.063-.031-.094-.062-.094-.031-.063-.031-.125-.063-.094-.031-.094-.031-.094-.063-.094c-.437-1.213-.656-2.75-.656-4.563 0-1.862.219-3.381.656-4.531.418-1.11.999-1.654 1.787-1.654z"/><path id="polygon44" fill="#FFF" d="M-.595 525.023v2.912h2.687v14.65H5.33v-14.65h2.725v-2.912z"/><path id="path46" fill="#FFF" d="M-7.683 531.135h-1.762c-.725 0-1.275-.162-1.613-.487-.25-.225-.363-.538-.363-.938v-4.688h-3.237v5.013c0 1.15.462 2.137 1.362 2.912.887.763 1.988 1.15 3.25 1.15h2.362v8.487h3.238v-17.562h-3.238v6.113z"/><path id="path50" fill="#FFF" d="M12.27 525.033l-.594 17.563h3.219s.3-8.206.312-8.594h4.031c.038.363.937 8.594.937 8.594h3.25l-1.5-12.844v-.468l-.031-.156v-.156l-.031-.125v-.156l-.031-.125-.031-.156-.031-.125-.031-.125-.031-.125-.031-.125-.063-.125-.031-.125-.031-.125-.063-.125-.063-.094-.063-.125-.031-.094-.063-.125-.063-.094-.094-.094-.063-.125-.063-.063-.094-.125-.063-.063-.094-.094-.094-.094-.094-.063-.063-.094-.125-.094c-.812-.638-1.913-.938-3.312-.938H12.27zm3.094 2.906h1.156c.837 0 1.4.269 1.75.781.288.425.481 1.237.594 2.375H15.27v-.499l.031-.094v-1.25l.031-.125v-.907l.031-.063v-.218z"/><path id="path52" fill="#0055A5" d="M62.317 531.86l.112.262.138.25.137.262.163.275.087.125.1.137.088.138.1.138.112.137.112.138.112.137.125.138.137.15.138.138.138.15.15.15.163.15.162.15.175.15.188.162.187.15.2.162.2.162.212.175.238.163.225.175.25.162.25.175c.612.425 1.313 1.313.788 2.55-.525 1.25-1.5 3-.913 3.688.588.687 2.662 1.037 4.363.362 0 0 .363 1.075.988 1.762 0 0-.3.587-1.275.287 0 0 .363.888-.138 1.838 0 0-1.137-.2-1.638-1.25 0 0-.45.825-1.362 1.112 0 0-.75-.387-.587-1.887 0 0-.55 1.338-2.25 1.563 0 0-.975-1.237.3-2.9 0 0-.925.812-2.575.425 0 0-.275-.85 1.238-2.025 0 0-1.7-.075-2.35-1.5 0 0 .712-.887 2.475-.688 0 0-1.637-.363-2-2.313 0 0 1.175-.75 3.05.45 0 0-.325-.625-1.112-1.25-.789-.597-1.739-2.335-1.401-4.885z"/><path id="path54" fill="#0055A5" d="M69.142 551.548l-.05-.062-.037-.062-.05-.063-.037-.063-.038-.062-.038-.062-.037-.05-.037-.062-.038-.063-.037-.063-.025-.062-.038-.062-.025-.05-.038-.062-.025-.063-.025-.063c.3 2.375.4 3.975 1.675 5.513 0 0 .788-1.025.275-3.525a2.6 2.6 0 01-.688-.325s.3 1.013.113 2.037c0-.001-.463-.339-.8-2.726z"/><path id="path56" fill="#0055A5" d="M66.917 551.298l-.012-.012-.012-.025-.012-.025-.025-.012-.012-.025-.025-.025-.013-.025-.025-.025-.013-.025-.025-.037-.038-.05-.037-.063-.05-.063-.037-.062-.038-.062-.05-.062-.037-.063-.037-.05-.038-.062-.012-.037-.013-.025-.025-.025-.012-.025c-.112 1.375-.475 5 .75 6.138 0 0 .825-.613 1.125-5.9-.175.3-.488.612-.638.787 0 0 .2 1.675-.4 2.862-.002-.002-.602-.465-.239-3.002z"/><path id="path58" fill="#0055A5" d="M64.029 554.073l.088-.113.087-.137.088-.15.088-.162.075-.163.075-.175.063-.187.075-.188.063-.2.062-.2.05-.2.05-.212.1-.413.037-.2.05-.2.038-.2.025-.187.038-.187.025-.188.025-.175.025-.162.025-.15.012-.138.013-.137.013-.113.012-.05v-.05l.012-.05v-.075l.013-.025v-.099c.137-.088.287-.2.425-.313.063-.05.113-.088.175-.15 0 .137 0 .275.012.413-.15 2.2-.325 4.475-1.012 5.612-.675 1.113-1.913 1.688-1.913 1.688-1.162-2.075.237-4.85 1.412-6.787.15-.05.3-.113.45-.188-.426 1.486-1.201 3.248-.876 4.611z"/><path id="path60" fill="#0055A5" d="M61.142 547.71v.175l.013.037v.075l.012.012v.062l.012.025v.037l.013.013v.037l.013.013v.037l.012.013c.012.025.025.087.05.15-.975.938-1.7 1.862-3.137 3.862-1.45 2.012-3.738 2.087-3.738 2.087.225-1.625.663-2.913 1.887-4.288 1.213-1.387 2.788-2.65 3.938-3.487.3.138.687.225 1.175.163.025 0 .075-.013.113-.013-.15.2-.25.4-.3.588-.875.5-3.4 1.787-4.425 3.85-.001.003 1.599-.498 4.362-3.448z"/><path id="path62" fill="#0055A5" d="M59.329 545.698l.1-.187c.025-.05.062-.1.1-.15-.95.363-4.3 1.625-5.388 2.187-1.075.563-2.65 1.838-3.5 4.438 0 0 2.263.2 4.138-1.35 1.862-1.537 4.037-3.7 4.963-4.387a1.199 1.199 0 01-.213-.237s-2.525 2.238-5.2 3.2c0 0 .575-1.025 1.625-1.787 1.288-.915 2.25-1.215 3.375-1.727z"/><path id="path64" fill="#0055A5" d="M57.417 544.16l.012-.025.013-.037.013-.037.012-.025.012-.037.013-.038.013-.013v-.013l.012-.013.012-.025c-1.112.237-3.875.562-5.112.938-1.238.375-3.463 1.287-4.788 3.813 0 0 1.95.6 5.613-1.125 3.675-1.725 4.825-2.088 5.525-2.275a2.55 2.55 0 01-1.163-.35c-1.462.65-3.412 1.425-5.362 1.475 0 0 .962-.675 1.962-1.1 1.1-.463 2.3-.875 3.213-1.113z"/><path id="path66" fill="#0055A5" d="M57.505 542.335l.062.037.062.025.062.025.075.038.062.012.062.025.062.025.063.013.063.025.075.013.063.013.075.013.037.013h.037l.038.013h.075l.05.013h.037l.038.013c-.25.163-.488.375-.713.65-1.3.375-3.5.775-7.137 1.038-3.638.275-5.575-.4-5.575-.4 1.262-.775 3.287-1.563 4.65-1.825 1.375-.263 4.963-.225 6.525-.45.025.025.225.175.538.363-1.338.125-4.15.25-5.613.975.001-.004 2.689.358 6.227-.667z"/><path id="path68" fill="#0055A5" d="M57.229 540.248l.037-.025.038-.013.037-.025.037-.012.038-.025.038-.013.037-.025.05-.025.037-.013.038-.025.05-.013.05-.025.037-.025.05-.012.05-.025.05-.013c-1.838-.55-4.363-1.45-8.162-1.7-2.788-.187-4.813-.025-5.85.25 0 0 2.537 1.788 5.45 2.425 2.9.625 5.262.225 6.975.237.125-.175.25-.35.45-.55-2.012.012-5.375-.5-6.575-.9.001.002 2.926-.623 7.038.552z"/><path id="path70" fill="#0055A5" d="M57.229 538.085v.026l.013.012v.025l.012.025v.037l.012.038.013.038.025.05.012.038.025.063.025.05.025.05.025.063.038.063.037.063.037.063.05.062.038.075.05.063.062.063.062.075.063.063.062.075.075.063.075.062.087.063.088.075.1.05.087.063.112.062.113.05c-2.588-1.125-7.688-1.775-10.413-2.925-3.7-1.525-4.375-3.45-4.375-3.45 3.2-.088 5.787.7 7.775 1.313 2.35.712 5.9 2.037 7.137 2.6-.463.013-.975.138-1.4.438-1.737-.662-2.55-.95-4.137-1.4-1.238-.35-2.163-.413-2.938-.488 0 0 1.1.725 2.9 1.3 1.791.569 2.566.669 4.028.944z"/><path id="path72" fill="#0055A5" d="M57.029 535.26l.013.013.012.025.012.025.013.013.013.025.012.025.012.025.025.025.012.025.012.025.025.037.012.025.038.063.05.05.037.062.038.05.012.038.025.025.012.025.025.025.013.025.025.025.013.025.013.025.012.013.012.025.013.013.013.025c-4.088-.688-8.588-3.775-9.975-5.7-1.387-1.912-.988-4.775-.988-4.775 1.35.275 4.275 2.8 5.025 3.562.762.75 3.062 2.988 4.65 4.238l.487 1.425c-1.35-1.087-2.962-2.3-3.975-3.062-.775-.587-1.937-1.4-3.075-1.8 0 0 1.05 1.375 1.913 2.05.988.788 1.987 1.463 2.812 1.913.74.397 1.115.635 2.602 1.347z"/><path id="path74" fill="#0055A5" d="M68.554 546.71l.025-.025.025-.025.012-.013.025-.025.025-.025.025-.012.013-.025.025-.013.013-.025.025-.025.012-.013.025-.025.013-.013.025-.025.013-.013.025-.025c.188.25.812 1.038 1.125 1.825.237.663.488 1.575.613 2.087.125.538.488 1.612.725 1.987 0 0-1 .138-1.738-.737-.725-.837-.963-1.687-1.088-2.562-.088-.685-.05-1.635.037-2.273z"/><path id="path76" fill="#0055A5" d="M66.979 546.836l.025.025.012.025.025.013.012.025.012.025.025.012.012.012.012.025.025.012.012.012.012.013.013.025.025.012.012.013h.012l.013.013.013.012.012.012.012.013h.013v.013h.013l.012.012h.012v.012h.013v.012h.013v.013l.15.063.137-.038c.125-.05.238-.1.338-.137.15.388.2.588.25.938.037.45.137 1.163-.037 1.75-.212.713-.638 1.138-.875 1.425 0 0-.65-.725-.837-1.312a3.35 3.35 0 01-.025-2.075c.14-.4.352-.763.527-.975z"/><path id="path78" fill="#0055A5" d="M64.742 546.898l.062-.013h.062l.05-.013.062-.012.112-.025.113-.025.113-.037.112-.025.1-.038.1-.037.087-.05.088-.037.1-.05.075-.038.087-.05.075-.05.075-.05.075-.05c.088.225.213.55.125.987-.112.45-.413.963-.863 1.313-.675.538-1.563 1.037-2.562.875.002 0-.223-.738 1.752-2.575z"/><path id="path80" fill="#0055A5" d="M63.992 545.66l.013.063v.063l.013.05.012.063.012.05.013.05.013.063.012.05.025.05.013.038.012.05.025.05.013.038.025.038.012.037.013.038.025.037.012.038.013.025.025.025.012.037.013.025.013.013.012.025.012.025.013.012.013.013.012.013.012.013v.013h.013v.013c-.237.275-1.075 1.712-2.825 1.475 0 0-.475-.988.688-1.763.786-.542 1.173-.642 1.711-.83z"/><path id="path82" fill="#0055A5" d="M64.142 544.423l-.087.025-.087.025-.1.013-.1.013-.1.013-.1.013h-.112l-.112.012h-.113l-.125-.012h-.112l-.062-.013h-.062l-.075-.013h-.062l-.062-.013-.063-.013-.062-.013-.075-.013-.062-.013-.075-.025-.2-.037-.063-.2c-.887.738-1.962.862-2.325 1.525 0 0 .45.825 1.612.675 1.163-.138 2.038-.675 2.663-1.462.008-.112.058-.325.121-.487z"/><path id="path84" fill="#0055A5" d="M62.129 543.398l.025-.05.038-.05.025-.05.025-.063.037-.05.025-.062.037-.063.025-.063.038-.063.037-.075.025-.037.025-.025.013-.038.025-.038.025-.037.025-.025.025-.038.025-.037.038-.037.025-.037.038-.038.025-.025c-.775-.138-1.462-.163-2.363.025-1.075.2-2.175.45-2.725 2.075 0 0 .687.6 1.95.338 1.05-.212 1.975-.675 2.512-1.437z"/><path id="path86" fill="#0055A5" d="M61.667 541.623l-.05-.05-.05-.037-.05-.05-.05-.05-.038-.05-.05-.063-.05-.05-.037-.05-.05-.063-.037-.063-.05-.063-.038-.063-.038-.075-.037-.063-.037-.075-.038-.075-.087-.2c-.925-.375-1.9-.575-2.85-.225-.95.362-1.2.775-1.438 1.125 0 0 1.05.887 2.263.925 1.212.027 2.324-.323 2.812-.685z"/><path id="path88" fill="#0055A5" d="M61.954 539.71l.025-.013.037-.012.025-.013h.037l.025-.012.038-.013.025-.013.038-.013h.038l.037-.013.037-.013h.025l.037-.013.038-.013h.038l.037-.013c-.4-.362-.812-.912-1.013-1.75-.425.1-1.45.1-1.887-.063-.45-.175-1.325-.188-2.013.275 0 0 .225 1.188 1.775 1.6 1.464.392 2.001.292 2.601.092z"/><path id="path90" fill="#0055A5" d="M61.392 537.373l.2-.138c.025-.012.375-.225.975-.263-.5-.387-1.7-1.387-2.538-1.85-.912-.512-2.437-1.212-3.225-1.313 0 0 .738 1.912 1.575 2.688.888.801 1.5 1.101 3.013.876z"/><path id="path92" fill="#0055A5" d="M62.954 536.485l-.062-.088-.062-.1-.075-.1-.063-.1-.05-.113-.062-.112-.062-.113-.05-.125-.05-.125-.062-.125-.05-.125-.038-.138-.05-.137-.05-.138-.037-.15-.037-.138c-.188-.65-.588-2.225-.825-2.65-.237-.413-1.1-1.837-2.775-2.288 0 0-.438 1.862.4 3.362.723 1.278 2.21 2.628 4.06 3.503z"/><path id="path94" fill="#0055A5" d="M72.267 545.21l.05.038.037.037.038.038.037.025.038.038.037.025.038.038.037.025.038.025.05.038.025.013.025.013.025.013.025.025.025.013.025.013.038.012.025.025.025.013.037.013.037.025.025.013s.538 1.025-.112 2.25a30.647 30.647 0 00-1.45 3.2s-.35-.05-.737-1.987c-.262-1.3-.587-1.638-.937-2.075.375.187.675.237.713.237l.25.063.125-.25c.225-.438.287-.863.287-1.213 0-.125 0-.237-.013-.338.6.025.925-.287 1.05-.437.012-.025.025-.025.025-.037l.062.069z"/><path id="path96" fill="#0055A5" d="M58.017 530.41v.59l.037.462c-1-1.263-2.187-2.787-3.312-4.2-.775-.962-1.425-1.537-2.163-2.013.625 1.787 1.725 3.213 2.5 3.913.775.712 1.9 1.912 3 2.65l.1.35c.087.338.212.675.387 1 .275.45.6.888 1 1.325a13.985 13.985 0 00-1.05-.487l-.35-.15c-3.013-1.587-6.013-4.912-7.212-7.212-1.212-2.313-.713-4.987-.4-6.425 1.375 1.163 3.363 3.45 4.213 4.688 1.063 1.525 2.413 3.7 3.25 5.463v.046z"/><path id="path98" fill="#0055A5" d="M100.354 540.248l-.037-.025-.025-.013-.037-.025-.038-.012-.037-.025-.05-.013-.038-.025-.037-.025-.038-.013-.05-.025-.037-.013-.05-.025-.05-.025-.05-.012-.05-.025-.05-.013c1.85-.55 4.375-1.45 8.188-1.7 2.787-.187 4.787-.025 5.837.25 0 0-2.55 1.788-5.45 2.425-2.9.625-5.263.225-6.988.237a3.074 3.074 0 00-.437-.55c2.012.012 5.362-.5 6.575-.9-.001.002-2.926-.623-7.051.552z"/><path id="path100" fill="#0055A5" d="M100.367 538.085v.026l-.013.012v.025l-.012.025-.013.037v.038l-.025.038-.012.05-.013.038-.025.063-.025.05-.025.05-.038.063-.025.063-.037.063-.038.063-.05.062-.05.075-.05.063-.05.063-.063.075-.062.063-.075.075-.075.063-.075.062-.075.063-.1.075-.087.05-.1.063-.1.062-.112.05c2.587-1.125 7.675-1.775 10.425-2.925 3.688-1.525 4.363-3.45 4.363-3.45-3.2-.088-5.8.7-7.787 1.313-2.338.712-5.887 2.037-7.137 2.6.475.013.988.138 1.412.438 1.738-.662 2.55-.95 4.125-1.4 1.25-.35 2.162-.413 2.938-.488 0 0-1.088.725-2.888 1.3-1.802.569-2.577.669-4.026.944z"/><path id="path102" fill="#0055A5" d="M100.567 535.26v.013l-.013.025-.013.025-.012.013-.025.025-.012.025-.013.025-.012.025-.025.025-.013.025-.037.063-.038.063-.05.05-.037.062-.038.05-.012.038-.025.025-.012.025-.025.025-.013.025-.025.025-.012.025-.013.025-.012.013-.013.025-.025.013-.012.025c4.087-.688 8.587-3.775 9.975-5.7 1.4-1.912 1-4.775 1-4.775-1.35.275-4.275 2.8-5.037 3.562-.75.75-3.05 2.988-4.637 4.238l-.488 1.425c1.35-1.087 2.963-2.3 3.962-3.062.787-.587 1.925-1.4 3.088-1.8 0 0-1.063 1.375-1.913 2.05-.988.788-2 1.463-2.825 1.913-.726.396-1.113.634-2.588 1.346z"/><path id="path104" fill="#0055A5" d="M99.579 530.41v.589l-.038.462c.988-1.263 2.175-2.787 3.3-4.2.787-.962 1.437-1.537 2.162-2.013-.613 1.787-1.713 3.213-2.488 3.913-.775.712-1.9 1.912-3 2.65l-.1.35c-.1.338-.225.675-.4 1-.262.45-.6.888-.988 1.325.313-.162.675-.337 1.05-.487l.338-.15c3.013-1.587 6.013-4.912 7.212-7.212 1.238-2.313.725-4.987.4-6.425-1.375 1.163-3.35 3.45-4.2 4.688-1.062 1.525-2.412 3.7-3.25 5.463v.047z"/><path id="path106" fill="#0055A5" d="M61.879 548.635l-.125.125-.125.125-.138.138-.137.15-.15.15-.15.162-.15.175-.15.175-.162.188-.162.187-.15.2-.162.2-.15.212-.162.225-.15.225-.15.225-.137.238-.137.237-.138.238-.125.25-.125.25-.1.263-.1.25-.1.275-.075.262-.075.263-.05.275-.05.275-.025.275-.012.287-.012.275.025.288s2.425-.763 3.437-2.55c1-1.775 1.613-2.913 2.038-3.313a2.82 2.82 0 01-.8 0l-.225-.037c-.625 1.125-1.85 2.975-2.95 3.613 0 0-.275-1.5 2.963-4.525a3.06 3.06 0 01.2-.413c-.3.112-.625.162-1.013.15"/><path id="path108" fill="#0055A5" d="M95.279 531.86l-.125.262-.138.25-.137.262-.162.275-.087.125-.088.137-.1.138-.1.138-.1.137-.113.138-.125.137-.125.138-.125.15-.137.138-.138.15-.15.15-.163.15-.162.15-.175.15-.187.162-.187.15-.2.162-.2.162-.212.175-.225.163-.237.175-.25.162-.25.175c-.625.425-1.313 1.313-.788 2.55.525 1.25 1.5 3 .912 3.688-.587.687-2.675 1.037-4.375.362 0 0-.362 1.075-.975 1.762 0 0 .3.587 1.275.287 0 0-.363.888.137 1.838 0 0 1.138-.2 1.625-1.25 0 0 .45.825 1.362 1.112 0 0 .762-.387.588-1.887 0 0 .55 1.338 2.262 1.563 0 0 .975-1.237-.3-2.9 0 0 .912.812 2.575.425 0 0 .262-.85-1.238-2.025 0 0 1.7-.075 2.35-1.5 0 0-.725-.887-2.487-.688 0 0 1.638-.363 2-2.313 0 0-1.175-.75-3.038.45 0 0 .325-.625 1.113-1.25.775-.597 1.725-2.335 1.4-4.885z"/><path id="path110" fill="#0055A5" d="M88.454 551.548l.05-.062.038-.062.037-.063.05-.063.038-.062.037-.062.037-.05.038-.062.037-.063.025-.063.038-.062.025-.062.037-.05.025-.062.025-.063.025-.063c-.287 2.375-.388 3.975-1.675 5.513 0 0-.775-1.025-.275-3.525.225-.063.45-.162.688-.325 0 0-.287 1.013-.113 2.037.001-.001.463-.339.813-2.726z"/><path id="path112" fill="#0055A5" d="M90.667 551.298l.025-.012.013-.025.012-.025.013-.012.025-.025.012-.025.025-.025.013-.025.025-.025.012-.037.05-.05.037-.063.038-.063.05-.062.037-.062.038-.062.037-.063.038-.05.037-.062.025-.037.012-.025.013-.025.013-.025c.112 1.375.475 5-.738 6.138 0 0-.837-.613-1.125-5.9.175.3.488.612.625.787 0 0-.2 1.675.4 2.862 0-.002.613-.465.238-3.002z"/><path id="path114" fill="#0055A5" d="M93.567 554.073l-.1-.113-.087-.137-.088-.15-.075-.162-.087-.163-.062-.175-.075-.187-.063-.188-.062-.2-.063-.2-.05-.2-.063-.212-.087-.413-.05-.2-.038-.2-.037-.2-.025-.187-.037-.187-.025-.188-.025-.175-.025-.162-.025-.15-.013-.138-.012-.137-.013-.113-.012-.05v-.05l-.013-.05v-.075l-.012-.025v-.099c-.15-.088-.287-.2-.425-.313-.063-.05-.125-.088-.175-.15 0 .137 0 .275-.025.413.162 2.2.338 4.475 1.025 5.612.675 1.113 1.913 1.688 1.913 1.688 1.162-2.075-.237-4.85-1.425-6.787a3.357 3.357 0 01-.438-.188c.411 1.486 1.186 3.248.874 4.611z"/><path id="path116" fill="#0055A5" d="M96.454 547.71v.175l-.013.037v.075l-.012.012v.049l-.013.013v.049l-.012.013v.037l-.013.013v.05l-.012.013c-.013.025-.025.087-.05.15.975.938 1.7 1.862 3.137 3.862 1.437 2.012 3.738 2.087 3.738 2.087-.225-1.625-.675-2.913-1.9-4.288-1.213-1.387-2.787-2.65-3.925-3.487-.3.138-.687.225-1.175.163-.05 0-.075-.013-.112-.013.15.2.25.4.3.588.862.5 3.4 1.787 4.425 3.85 0 .003-1.6-.498-4.363-3.448z"/><path id="path118" fill="#0055A5" d="M98.267 545.698l-.1-.187c-.025-.05-.062-.1-.1-.15.938.363 4.287 1.625 5.375 2.187 1.088.563 2.65 1.838 3.5 4.438 0 0-2.263.2-4.125-1.35-1.863-1.537-4.037-3.7-4.975-4.387a.982.982 0 00.225-.237s2.525 2.238 5.2 3.2c0 0-.575-1.025-1.638-1.787-1.275-.915-2.238-1.215-3.362-1.727z"/><path id="path120" fill="#0055A5" d="M100.179 544.16l-.013-.025-.012-.037-.013-.037-.025-.025-.012-.037-.013-.038-.012-.025-.013-.037c1.1.237 3.875.562 5.112.938 1.225.375 3.463 1.287 4.788 3.813 0 0-1.95.6-5.625-1.125-3.662-1.725-4.812-2.088-5.512-2.275a2.546 2.546 0 001.162-.35c1.463.65 3.412 1.425 5.363 1.475 0 0-.963-.675-1.975-1.1a24.325 24.325 0 00-3.2-1.115z"/><path id="path122" fill="#0055A5" d="M100.092 542.335l-.062.037-.063.025-.075.025-.063.038-.062.012-.063.025-.062.025-.062.013-.063.025-.075.013-.062.013-.075.013-.075.013-.037.013h-.088l-.037.013h-.038l-.05.013c.25.163.5.375.725.65 1.288.375 3.488.775 7.125 1.038 3.637.275 5.575-.4 5.575-.4-1.263-.775-3.287-1.563-4.65-1.825-1.362-.263-4.95-.225-6.525-.45-.025.025-.2.175-.525.363 1.325.125 4.15.25 5.6.975-.001-.004-2.676.358-6.213-.667z"/><path id="path124" fill="#0055A5" d="M89.029 546.71l-.038-.05-.025-.013-.025-.025-.025-.025-.012-.012-.025-.025-.013-.013-.025-.025-.012-.025-.025-.013-.013-.025-.025-.013-.013-.025-.025-.013-.012-.025c-.2.25-.825 1.038-1.138 1.825a23.428 23.428 0 00-.6 2.087c-.137.538-.5 1.612-.725 1.987 0 0 .988.138 1.725-.737.725-.837.988-1.687 1.088-2.562a9.16 9.16 0 00-.037-2.273z"/><path id="path126" fill="#0055A5" d="M90.604 546.836l-.012.025-.025.025-.013.013-.012.025-.025.025-.013.012-.012.012-.025.025-.013.012-.012.012-.013.013-.025.025-.012.012-.013.013h-.012l-.013.013-.012.012-.012.012-.013.013h-.013l-.012.013h-.012l-.013.012-.012.012h-.013v.012h-.025v.013l-.125.063-.15-.038c-.113-.05-.225-.1-.338-.137-.138.388-.2.588-.238.938-.05.45-.137 1.163.038 1.75.212.713.625 1.138.862 1.425 0 0 .662-.725.837-1.312.2-.612.275-1.337.025-2.075a2.813 2.813 0 00-.524-.975z"/><path id="path128" fill="#0055A5" d="M92.854 546.898l-.062-.013h-.062l-.063-.013-.062-.012-.113-.025-.112-.025-.112-.037-.1-.025-.1-.038-.1-.037-.1-.05-.087-.037-.087-.05-.088-.038-.075-.05-.088-.05-.075-.05-.062-.05c-.087.225-.225.55-.125.987.1.45.413.963.862 1.313.663.538 1.562 1.037 2.55.875-.001 0 .236-.738-1.739-2.575z"/><path id="path130" fill="#0055A5" d="M93.604 545.66l-.012.063-.013.063-.012.05v.063l-.013.05-.012.05-.025.063-.013.05-.012.05-.013.038-.025.05-.012.05-.013.038-.025.038-.013.037-.025.038-.012.037-.013.038-.025.025-.012.025-.013.037-.012.025-.025.013-.013.025-.012.025-.013.012v.013l-.012.013-.013.013v.013h-.012v.013c.225.275 1.075 1.712 2.825 1.475 0 0 .463-.988-.7-1.763-.787-.542-1.162-.642-1.7-.83z"/><path id="path132" fill="#0055A5" d="M93.442 544.423l.087.025.1.025.1.013.1.013.1.013.1.013h.112l.112.012h.112l.125-.012h.113l.125-.013.063-.013h.075l.062-.013.062-.013.063-.013.075-.013.062-.013.063-.025.2-.037.075-.2c.887.738 1.962.862 2.325 1.525 0 0-.45.825-1.613.675-1.162-.138-2.037-.675-2.662-1.462a3.658 3.658 0 00-.136-.487z"/><path id="path134" fill="#0055A5" d="M95.467 543.398l-.013-.025-.012-.025-.038-.05-.025-.05-.025-.063-.037-.05-.025-.062-.037-.063-.038-.063-.025-.063-.037-.075-.025-.037-.025-.025-.013-.038-.025-.038-.025-.037-.025-.025-.025-.038-.025-.037-.038-.037-.025-.037-.037-.038-.025-.025a5.78 5.78 0 012.362.025c1.075.2 2.175.45 2.725 2.075 0 0-.7.6-1.95.338-1.05-.212-1.987-.675-2.512-1.437z"/><path id="path136" fill="#0055A5" d="M95.917 541.623l.05-.05.05-.037.05-.05.05-.05.05-.05.05-.063.038-.05.05-.05.037-.063.05-.063.038-.063.037-.063.038-.075.037-.063.037-.075.038-.075.087-.2c.937-.375 1.9-.575 2.85-.225.95.362 1.2.775 1.437 1.125 0 0-1.05.887-2.25.925-1.212.027-2.337-.323-2.824-.685z"/><path id="path138" fill="#0055A5" d="M95.641 539.71l-.062-.025-.037-.013h-.025l-.038-.012-.025-.013-.037-.013-.038-.013h-.037l-.025-.013-.037-.013h-.038l-.037-.013-.038-.013h-.037l-.038-.013c.425-.362.812-.912 1.013-1.75.45.1 1.45.1 1.9-.063.45-.175 1.325-.188 2.012.275 0 0-.225 1.188-1.787 1.6-1.451.392-2.001.292-2.589.092z"/><path id="path140" fill="#0055A5" d="M96.192 537.373l-.2-.138c-.025-.012-.375-.225-.963-.263.5-.387 1.688-1.387 2.525-1.85.925-.512 2.45-1.212 3.225-1.313 0 0-.725 1.912-1.575 2.688-.875.801-1.487 1.101-3.012.876z"/><path id="path142" fill="#0055A5" d="M94.629 536.485l.075-.088.063-.1.062-.1.063-.1.062-.113.062-.112.063-.113.05-.125.05-.125.062-.125.05-.125.05-.138.037-.137.05-.138.038-.15.05-.138c.162-.65.575-2.225.812-2.65.237-.413 1.1-1.837 2.775-2.288 0 0 .438 1.862-.4 3.362-.736 1.278-2.224 2.628-4.074 3.503z"/><path id="path144" fill="#0055A5" d="M85.329 545.21l-.05.038-.038.037-.037.038-.038.025-.037.038-.038.025-.037.038-.037.025-.05.025-.05.038-.013.013-.025.013-.025.013-.025.025-.037.013-.025.013-.025.012-.025.025-.037.013-.025.013-.038.025-.037.013s-.525 1.025.112 2.25c.65 1.237 1.2 2.5 1.462 3.2 0 0 .35-.05.738-1.987.262-1.3.6-1.638.938-2.075a2.52 2.52 0 01-.713.237l-.25.063-.125-.25a2.512 2.512 0 01-.275-1.551c-.6.025-.937-.287-1.05-.437-.013-.025-.013-.025-.038-.037l-.05.069z"/><path id="path146" fill="#0055A5" d="M95.717 548.635l.125.125.125.125.137.138.137.15.15.15.137.162.163.175.15.175.163.188.15.187.163.2.162.2.15.212.15.225.163.225.137.225.15.238.137.237.137.238.125.25.112.25.113.263.1.25.087.275.087.262.063.263.062.275.05.275.025.275.012.287v.275l-.012.288s-2.438-.763-3.437-2.55c-1-1.775-1.613-2.913-2.037-3.313.262.038.537.038.8 0l.225-.037c.625 1.125 1.838 2.975 2.938 3.613 0 0 .287-1.5-2.95-4.525a2.259 2.259 0 00-.212-.413c.3.112.637.162 1.025.15"/><path id="path148" fill="#0055A5" d="M76.892 524.486v-.025l.012-.025.013-.013.012-.025.025-.013.025-.025.025-.013.037-.025.038-.013.037-.025.05-.013.05-.013.05-.025.062-.013.063-.012.062-.013.063-.013.062-.012.075-.013.075-.013.075-.013.087-.012.075-.013h.087l.088-.013.087-.013h.187l.087-.013h.288c1.05 0 1.9.187 1.9.413 0 .212-.85.4-1.9.4-1.047.005-1.897-.182-1.897-.394z"/><path id="path150" fill="#0055A5" d="M70.429 526.673v-.013l.012-.013v-.012l.012-.013.013-.012.025-.013h.012l.025-.013.025-.013.025-.013h.025l.038-.013.037-.013.025-.013h.05l.038-.013h.037l.05-.012.05-.013h.037l.05-.013h.112l.05-.013h.113l.062-.013h.312c.662 0 1.225.1 1.225.225s-.563.212-1.225.212c-.685.006-1.235-.081-1.235-.206z"/><path id="path152" fill="#0055A5" d="M79.167 525.361v.088l-.012.013v.025l-.013.013v.025l-.013.013v.013l-.012.013-.012.025-.013.013-.012.013-.013.013-.012.013-.013.013-.012.013-.013.013-.012.013-.013.012h-.012l-.025.012-.013.013h-.012l-.025.013h-.038l-.012.012h-.063a.379.379 0 01-.375-.387c0-.188.175-.363.375-.363a.364.364 0 01.375.356z"/><path id="path154" fill="#0055A5" d="M76.754 524.086l-.062-.15-.05-.137-.062-.125-.05-.137-.05-.125-.05-.137-.063-.125-.037-.113-.05-.125-.05-.113-.037-.113-.05-.112-.038-.113-.037-.1-.037-.1-.038-.1-.037-.1-.025-.087-.025-.088-.038-.088-.025-.075-.025-.075-.012-.075-.025-.075-.013-.063-.012-.062-.013-.063-.012-.05-.012-.05v-.125c.012-.225.275-.388.525-.463.262-.075.475-.1.65.025.325.262.637 2.287.737 3.138a2.912 2.912 0 00-.877.301z"/><path id="path156" fill="#0055A5" d="M77.917 523.76l.025-.013h.087l.063-.013h.187l.125-.013c-.113-.812-.388-2.15-.55-2.687-.163-.538-.375-.912-.725-1.013 0 0 .275.738.425 1.5.15.765.25 1.514.363 2.239z"/><path id="path158" fill="#0055A5" d="M75.904 526.46l.075-.013.062-.025.062-.025.063-.025.062-.025.075-.038.062-.025.063-.038.062-.038.05-.037.063-.038.062-.038.05-.037.062-.038.05-.037.05-.05.05-.038.038-.037.05-.038.038-.025.037-.037.038-.037.037-.025.038-.037.025-.025.025-.013.012-.025.025-.025.012-.012h.013v-.013c-1.123.164-1.411.914-1.411.914z"/><path id="path160" fill="#0055A5" d="M76.954 526.398l-.1.05-.087.038-.088.05-.1.038-.088.038-.087.037-.1.025-.087.037-.088.025-.087.013-.087.025-.088.025-.075.013-.087.012-.075.013-.075.013h-.075l-.062.013h-.062l-.063.013h-.4c.212-.388.413-.75 1.013-1.175.612-.438 1.6-.55 1.987-.5-.089.297-.489.922-.939 1.197z"/><path id="path164" fill="#0055A5" d="M76.739 526.908c-.725.338-2.975.375-4.188.438h-.781l-.094-.031h-.125l-.094-.031h-.094l-.094-.031-.094-.031h-.094l-.094-.031h-.094l-.094-.031h-.062l-.094-.031-.062-.031h-.061l-.063-.031-.062-.031h-.094l-.031-.031h-.031l-.063-.031h-.031c.138 2.65 1.938 2.813 1.938 2.813-.025-.212 0-.563 0-.563.562.525 1.719.906 1.719.906a1.924 1.924 0 00-.125-.594c.488.287.781.281.781.281-.05-.375-.281-.812-.281-.812.338.437.75.469.75.469.075-.212-.063-.75-.063-.75.175.212.5.775 1.5 1 1.025.212 1.469-.375 1.469-.375-.975.063-1.906-.875-1.906-.875.525-.2.719-.562.719-.562a1.174 1.174 0 00-.625-.281c.574-.267.718-.723.718-.723zm-3.438 1v.094s-1.562.006-1.625.781c-.25-.163-.375-.462-.438-.812.001 0 1.114.062 2.063-.063z"/><path id="path166" fill="#0055A5" d="M69.867 527.148l.012.113.013.1.012.113.013.1.012.112.025.1.025.1.025.1.025.1.025.1.025.087.038.088.025.088.038.088.037.075.038.075s-.712-.525-.887-.987c-.176-.464-.226-.765.499-.552z"/><path id="path170" fill="#0055A5" d="M67.77 527.658c-.309.034-.594.162-.781.437-.363.538-.231 1.563.531 2 0 0 1.144-.994 2.531-.031 0 0 .306-.181 1.031-.344v-.031h-.031v-.031l-.031-.031-.031-.031h-.031v-.031l-.031-.031-.031-.031-.031-.031-.031-.031-.031-.031h-.033l-.031-.063h-.031l-.031-.063h-.031l-.031-.031-.062-.031-.031-.031-.031-.031-.062-.031-.031-.031-.031-.031-.063-.031h-.034l-.062-.031-.031-.031c-.425-.187-1.3-.45-1.562-1.25a2.512 2.512 0 00-.845-.066zm.657 1.062c.163 0 .313.15.313.313v.062h-.031v.062h-.031v.062h-.031v.031h-.031v.031h-.062v.031h-.065l-.031.031h-.031c-.162 0-.281-.15-.281-.313-.001-.16.118-.31.281-.31z"/><path id="path172" fill="#0055A5" d="M71.242 529.898l.012.013.013.012v.013h.012l.013.025.012.013.025.025.013.038.025.025.025.025.025.037.025.038.038.025.025.038.037.037.025.05.038.037.075.075.062.075.075.088.037.038.038.037.037.038.038.037.037.025.037.038.038.025.037.037s-1.875-.025-2.337 1.6c0 0-.638-1-.175-1.638.5-.689.975-.788 1.638-.926z"/><path id="path174" fill="#0055A5" d="M73.292 530.285l.013.013h.025l.012.013h.038l.025.013.025.013h.025l.037.012.025.013h.038l.025.013.038.013.062.012.063.025.075.012.025.013.037.013.025.013h.037l.025.013.025.013h.025l.025.013h.025l.025.013s0-.35-.012-.512c.187.037.4.1.6.125 0 0 .6 1.325 1.075 1.862 0 0 .025.313-.237.75 0 0-.35-.775-.95-1.425-.339-.355-.564-.543-1.276-1.043z"/><path id="path176" fill="#0055A5" d="M71.704 530.01h.013l.025.013h.037l.025.013.038.012.037.013.05.013.038.012.05.025.05.012.05.013.063.025.05.013.062.025.05.025.062.025.125.05.125.05.125.05.112.05.062.038.063.025.05.025.062.037.05.025.05.025.05.037.037.025c.588.425.988.9.925 1.737 0 0-.463-.662-.988-.962-.41-.226-1.16-.876-1.548-1.451z"/><path id="path178" fill="#0055A5" d="M71.717 523.935h.038l.013.013h.062l.025.013h.038l.025.013h.025l.012.013h.025l.025.013.025.013.012.012.025.013.013.013.025.013.012.013.025.013.013.013.012.013.013.025.012.013.013.025.012.012v.026l.013.012v.039l.012.013v.039c0 .287-.45.975-.575 1.275-.125-.3-.562-.987-.562-1.275 0-.288.337-.375.512-.375h.1z"/><path id="path180" fill="#0055A5" d="M71.329 526.173l-.012-.05-.013-.037v-.05l-.012-.05-.013-.05-.012-.05-.013-.063v-.05l-.012-.063-.013-.062-.025-.125-.037-.125-.025-.138-.025-.125-.025-.062-.013-.063-.012-.05-.025-.063-.012-.05-.025-.05-.013-.05-.025-.05-.025-.05-.012-.037-.025-.038-.025-.038-.025-.025-.013-.025c-.25-.213-.6-.238-.762-.225-.175.013-.363.188-.287.425s.85 1.4.95 1.537c.174-.023.136-.023.586-.048z"/><path id="path182" fill="#0055A5" d="M72.004 526.173l.012-.05.013-.037v-.05l.012-.05.013-.05.012-.05.013-.063.012-.05.013-.063.012-.062.025-.125.025-.125.025-.138.038-.125.012-.062.013-.063.025-.05.012-.063.025-.05.012-.05.025-.05.013-.05.025-.05.012-.037.025-.038.025-.038.025-.025.013-.025c.25-.213.587-.238.762-.225s.35.188.287.425c-.075.237-.85 1.4-.95 1.537-.173-.023-.148-.023-.586-.048z"/><path id="polygon184" fill="#0055A5" d="M72.504 522.536h-.6v-.663h-.487v.663h-.6v.425h.6v.774h.487v-.774h.6z"/><path id="path186" fill="#0055A5" d="M65.217 526.823v-.187l.012-.05v-.088l.012-.025v-.025c.038-.325.05-.612.013-.837-.438.163-.738.275-1.325 1.237 0 0 .95-.588 1.288-.025z"/><path id="path188" fill="#0055A5" d="M66.042 528.36v-.025l.013-.038v-.088l.012-.037v-.037l.012-.05.013-.037v-.05l.013-.038.012-.05v-.05l.012-.05.013-.063.013-.05.025-.1.025-.113.037-.113.025-.112.038-.113.037-.113.038-.112.012-.05.025-.05c.25-.65.087-1.6-.2-2.162-.275-.562-.438-1.088-.388-1.663 0 0-.562.188-.887.388-.05.675.338 1.338.525 1.713.213.45.175 1.025.125 1.387-.075.614.05 1.264.45 1.876z"/><path id="path190" fill="#0055A5" d="M66.104 523.248v-.038h-.013v-.204l.013-.013v-.064l.012-.012v-.026l.012-.012s.887-.862 1.625-1.013c.475-.1.762.113.912.225 0 0-.275-.025-.663.3-.4.313-.887.713-1.275.813-.36.094-.448.069-.623.044z"/><path id="path192" fill="#0055A5" d="M68.729 522.173l.062.063.063.063.063.062.05.063.062.063.05.063.012.025.025.037.025.025.025.037.013.038.025.025.013.038.025.025.012.025.013.038.012.025.013.037.012.025.013.037.012.025v.038l.013.025v.088c-.013.313-.375 1.112-.575 1.412-.188.3-.463.7-.438 1.175.013.25.187.5.388.7 0 0-1.088-.262-1.212-.925-.125-.6.125-1.025.3-1.362.162-.313.675-1.038.787-1.338.125-.277.175-.502.137-.652z"/><path id="path194" fill="#0055A5" d="M75.079 529.723l.038.137.05.15.05.137.05.138.05.137.063.138.062.138.062.125.063.125.062.137.063.125.062.113.075.125.062.113.063.112.075.1c.325.512.525 1.363.5 1.65 0 0 .487-1.088.237-1.85-.187-.6-.724-1.475-1.687-1.85z"/><path id="path196" fill="#0055A5" d="M76.292 529.973h.1l.025.013h.138l.037.013h.075l.05.013h.037l.05.013h.038l.05.013.05.012.037.013.05.013h.037l.05.025.038.013.05.012.037.013.038.025.037.013.037.025.038.013c.45.3.875.938 1.038 1.713 0 0-.763-.125-1.125-.5-.375-.368-.825-.93-1.012-1.455z"/><path id="path198" fill="#0055A5" d="M72.442 531.323h-.075l-.025.012h-.037l-.025.013h-.05l-.025.013-.05.012-.05.013h-.05l-.05.013-.05.013-.05.013-.025.013h-.025l-.025.013h-.025l-.012.013h-.05l-.012.013s.637.187.95.438c.262.225.5.575.612 1.15.163.812.638 1.687.775 1.95l.063-.012c-.1-.563.25-1.713.35-1.875 0 0-.513-.325-.737-.65-.177-.243-.465-.643-1.302-1.155z"/><path id="path200" fill="#0055A5" d="M75.742 533.06l.025.038.013.038.025.05.025.05.025.038.012.05.025.063.038.05.025.05.025.063.05.113.05.113.013.062.025.063.025.075.012.063.025.063.013.062.012.075.013.063.012.075.013.075v.212l-.013.075v.063l-.012.075-.013.075-.025.075c-.225.787-.725 1.125-1.05 1.787 0 0-.25-1.2-.2-2.125.062-.941.399-1.291.812-1.629z"/><path id="path202" fill="#0055A5" d="M77.179 533.085v.013l.012.013v.013l.013.013v.012l.012.013.013.012v.025l.012.025.025.037.025.05.025.063.037.063.025.062.038.075.037.063.038.075.025.087.037.075.038.075.05.088.075.175.063.163.037.087.038.075.037.075.025.088.025.075.025.063.025.075.025.063.012.063.025.05c.125.563 0 .925-.25 1.262-.25.338-.675.713-1.075 1.413 0 0-.45-.6-.512-.912-.05-.325.037-1.075.137-1.388s.489-1.341.826-2.379z"/><path id="path204" fill="#0055A5" d="M77.554 537.673l-.012.013h-.013v.012l-.012.013-.013.013-.012.025-.038.025-.025.037-.037.038-.038.05-.037.038-.037.05-.038.05-.05.063-.05.05-.037.062-.05.05-.1.125-.087.112-.05.063-.038.063-.05.063-.037.05-.037.062-.038.05-.037.05-.038.05-.037.05-.025.05-.025.037-.013.037-.012.025-.013.013v.013l-.012.013c-.112.313-.313.875-.05 1.275.287.4.887 1.038 1.425 1.313 0 0-.575-.912-.525-1.663.037-.487.412-.912.487-1.2.061-.29.011-.79-.189-1.24z"/><path id="path206" fill="#0055A5" d="M75.854 537.098l.012.013.013.025.012.013.013.025.025.025.012.025.013.025.012.025.013.038.025.025.012.038.013.025.012.038.012.025.038.075.025.075.025.075.025.075.025.075.025.075v.05l.012.038.013.037v.088l.012.038c.025.425-.037.775-.275 1.412-.287.787-.75 1.675-.963 2.075 0 0-.413-.587-.638-1.1 0 0 .638-.875.9-1.487.327-.729.452-1.404.577-1.966z"/><path id="path208" fill="#0055A5" d="M75.567 536.748v.012l-.013.013v.076l-.012.05-.013.05-.012.075-.013.075-.025.088-.012.087-.025.1-.025.113-.037.112-.025.113-.038.125-.037.137-.05.125-.038.137-.05.15-.062.137-.05.15-.062.15-.063.15-.075.15-.075.15-.088.15-.075.15-.1.162-.088.15-.1.137-.1.15-.112.15c-.812 1.025-1.475 1.388-1.912 1.388-.663 0-1.325-.563-1.55-1.188-.225-.625-.15-1.612.275-1.95 0 0 .4 1.225 1.237 1.275.962.051 2.187-1.024 3.425-3.099z"/><path id="path210" fill="#0055A5" d="M74.579 535.898l.012.038v.037l.013.038v.037l.025.075.012.088v.087l.013.088.012.088v.288l-.012.1-.013.1v.1l-.025.1-.012.1-.025.1c-.1.4-.35.925-.812 1.225-.413.25-1.363.313-1.738-.6 0-.002 1.75.136 2.55-2.089z"/><path id="path212" fill="#0055A5" d="M77.442 544.148l.025.05.025.063.037.063.025.062.038.063.037.063.05.063.037.063.088.125.087.125.1.125.087.125.088.125.05.05.037.062.037.063.038.063.037.05.038.062.025.05.025.063.025.05.025.05.013.05.013.05v.05l.012.038c-.025 1.275-.588 2.05-.712 2.475 0 0-1.013-.812-1.188-1.737-.099-.479.001-1.904.801-2.604z"/><path id="path214" fill="#0055A5" d="M76.304 545.048l.013-.037.012-.038.013-.037.025-.038.013-.05.025-.037.012-.05.025-.05.025-.05.025-.062.025-.05.025-.05.05-.113.063-.112.062-.125.062-.113.038-.05.025-.05.037-.05.038-.05.037-.05.037-.05.038-.05.037-.038.038-.038.037-.037.038-.038.037-.038s.563-1.625-1.212-2.625c0 0-.738.963-.925 1.888-.2.913.775 1.463 1.225 2.288z"/><path id="path216" fill="#0055A5" d="M74.079 540.923l-.063.075-.062.063-.05.075-.062.075-.063.062-.062.075-.075.075-.063.063-.062.063-.062.075-.038.025-.037.025-.025.038-.038.025-.025.025-.037.025-.025.025-.037.013-.025.025-.038.025-.025.012-.037.013s-.113.725-.038 1.212c.088.713.55 1.45.75 2 0 0 .775-1.025.862-1.625.088-.6.075-1.087.1-1.375 0-.002-.425-.702-.663-1.189z"/><path id="path218" fill="#0055A5" d="M72.017 544.423l-.025-.037-.025-.038-.025-.05-.025-.038-.038-.063-.025-.05-.037-.063-.038-.062-.037-.075-.038-.063-.037-.075-.037-.088-.038-.075-.037-.088-.05-.075-.038-.087-.075-.175-.075-.187-.063-.188-.025-.087-.037-.088-.025-.1-.025-.088-.013-.087-.025-.1-.013-.088-.013-.087v-.088l-.012-.088s.887.475 1.625.125c0 0 .088 1.175-.05 1.563-.112.327-.262.515-.624.79z"/><path id="path220" fill="#0055A5" d="M72.217 544.673l.025-.013.013-.012.012-.025.025-.013.013-.013.025-.013.013-.025.025-.013.025-.025.012-.013.05-.05.038-.038.05-.05.05-.038.037-.05.05-.038.025-.025.012-.012.025-.025.025-.025.013-.013.012-.025.025-.013.013-.025.012-.013.013-.025s.587 1.075.687 1.388c0 0-.287.063-.612-.162a4.09 4.09 0 01-.713-.596z"/><path id="path222" fill="#0055A5" d="M74.929 544.035l-.012.013v.013l-.013.025v.013l-.012.025-.013.013-.012.025-.013.025-.025.05-.025.05-.038.062-.037.05-.038.063-.037.075-.05.063-.038.075-.05.063-.05.075-.1.138-.1.15-.05.063-.05.075-.037.062-.05.063-.05.063-.038.063-.037.05-.05.05-.025.05-.037.037-.013.013-.012.025-.013.013-.012.013-.013.013-.012.013-.013.013-.012.012s.075.475.425 1.15a4.92 4.92 0 001.1 1.4s.575-1.013.75-1.45c.2-.512.175-1.025.087-1.213-.2-.444-.875-1.081-1.175-1.644z"/><path id="path224" fill="#0055A5" d="M76.342 547.461l.012.05.025.037.025.05.025.038.037.05.025.05.038.038.025.05.037.05.038.063.075.1.063.112.075.1.075.112.075.112.063.112.025.063.037.05.025.062.025.05.025.05.025.063.013.05.012.062.025.05v.05c.075.425.013.775-.1 1.075-.125.287-.5.862-.75 1.3 0 0-.862-.812-1.05-1.387-.137-.438-.087-1.05.125-1.45.2-.388.65-.8.85-1.212z"/><path id="path226" fill="#0055A5" d="M73.904 547.348l.025.05.025.05.025.037.025.05.025.05.025.038.062.087.063.1.062.088.075.088.062.087.063.087.062.088.062.087.025.037.025.05.025.038.025.05.025.037.025.037.013.05.025.038.012.038.013.05c.137.488.187.812-.05 1.4-.225.512-.475.812-.563 1.125 0 0-.7-.9-.825-1.275-.112-.388-.15-1-.012-1.387.151-.4.401-.913.576-1.275z"/><path id="path228" fill="#0055A5" d="M77.342 550.798v.012h-.013v.012l-.012.013-.013.013-.012.012-.012.012-.013.025-.012.013-.025.025-.013.025-.025.025-.037.05-.038.063-.05.063-.05.062-.05.075-.05.075-.063.075-.05.088-.062.087-.05.087-.062.088-.05.087-.05.1-.05.087-.05.088-.05.1-.037.087-.038.087-.037.1-.025.088-.038.087-.012.075-.013.087-.012.037v.113c.037.963.675 1.588.762 2.188 0 0 .638-.712.875-1.187.262-.55.475-1 .4-1.612-.076-.612-.238-1-.863-1.612z"/><path id="path230" fill="#0055A5" d="M75.129 550.648l.012.025.025.038.025.038.025.037.025.037.025.05.025.05.025.05.038.05.025.05.025.062.037.05.025.062.025.063.05.125.025.075.025.063.025.063.025.062.012.075.025.062.013.063.012.062.013.075.012.063v.236l-.012.063-.013.05c-.15.563-.75 1.35-.95 1.7 0 0-.475-.975-.575-1.425-.099-.449-.011-1.174.951-2.074z"/><path id="path232" fill="#0055A5" d="M87.154 526.673v-.013l-.013-.013v-.012l-.012-.013-.013-.012-.012-.013h-.025l-.025-.013-.025-.013-.025-.013h-.025l-.038-.013-.025-.013-.037-.013h-.037l-.05-.013h-.038l-.05-.012-.037-.013h-.05l-.05-.013h-.1l-.062-.013h-.113l-.05-.013h-.312c-.675 0-1.225.1-1.225.225s.55.212 1.225.212c.674.006 1.224-.081 1.224-.206z"/><path id="path234" fill="#0055A5" d="M78.804 522.911l.012-.05.013-.063.013-.063.012-.063.025-.062.025-.063.025-.075.025-.075.025-.075.025-.075.062-.15.062-.162.063-.163.062-.15.063-.163.025-.075.037-.075.025-.075.013-.075.025-.063.025-.075.012-.063.012-.063.013-.063.012-.062v-.1a.726.726 0 00-1.45 0c0 .512.637 1.687.712 2.237h.027z"/><path id="path236" fill="#0055A5" d="M80.829 524.086l.062-.15.063-.137.05-.125.063-.137.05-.125.05-.137.05-.125.05-.113.05-.125.038-.113.05-.113.037-.112.05-.113.038-.1.037-.1.038-.1.025-.1.038-.087.025-.088.025-.088.025-.075.025-.075.025-.075.012-.075.025-.063.013-.062.012-.063v-.05l.013-.05v-.125c0-.225-.275-.388-.513-.463-.275-.075-.488-.1-.663.025-.325.262-.625 2.287-.75 3.138.325.063.525.113.887.301z"/><path id="path238" fill="#0055A5" d="M79.679 523.76l-.038-.013h-.087l-.063-.013h-.187l-.062-.013h-.05c.1-.812.375-2.15.538-2.687.175-.538.375-.912.725-1.013 0 0-.262.738-.412 1.5a39.051 39.051 0 00-.364 2.239z"/><path id="path240" fill="#0055A5" d="M80.267 525.548h.013v.013h.012v.012h.013l.012.025.025.025.025.013.025.025.037.037.025.025.038.037.037.037.05.025.038.038.05.037.05.038.05.05.05.037.063.038.05.037.062.038.05.038.062.037.063.038.062.038.063.025.062.038.062.025.075.025.063.025.062.025.062.013c.001-.002-.286-.752-1.411-.914z"/><path id="path242" fill="#0055A5" d="M79.692 525.198h.075l.05-.013h.15l.05.013h.124l.063.013h.062l.063.013.062.013h.075l.062.013.075.012.063.025.075.013.075.013.063.025.075.025.075.013.063.025.075.025.075.025.062.037.062.025.075.038.063.037.062.025.05.05.062.037c.613.425.813.787 1.025 1.175 0 0-1.1.087-2.062-.475-.462-.277-.862-.902-.949-1.202z"/><path id="path246" fill="#0055A5" d="M80.864 526.908s.125.456.687.719c0 0-.306.019-.594.281 0 0 .187.362.687.562 0 0-.919.938-1.906.875 0 0 .456.588 1.469.375 1.013-.225 1.313-.788 1.5-1 0 0-.125.537-.063.75 0 0 .431-.031.781-.469 0 0-.262.437-.313.812 0 0 .281.006.781-.281 0 0-.112.269-.125.594 0 0 1.175-.381 1.75-.906v.404l-.031.031v.124s1.8-.163 1.937-2.813c0 0-1.181.437-2.406.375-1.198-.058-3.442-.096-4.154-.433zm3.406 1c.95.125 2.094.063 2.094.063v.062h-.031v.063l-.031.063v.063l-.031.031v.062l-.031.031v.062h-.031v.031l-.031.031v.031l-.031.031-.031.031v.031h-.031l-.031.031v.031h-.034l-.031.031v.031h-.031l-.031.031-.031.031c-.062-.775-1.625-.781-1.625-.781v-.091z"/><path id="path248" fill="#0055A5" d="M87.729 527.148l-.013.113-.012.1-.013.113-.012.1-.025.112-.013.1-.025.1-.025.1-.025.1-.025.1-.037.087-.025.088-.037.088-.025.088-.038.075-.037.075s.712-.525.887-.987c.175-.464.213-.765-.5-.552z"/><path id="path252" fill="#0055A5" d="M89.239 527.658l-.063.031h-.062l-.063.031h-.062c-.262.8-1.156 1.063-1.594 1.25-.463.225-.906.75-.906.75.725.163 1.063.344 1.063.344 1.387-.962 2.531.031 2.531.031.75-.438.906-1.463.531-2l-.062-.063-.031-.062-.031-.031-.063-.031-.031-.031-.062-.031-.031-.031-.062-.031-.062-.031-.031-.031h-.062l-.062-.031h-.063l-.031-.031h-.691zm-.094 1.062h.093v.031h.062v.031h.031l.031.031v.031h.031v.031h.031v.124l.031.031c0 .163-.15.313-.313.313-.162 0-.281-.15-.281-.313.003-.16.122-.31.284-.31z"/><path id="path254" fill="#0055A5" d="M86.354 529.898h-.013v.013h-.012v.012l-.013.013-.012.025-.025.013-.012.025-.025.038-.025.025-.013.025-.037.037-.025.038-.025.025-.038.038-.025.037-.037.05-.025.037-.075.075-.075.075-.062.088-.038.038-.037.037-.038.038-.037.037-.037.025-.038.038-.037.025-.038.037s1.863-.025 2.338 1.6c0 0 .638-1 .175-1.638-.501-.689-.976-.788-1.639-.926z"/><path id="path256" fill="#0055A5" d="M84.304 530.285h-.012v.013h-.038v.013h-.05l-.012.013-.025.013h-.038l-.025.012-.025.013h-.038l-.025.013-.037.013-.063.012-.075.025-.062.012-.037.013-.025.013-.038.013h-.025l-.037.013-.025.013h-.025l-.025.013h-.025l-.013.013s-.012-.35.013-.512c-.187.037-.413.1-.613.125 0 0-.587 1.325-1.062 1.862 0 0-.025.313.237.75 0 0 .338-.775.95-1.425.338-.355.563-.543 1.275-1.043z"/><path id="path258" fill="#0055A5" d="M85.892 530.01h-.025l-.025.013h-.025l-.037.013-.038.012-.037.013-.038.013-.05.012-.05.025-.05.012-.05.013-.05.025-.063.013-.05.025-.063.025-.062.025-.125.05-.125.05-.112.05-.125.05-.062.038-.05.025-.063.025-.05.037-.05.025-.05.025-.05.037-.038.025c-.587.425-.988.9-.937 1.737 0 0 .475-.662 1-.962.412-.226 1.162-.876 1.55-1.451z"/><path id="path260" fill="#0055A5" d="M85.879 523.935h-.038l-.012.013h-.063l-.025.013h-.037l-.025.013h-.025l-.012.013h-.025l-.025.013-.025.013-.013.012-.025.013-.012.013-.025.013-.013.013-.025.013-.012.013-.013.013-.012.025-.013.013-.012.025-.013.012v.026l-.012.012v.039l-.013.013v.039c0 .287.45.975.575 1.275.125-.3.562-.987.562-1.275 0-.288-.338-.375-.525-.375h-.087z"/><path id="path262" fill="#0055A5" d="M86.267 526.173l.012-.05v-.037l.012-.05.013-.05v-.05l.012-.05.013-.063.012-.05.013-.063.012-.062.025-.125.025-.125.025-.138.038-.125.012-.062.025-.063.013-.05.012-.063.025-.05.013-.05.025-.05.025-.05.013-.05.025-.037.025-.038.012-.038.025-.025.025-.025c.237-.213.588-.238.763-.225.175.013.35.188.287.425-.075.237-.85 1.4-.95 1.537-.175-.023-.15-.023-.587-.048z"/><path id="path264" fill="#0055A5" d="M85.579 526.173v-.05l-.012-.037-.013-.05-.012-.05v-.05l-.013-.05-.012-.063-.013-.05-.012-.063-.013-.062-.025-.125-.025-.125-.037-.138-.025-.125-.025-.062-.012-.063-.013-.05-.025-.063-.012-.05-.025-.05-.013-.05-.025-.05-.025-.05-.012-.037-.025-.038-.025-.038-.013-.025-.025-.025c-.237-.213-.575-.238-.762-.225a.325.325 0 00-.275.425c.062.237.837 1.4.95 1.537.174-.023.137-.023.574-.048z"/><path id="polygon266" fill="#0055A5" d="M85.092 522.536h.587v-.663h.5v.663h.6v.425h-.6v.774h-.5v-.774h-.587z"/><path id="polygon268" fill="#0055A5" d="M77.854 518.598h.613v-.662h.475v.662h.612v.425h-.612v.775h-.475v-.775h-.613z"/><path id="path270" fill="#0055A5" d="M92.379 526.823v-.087l-.012-.05v-.15l-.013-.013v-.075c-.05-.325-.062-.612-.025-.837.438.163.738.275 1.325 1.237 0 0-.95-.588-1.275-.025z"/><path id="path272" fill="#0055A5" d="M91.554 528.36l-.012-.025v-.088l-.012-.038v-.037l-.013-.037v-.05l-.012-.037v-.05l-.013-.038-.012-.05-.013-.05-.012-.05-.013-.063-.012-.05-.025-.1-.025-.113-.025-.113-.038-.112-.025-.113-.037-.113-.037-.112-.013-.05-.025-.05c-.237-.65-.1-1.6.187-2.162.287-.562.45-1.088.388-1.663 0 0 .575.188.887.388.05.675-.338 1.338-.512 1.713-.225.45-.188 1.025-.125 1.387a2.772 2.772 0 01-.451 1.876z"/><path id="path274" fill="#0055A5" d="M91.492 523.248v-.255l-.012-.013v-.063l-.013-.013v-.025s-.9-.862-1.638-1.013a.977.977 0 00-.887.225s.25-.025.65.3c.4.313.887.713 1.263.813.374.094.449.069.637.044z"/><path id="path276" fill="#0055A5" d="M88.854 522.173l-.063.063-.062.063-.05.062-.062.063-.05.063-.05.063-.025.025-.025.037-.025.025-.013.037-.025.038-.025.025-.013.038-.012.025-.025.025-.013.038-.012.025-.013.037-.012.025v.037l-.013.025-.012.038v.113c0 .313.375 1.112.562 1.412.188.3.488.7.45 1.175-.025.25-.187.5-.388.7 0 0 1.088-.262 1.212-.925.125-.6-.137-1.025-.313-1.362-.162-.313-.662-1.038-.787-1.338-.111-.277-.173-.502-.136-.652z"/><path id="path278" fill="#0055A5" d="M82.517 529.723l-.05.137-.05.15-.038.137-.062.138-.05.137-.05.138-.062.138-.063.125-.062.125-.063.137-.062.125-.075.113-.062.125-.063.113-.075.112-.062.1c-.338.512-.55 1.363-.5 1.65 0 0-.5-1.088-.25-1.85.199-.6.724-1.475 1.699-1.85z"/><path id="path280" fill="#0055A5" d="M81.292 529.973h-.088l-.025.013h-.137l-.038.013h-.087l-.037.013h-.05l-.038.013h-.05l-.037.013-.05.012-.05.013-.037.013h-.05l-.05.025-.038.013-.037.012-.05.013-.037.025-.038.013-.037.025-.038.013c-.438.3-.875.938-1.025 1.713 0 0 .75-.125 1.125-.5.361-.368.824-.93.999-1.455z"/><path id="path282" fill="#0055A5" d="M85.154 531.323h.087l.013.012h.037l.025.013h.05l.025.013h.025l.025.012.05.013h.05l.05.013.05.013.05.013.025.013h.025l.025.013h.025l.013.013h.037l.025.013s-.637.187-.963.438c-.262.225-.5.575-.6 1.15-.162.812-.637 1.687-.787 1.95l-.05-.012c.087-.563-.262-1.713-.35-1.875 0 0 .5-.325.737-.65.164-.243.464-.643 1.301-1.155z"/><path id="path284" fill="#0055A5" d="M81.854 533.06l-.025.038-.012.038-.025.05-.025.05-.025.038-.025.05-.025.063-.025.05-.025.05-.025.063-.05.113-.05.113-.025.062-.025.063-.025.075-.012.063-.025.063-.013.062-.012.075-.013.063-.012.075-.013.075v.35l.013.075.025.075.012.075c.237.787.75 1.125 1.075 1.787 0 0 .25-1.2.187-2.125-.05-.941-.387-1.291-.8-1.629z"/><path id="path286" fill="#0055A5" d="M78.804 535.248v-.038l.012-.05.025-.05.012-.063.037-.05.025-.063.038-.063.037-.063.038-.075.037-.062.05-.075.05-.075.05-.075.037-.075.1-.15.1-.15.05-.075.05-.088.037-.075.05-.075.038-.075.037-.075.037-.075.025-.062.025-.075.025-.063.013-.075.012-.062v-.113c-.062-.6-.85-1.025-1.05-1.113h-.012c-.2.088-1 .513-1.05 1.113s1.013 1.712 1.038 2.162h.027z"/><path id="path288" fill="#0055A5" d="M80.417 533.085l-.012.013v.026l-.013.013-.013.012v.013l-.012.012-.012.025-.013.025-.012.037-.025.05-.038.063-.025.063-.037.062-.025.075-.038.063-.037.075-.038.087-.037.075-.037.075-.038.088-.075.175-.075.163-.037.087-.025.075-.037.075-.025.088-.038.075-.025.063-.025.075-.012.063-.025.063-.013.05c-.125.563-.012.925.238 1.262.262.338.687.713 1.075 1.413 0 0 .462-.6.512-.912.05-.325-.025-1.075-.137-1.388-.089-.316-.477-1.341-.814-2.379z"/><path id="path290" fill="#0055A5" d="M78.804 538.648l.062-.063.063-.063.062-.062.05-.063.063-.063.05-.063.062-.063.05-.075.037-.062.05-.063.013-.037.025-.025.025-.038.012-.025.012-.037.025-.025.012-.025.012-.038.013-.025.012-.025.013-.025.012-.025c.088-.263.113-.638-.112-.925-.262-.338-.6-.725-.625-1.037h-.025c-.012.313-.35.7-.625 1.037-.225.287-.2.662-.1.925.1.25.4.688.738.987h.014z"/><path id="path292" fill="#0055A5" d="M80.042 537.673l.012.013.012.012.013.013.013.013.012.025.025.025.025.037.037.038.038.05.037.038.038.05.05.05.037.063.05.05.05.062.037.05.1.125.088.112.05.063.05.063.038.063.037.05.05.062.038.05.037.05.025.05.037.05.025.05.025.037.025.037.013.025v.013l.012.013v.013c.125.313.313.875.05 1.275-.262.4-.887 1.038-1.425 1.313 0 0 .588-.912.525-1.663-.038-.487-.4-.912-.475-1.2-.074-.29-.024-.79.189-1.24z"/><path id="path294" fill="#0055A5" d="M81.729 537.098l-.012.013-.013.025-.012.013-.013.025-.012.025-.025.025-.013.025-.012.025-.012.038-.013.025-.025.038-.012.025-.013.038-.012.025-.038.075-.025.075-.025.075-.025.075-.025.075-.025.075-.012.05v.038l-.013.037v.038l-.012.05v.038c-.025.425.05.775.287 1.412.287.787.737 1.675.963 2.075 0 0 .4-.587.625-1.1 0 0-.638-.875-.912-1.487-.314-.729-.439-1.404-.564-1.966z"/><path id="path296" fill="#0055A5" d="M82.029 536.748v.025l.012.038v.038l.013.05.012.05.013.075.012.075.013.088.025.087.025.1.025.113.025.112.037.113.037.125.038.137.037.125.05.137.05.15.05.137.062.15.063.15.062.15.075.15.075.15.075.15.087.15.088.162.1.15.1.137.1.15.112.15c.813 1.025 1.475 1.388 1.913 1.388.662 0 1.325-.563 1.55-1.188.213-.625.15-1.612-.275-1.95 0 0-.4 1.225-1.25 1.275-.948.051-2.186-1.024-3.411-3.099z"/><path id="path298" fill="#0055A5" d="M83.017 535.898l-.013.038-.012.037v.038l-.013.037-.012.038v.038l-.013.088-.012.087-.013.088v.476l.013.1.012.1.013.1.025.1.025.1c.1.4.338.925.812 1.225.4.25 1.362.313 1.725-.6 0-.003-1.75.135-2.537-2.09z"/><path id="path300" fill="#0055A5" d="M78.792 541.973l.05-.025.037-.025.05-.013.037-.025.05-.025.038-.025.025-.013.025-.025.025-.013.013-.013.025-.025.025-.013.025-.025.025-.013.025-.025.025-.025.012-.025.025-.025.025-.025.025-.037.025-.025.025-.038.025-.025.025-.037.025-.038.037-.05c.212-.337.425-.962.312-1.412-.15-.55-.462-.775-.637-1.125-.137.137-.225.237-.413.35h-.012c-.175-.112-.275-.212-.425-.35-.187.35-.475.575-.625 1.125-.112.45.088 1.075.313 1.412.275.453.488.528.738.653z"/><path id="path302" fill="#0055A5" d="M78.792 545.41l.012-.05.025-.05.025-.063.025-.063.037-.063.038-.063.037-.062.05-.063.05-.075.05-.075.05-.063.05-.075.1-.15.112-.15.1-.15.05-.075.05-.075.05-.075.037-.063.038-.075.037-.075.037-.062.025-.075.025-.063.025-.063.013-.062v-.163c-.162-.862-.713-.688-1.138-1.038h-.012c-.425.35-.988.175-1.138 1.038-.11.554 1.015 1.604 1.14 2.141z"/><path id="path304" fill="#0055A5" d="M80.142 544.148l-.012.05-.037.063-.025.063-.037.062-.037.063-.038.063-.037.063-.038.063-.087.125-.1.125-.087.125-.1.125-.087.125-.038.05-.05.062-.037.063-.038.063-.037.05-.025.062-.037.05-.025.063-.025.05-.013.05-.012.05-.013.05-.012.05v.038c.025 1.275.575 2.05.7 2.475 0 0 1.025-.812 1.2-1.737.096-.479-.016-1.904-.816-2.604z"/><path id="path306" fill="#0055A5" d="M81.292 545.048l-.013-.037-.012-.038-.013-.037-.025-.038-.012-.05-.025-.037-.013-.05-.025-.05-.025-.05-.025-.062-.025-.05-.025-.05-.05-.113-.062-.112-.062-.125-.063-.113-.037-.05-.038-.05-.037-.05-.037-.05-.038-.05-.037-.05-.038-.05-.037-.038-.038-.038-.037-.037-.037-.038-.05-.038s-.55-1.625 1.225-2.625c0 0 .737.963.938 1.888.198.913-.777 1.463-1.227 2.288z"/><path id="path308" fill="#0055A5" d="M83.517 540.923l.05.075.062.063.063.075.062.075.062.062.063.075.062.075.063.063.075.063.062.075.025.025.037.025.038.038.025.025.037.025.025.025.038.025.025.013.037.025.025.025.037.012.025.013s.113.725.05 1.212c-.087.713-.562 1.45-.75 2 0 0-.787-1.025-.862-1.625-.1-.6-.087-1.087-.112-1.375.001-.002.438-.702.676-1.189z"/><path id="path310" fill="#0055A5" d="M85.567 544.423l.025-.037.025-.038.025-.05.037-.038.025-.063.037-.05.038-.063.025-.062.037-.075.038-.063.037-.075.05-.088.037-.075.038-.088.037-.075.038-.087.075-.175.075-.187.062-.188.037-.087.025-.088.025-.1.025-.088.025-.087.013-.1.012-.088.013-.087v-.176s-.875.475-1.6.125c0 0-.1 1.175.038 1.563.113.327.276.515.626.79z"/><path id="path312" fill="#0055A5" d="M85.367 544.673l-.013-.013-.012-.012-.025-.025-.012-.013-.025-.013-.013-.013-.025-.025-.012-.013-.025-.025-.025-.013-.013-.025-.025-.025-.05-.038-.05-.05-.037-.038-.05-.05-.037-.038-.025-.025-.025-.012-.013-.025-.025-.025-.025-.013-.012-.025-.013-.013-.025-.025-.012-.013-.013-.025s-.575 1.075-.675 1.388c0 0 .287.063.6-.162.324-.221.399-.284.712-.596z"/><path id="path314" fill="#0055A5" d="M82.667 544.035l.013.013v.013l.012.025v.013l.013.025.012.013v.025l.013.025.025.05.037.05.025.062.038.05.037.063.05.075.037.063.05.075.05.063.038.075.1.138.1.15.05.063.05.075.05.062.037.063.05.063.038.063.05.05.037.05.038.05.025.037.012.013.025.025.013.013.012.013.012.013v.013l.013.013.012.012s-.075.475-.412 1.15a5.18 5.18 0 01-1.1 1.4s-.575-1.013-.75-1.45c-.2-.512-.188-1.025-.088-1.213.188-.444.863-1.081 1.176-1.644z"/><path id="path316" fill="#0055A5" d="M78.804 551.798l.012-.038.013-.037.013-.037.012-.038.025-.025.012-.037.025-.038.025-.038.025-.037.025-.038.038-.05.025-.038.062-.075.062-.088.063-.087.075-.087.062-.1.062-.1.038-.05.025-.05.037-.05.025-.05.025-.05.025-.062.025-.05.025-.062c.125-.362.125-.8-.025-1.1-.162-.338-.775-1.188-.85-1.425-.075.238-.675 1.088-.85 1.425-.15.3-.15.737-.013 1.1.225.625.763 1.05.85 1.412h.027z"/><path id="path318" fill="#0055A5" d="M81.242 547.461l-.013.05-.025.037-.025.05-.025.038-.025.05-.037.05-.025.038-.038.05-.037.05-.037.063-.063.1-.075.112-.075.1-.075.112-.063.112-.062.112-.038.063-.025.05-.025.062-.037.05-.012.05-.025.063-.025.05-.013.062-.012.05-.013.05c-.075.425 0 .775.1 1.075.125.287.5.862.75 1.3 0 0 .862-.812 1.05-1.387.137-.438.1-1.05-.112-1.45-.213-.388-.663-.8-.863-1.212z"/><path id="path320" fill="#0055A5" d="M83.692 547.348l-.025.05-.025.05-.025.037-.025.05-.025.05-.025.038-.062.087-.063.1-.075.088-.062.088-.075.087-.062.087-.063.088-.062.087-.025.037-.025.05-.025.038-.025.05-.025.037-.025.037-.012.05-.013.038-.025.038-.012.05c-.138.488-.175.812.062 1.4.212.512.475.812.563 1.125 0 0 .7-.9.812-1.275.125-.388.162-1 .012-1.387-.138-.4-.388-.913-.563-1.275z"/><path id="path322" fill="#0055A5" d="M78.792 558.735l.012-.05.012-.05.013-.05.025-.062.025-.062.025-.063.025-.075.037-.087.038-.075.037-.088.038-.087.037-.1.05-.1.037-.1.05-.1.038-.112.05-.1.05-.112.037-.125.038-.112.05-.125.038-.125.037-.125.038-.125.037-.125.025-.125.025-.138.025-.125.025-.138.013-.137.012-.125v-.137c.037-.725-.625-1.875-.988-2.3h-.025c-.363.425-1 1.575-.988 2.3.052 1.435.964 2.81 1.002 3.26z"/><path id="path324" fill="#0055A5" d="M80.254 550.798v.012h.012v.012l.013.013.012.013.013.012.012.012.013.025.012.013.025.025.012.025.013.025.05.05.037.063.05.063.05.062.05.075.05.075.062.075.05.088.05.087.063.087.05.088.062.087.05.1.05.087.05.088.037.1.05.087.038.087.037.1.025.088.025.087.025.075.012.087v.15c-.025.963-.662 1.588-.762 2.188 0 0-.625-.712-.862-1.187-.275-.55-.488-1-.4-1.612.064-.612.227-1 .864-1.612z"/><path id="path326" fill="#0055A5" d="M82.467 550.648l-.025.025-.013.038-.025.038-.025.037-.025.037-.025.05-.025.05-.037.05-.025.05-.025.05-.025.062-.037.05-.025.062-.025.063-.063.125-.025.075-.025.063-.025.063-.012.062-.025.075-.012.062-.025.063-.013.062-.012.075v.063l-.013.062v.112l.013.062v.063l.025.05c.137.563.737 1.35.937 1.7 0 0 .475-.975.587-1.425.1-.449.012-1.174-.95-2.074z"/><path id="path328" fill="#0055A5" d="M79.617 561.06l.013-.1.012-.1.013-.1.012-.1.025-.1.013-.088.025-.087.025-.088.038-.088.025-.087.025-.075.037-.087.038-.075.025-.075.075-.15.062-.138.075-.137.062-.125.063-.125.025-.063.025-.063.025-.062.025-.062.025-.05.012-.062.012-.05.013-.05c.125-.65.087-1.263-.425-2.013-.4 1.388-.85 2.4-1.188 3.1-.013.025-.025.037-.037.062 0-.025-.013-.038-.025-.062-.35-.7-.8-1.713-1.2-3.1-.5.75-.55 1.362-.425 2.013.113.575.75 1.262.825 2.387.075 1.138-1.2 1.563-1.2 1.563.438.15.925.225 1.7-.512.137-.138.25-.275.325-.438.087.162.2.3.325.438.787.737 1.275.662 1.7.512 0 0-1.263-.425-1.2-1.563z"/><path id="path330" fill="#0055A5" d="M75.604 553.548l.013.037.025.05.012.038.013.05.025.05.025.05.012.05.025.05.037.1.05.1.05.113.038.1.05.113.025.05.012.05.025.037.025.05.012.05.013.038.025.05.012.038.013.037.012.025.013.037.012.025v.038l.013.012c.1.45-.038 1-.85 1.575 0 0-.525-.375-.737-.862-.2-.45-.075-.775.125-1 .2-.251.688-.789.875-1.151z"/><path id="path332" fill="#0055A5" d="M77.329 555.223v.088l-.012.05v.088l-.013.062v.05l-.012.062-.012.063-.013.075-.012.075-.013.075-.012.075-.013.075-.012.075-.038.162-.037.162-.05.175-.025.075-.013.075-.037.087-.025.075-.025.075-.025.075-.037.075-.025.062-.038.063-.025.062c-.512.888-1.262 1.563-1.925 1.563-.6 0-.725-.362-1.037-.512 0 0 .15-.775.837-.975.837-.262 2.124-1.262 2.649-2.212z"/><path id="path334" fill="#0055A5" d="M75.142 556.848l-.025-.025-.025-.012-.05-.038-.025-.025-.025-.013-.038-.025-.025-.012-.025-.025-.025-.025-.012-.012-.013-.013-.012-.013-.013-.012-.025-.012-.013-.013-.012-.013-.013-.012-.012-.025-.025-.013-.013-.012-.012-.025s-.638.237-1.188.6c-.525.363-1.05.975-1.325 1.288 0 0 .787.2 1.3-.025 0 0 .187-.762.75-1.1.138-.076.526-.201.901-.388z"/><path id="path336" fill="#0055A5" d="M74.467 556.198l-.013-.012-.012-.025-.013-.013-.012-.025-.013-.025-.012-.025-.013-.025-.012-.025-.013-.025-.025-.025-.012-.038-.013-.025-.012-.025-.013-.037-.012-.037-.013-.025-.025-.037-.012-.038v-.038l-.013-.037-.012-.037-.012-.038-.013-.05v-.037l-.012-.037v-.1l-.013-.038v-.1l.013-.05v-.05s-1.125.713-1.463.975c-.338.275-1.037 1-1.2 1.238 0 0 .85-.188 1.512-.4.713-.239 1.2-.564 1.463-.714z"/><path id="path338" fill="#0055A5" d="M72.567 557.41l-.05.025-.063.012-.075.025-.062.025-.075.013-.075.025-.087.012-.075.025-.087.025-.088.013-.175.037-.175.05-.187.038-.175.037-.187.037-.175.038-.075.012-.087.025-.075.012-.087.025-.075.013-.063.012-.075.025-.062.013-.062.013-.05.025c-.575.175-.988.45-1.525 1.05 0 0 .825.225 1.275.375 0 0 .712-.488 1.487-.775.51-.199.747-.737 1.285-1.262z"/><path id="path340" fill="#0055A5" d="M71.304 561.423l.025-.025.025-.025.025-.037.025-.025.013-.013.012-.025.012-.013.013-.013v-.025l.012-.013.013-.025.012-.012v-.025l.013-.012v-.05l.012-.012v-.15l-.012-.025v-.025l-.013-.038v-.025l-.012-.038c-.088-.237-.588-.513-.887-.65-.488-.237-1.837-.6-2.275-.737 0 0-.225.262-.337.538-.063.112.012.212.2.237.388.075 1.288-.1 1.512.05.237.15.15.362.15.563 0 0 .413-.25.675-.187.362.074.587.249.787.837z"/><path id="path342" fill="#0055A5" d="M70.104 559.548h.025l.012.013h.013l.025.012h.025l.025.012.025.013h.025l.025.013.037.012.025.012.038.013.037.013.038.012.037.025.037.013.038.012.05.025.037.013.05.025.037.025.05.013.05.025.038.025.05.025.05.025.05.025.037.025.05.037.05.025.05.025s.225-.087.338-.3c.112-.2.575-.888 1-.975 0 0-.363-.025-.575-.1 0 0-.425.112-.75.25-.311.112-.699.312-1.149.612z"/><path id="path344" fill="#0055A5" d="M73.592 558.685h-.013l-.025.012-.013.013h-.025l-.012.013h-.025l-.013.012h-.025l-.012.012h-.038l-.012.013h-.038l-.012.013h-.063l-.025.012h-.075l-.025.012h-.088s-1.187.825-1.325 1.638c-.125.712.25 1.05.425 1.138.187.1 1.013.425 1.55-.675 0 0-.912.3-1.175-.137-.237-.45.162-1.1.413-1.275.338-.25.925-.425 1.287-.35a3.3 3.3 0 00-.636-.451z"/><path id="path346" fill="#0055A5" d="M65.804 568.123l.05-.225.062-.225.063-.237.025-.112.037-.112.037-.113.038-.125.038-.112.037-.112.05-.112.037-.113.05-.113.05-.112c.537-1.138 1.863-4.175 4.612-4.7.25-.062-.3-.7-.55-.663-.25.025-.737.35-.95.488 0 0 0-.65-.013-.762 0-.112-.1-.162-.212-.162-.1.012-.775 0-.975.25-.638.725-1.688 2.675-2.288 4.125-.6 1.45-1.013 1.9-1.65 1.675-.625-.225-1-.95-2.112-.725-.375.075-.8.338-1.138.713.1.175.212.4.725.4.512 0 1.512.212 2.05.588.553.383 1.127.521 1.927.596z"/><path id="path348" fill="#0055A5" d="M76.779 558.723l.013.087.012.087.025.088.025.087.025.087.038.088.025.075.037.088.037.088.038.087.037.088.05.075.038.087.05.088.037.087.05.087s-.825 3.862-3.862 4.15c0 0 .062-.8.95-1.4.9-.613 2.25-1.563 2.15-3 0 0-.25.05-.675.588-.425.538-1.375 2.1-2.825 2.112 0 0 .212-.737.862-1.15.638-.425 1.463-.962 1.838-1.612.375-.637.763-.937 1.025-1.062z"/><path id="path350" fill="#0055A5" d="M75.342 572.798l1.85 2.587 1.4-2.487-.5-.9c-.363.662-.763 1.363-.975 1.763-.162-.25-.625-.9-1.237-1.763l-.538.8z"/><path id="polygon352" fill="#0055A5" d="M74.879 570.61l-.337-.475-.35-.487-.35-.488-.35-.487-.35-.488-.338-.475-.162-.225-.163-.225-.162-.225-.15-.212-.15-.213-.138-.2-.137-.2-.138-.187-.125-.175-.125-.163-.112-.162-.1-.138-.1-.137-.088-.125-.075-.113-.062-.1-.063-.075-.05-.075-.037-.05-.025-.037.7-.5-2.2-.838.037 2.388.75-.538 4.425 6.225z"/><path id="path354" fill="#0055A5" d="M59.729 556.498l.05-.05.062-.05.05-.037.063-.037.062-.025.062-.025.062-.013.063-.013.063-.012h.075l.063.012h.075l.075.025.075.012.075.025.075.025.075.038.088.037.075.038.088.038.075.05.088.05.087.062.075.05.088.062.087.062.087.075.088.062.087.075.075.075.087.075.087.075c.925.85 1.512 1.725.975 2.325-.5.538-1.475.075-2.388-.775-.936-.849-1.511-1.724-.974-2.311z"/><path id="path356" fill="#0055A5" d="M61.229 566.998l-.012-.012-.012-.013-.013-.012h-.013v-.012h-.012v-.013h-.012v-.013h-.013c-.488-.437-.775-1.1-.775-1.825 0-1.4 1.137-2.537 2.525-2.537a2.54 2.54 0 012.538 2.537c0 .188-.038.488-.038.488a39.82 39.82 0 00.613-1.35 3.226 3.226 0 00-3.113-2.363c-1.275 0-2.362.738-2.9 1.813.2-1.275.837-2.425 1.287-2.85.538-.512 1.462-.675 1.462-.675-.612.088-1.387-.275-2.288-1.087-.837-.775-1.262-1.45-1.3-2.012.05.8.037 1.237-.187 1.9-.313.875-1.15 2.5-.85 4.338.162 1.013.887 2.513 2.125 3.737.25.275.35.688.388.9 0 0 1.8 0 2.238.037 0 0 .425-.037.4-.313 0-.263-.237-.325-.437-.325-.226-.001-1.126.012-1.601-.338z"/><path id="path358" fill="#0055A5" d="M71.204 567.61l-.212.075-.225.075-.212.063-.212.063-.225.062-.213.062-.212.05-.212.05-.225.05-.212.038-.212.037-.212.037-.413.075-.425.063c-.7.112-1.4.15-2.075.125a.62.62 0 01-.05.362s.125.15.125.338c.688.013 1.4-.013 2.112-.137 1.2-.188 2.463-.425 3.725-.9l-.415-.588z"/><path id="path360" fill="#0055A5" d="M73.104 567.523l.287-.163.287-.175.287-.187.287-.2.275-.212.287-.225.275-.237.287-.25.275-.262.262-.287.275-.287.262-.313.275-.338.262-.338.25-.363.137-.187.125-.2.237-.4c-.363.162-.837.05-.837.05-.025.037-.087.137-.125.175-1.25 1.863-2.65 3.05-4.088 3.825l.418.574z"/><path id="path362" fill="#0055A5" d="M62.954 568.173h-.125l-.038-.012h-.412l-.087.012h-.1l-.088.013h-.1l-.087.013h-.087l-.05.012h-.038l-.038.012h-.037c-.45.062-.95.162-1.013.4-.037.237.112.487.338.837.15.212.475.1.65.025.188-.075 1.238-.625 1.4-.812.162-.175.225-.438-.088-.5z"/><path id="path364" fill="#0055A5" d="M64.017 568.873l-.013-.012-.013-.013h-.012l-.012-.012h-.013l-.013-.012-.012-.013h-.025l-.013-.013h-.025l-.013-.012h-.025l-.012-.012h-.05l-.012-.013h-.05l-.025-.013h-.175l-.025.013h-.025l-.025.013h-.025l-.025.012h-.025c-.287.112-1.312.725-1.387 1-.063.288.075.438.237.5.162.062.35.125.5.137.25.013.5-.137.638-.3.125-.162.6-.737.675-.875.062-.113.112-.313 0-.375z"/><path id="path366" fill="#0055A5" d="M64.142 569.498l-.012.013-.012.025-.025.013-.012.025-.025.025-.025.025-.012.025-.025.025-.025.025-.025.037-.025.025-.025.025-.037.062-.05.063-.025.025-.025.038-.025.025-.025.025-.013.025-.025.025-.025.025-.013.025-.025.025-.013.025-.013.013-.012.025-.012.013v.013h-.013v.012l-.013.012c-.05.075.025.212.15.188.138-.013.837-.088 1.25-.362.4-.275.675-.8.4-1-.288-.203-.713-.103-1.188.41z"/><path id="path368" fill="#0055A5" d="M64.367 567.96h-.025l-.025-.012h-.038l-.025-.013h-.025l-.025-.012h-.05l-.037-.013h-.025l-.025-.012h-.1l-.025-.012h-.174l-.025.012h-.025l-.025.012h-.025v.013h-.025l-.013.012-.012.013h-.012v.012h-.013v.012c-.15.225-.05.45.375.65.413.2 1.187.363 1.337.15.149-.212-.051-.574-.938-.812z"/><path id="path370" fill="#0055A5" d="M81.979 553.548l-.013.037-.025.05-.012.038-.012.05-.025.05-.013.05-.025.05-.025.05-.037.1-.05.1-.038.113-.05.1-.05.113-.025.05-.013.05-.025.037-.025.05-.012.05-.025.038-.013.05-.012.038-.013.037-.012.025-.013.037-.012.025-.013.038v.012c-.087.45.038 1 .85 1.575 0 0 .538-.375.737-.862.2-.45.075-.775-.112-1-.212-.251-.687-.789-.887-1.151z"/><path id="path372" fill="#0055A5" d="M80.254 555.223l.012.025v.151l.013.05v.062l.012.05.013.062v.063l.012.075.013.075.012.075.013.075.025.075.013.075.037.162.038.162.037.175.025.075.025.075.025.087.025.075.038.075.025.075.025.075.038.062.037.063.025.062c.513.888 1.25 1.563 1.925 1.563.6 0 .738-.362 1.025-.512 0 0-.15-.775-.838-.975-.837-.262-2.125-1.262-2.65-2.212z"/><path id="path374" fill="#0055A5" d="M82.442 556.848l.037-.025.025-.012.05-.038.025-.025.025-.013.025-.025.025-.012.025-.025.025-.025.012-.012.013-.013.012-.013.025-.012.013-.012.012-.013.013-.013.012-.012.013-.025.025-.013.012-.012.012-.025s.65.237 1.188.6c.525.363 1.05.975 1.337 1.288 0 0-.8.2-1.312-.025 0 0-.187-.762-.75-1.1-.124-.076-.524-.201-.899-.388z"/><path id="path376" fill="#0055A5" d="M83.117 556.198l.012-.012.013-.025.012-.013.013-.025.012-.025.012-.025.013-.025.025-.025.012-.025.013-.025.012-.038.013-.025.025-.025.012-.037.013-.037.012-.025.013-.037.012-.038.013-.038.012-.037.013-.037.012-.038v-.05l.013-.037v-.037l.012-.05v-.088l.013-.05v-.05l-.013-.05v-.05s1.125.713 1.462.975c.325.275 1.038 1 1.188 1.238 0 0-.85-.188-1.5-.4-.712-.239-1.212-.564-1.474-.714z"/><path id="path378" fill="#0055A5" d="M85.017 557.41l.062.025.062.012.063.025.075.025.075.013.075.025.075.012.088.025.075.025.088.013.175.037.187.05.175.038.188.037.175.037.175.038.087.012.088.025.075.012.075.025.075.013.075.012.063.025.062.013.062.013.063.025c.562.175.975.45 1.525 1.05 0 0-.838.225-1.275.375 0 0-.712-.488-1.5-.775-.513-.199-.751-.737-1.288-1.262z"/><path id="path380" fill="#0055A5" d="M86.279 561.423l-.025-.025-.025-.025-.025-.037-.025-.025-.012-.013-.013-.025-.012-.013-.013-.013v-.025l-.012-.013-.013-.025-.012-.012v-.025l-.013-.012v-.05l-.012-.012v-.15l.012-.025v-.025l.013-.038.012-.025v-.038c.1-.237.588-.513.887-.65.5-.237 1.85-.6 2.288-.737 0 0 .212.262.338.538.038.112-.025.212-.212.237-.375.075-1.288-.1-1.5.05-.237.15-.162.362-.162.563 0 0-.413-.25-.675-.187-.364.074-.576.249-.789.837z"/><path id="path382" fill="#0055A5" d="M87.492 559.548h-.024l-.013.013h-.025l-.012.012h-.025l-.025.012-.025.013h-.025l-.038.013-.025.012-.037.012-.025.013-.037.013-.038.012-.037.025-.05.013-.038.012-.037.025-.05.013-.037.025-.05.025-.038.013-.05.025-.05.025-.05.025-.037.025-.05.025-.05.025-.05.037-.05.025-.05.025s-.225-.087-.338-.3c-.112-.2-.575-.888-.987-.975 0 0 .35-.025.562-.1 0 0 .438.112.75.25.311.112.698.312 1.161.612z"/><path id="path384" fill="#0055A5" d="M84.004 558.685h.012l.013.012h.012l.013.013h.012l.013.013h.025l.012.012h.025l.012.012h.038l.012.013h.038l.025.013h.05l.025.012h.075l.025.012h.088s1.2.825 1.337 1.638c.112.712-.25 1.05-.438 1.138-.175.1-1 .425-1.55-.675 0 0 .912.3 1.175-.137.25-.45-.15-1.1-.413-1.275-.325-.25-.925-.425-1.275-.35.002-.001.289-.276.639-.451z"/><path id="path386" fill="#0055A5" d="M91.792 568.123l-.063-.225-.05-.225-.062-.237-.037-.112-.038-.112-.025-.113-.037-.125-.038-.112-.05-.112-.037-.112-.05-.113-.05-.113-.05-.112c-.525-1.138-1.85-4.175-4.6-4.7-.262-.062.288-.7.538-.663.25.025.737.35.963.488v-.762c.012-.112.112-.162.212-.162.112.012.775 0 .988.25.625.725 1.688 2.675 2.275 4.125.612 1.45 1.025 1.9 1.65 1.675.625-.225 1-.95 2.112-.725.388.075.812.338 1.138.713-.088.175-.2.4-.725.4-.513 0-1.5.212-2.05.588-.552.383-1.127.521-1.914.596z"/><path id="path388" fill="#0055A5" d="M80.817 558.723l-.025.087-.012.087-.025.088-.025.087-.025.087-.025.088-.037.075-.038.088-.025.088-.05.087-.037.088-.038.075-.05.087-.038.088-.1.175s.837 3.862 3.875 4.15c0 0-.062-.8-.963-1.4-.9-.613-2.238-1.563-2.137-3 0 0 .225.05.662.588.425.538 1.375 2.1 2.838 2.112 0 0-.212-.737-.862-1.15-.65-.425-1.462-.962-1.837-1.612-.376-.638-.776-.938-1.026-1.063z"/><path id="path390" fill="#0055A5" d="M78.804 562.473l.012.05.025.062.025.062.038.062.037.075.05.075.038.088.062.087.05.087.05.088.062.087.063.1.062.1.075.1.137.188.138.2.137.187.075.1.075.088.062.088.075.087.062.088.063.075.062.075.063.075.062.063.062.05.05.063.05.037c.488.462 1.713 1.688 2.375 2.3 0 0-1.862-.462-2.912-1.412 0 0-.738.425-1.275.425h-.037c-.538 0-1.287-.425-1.287-.425-1.038.95-2.9 1.412-2.9 1.412.65-.612 1.875-1.838 2.375-2.3.5-.45 1.65-2.075 1.825-2.587h.014z"/><path id="path392" fill="#0055A5" d="M78.804 566.76h.075l.037-.012h.113l.075-.013.075-.013.063-.025.075-.013.062-.025.075-.012.062-.025.05-.025.063-.012.025-.013.025-.013.025-.012.025-.012.025-.013h.025l.025-.013.025-.012c-.225.45-.637 1.188-1.025 1.475h-.012c-.4-.287-.813-1.025-1.038-1.475.225.1.612.263 1.025.263h.025z"/><path id="path394" fill="#0055A5" d="M80.392 575.385l7.275-10.2.738.537.05-2.388-2.2.838.687.5c-.35.513-5.787 8.125-6.475 9.087l-3.287-5.975-.413.612-2.925 4.438-.738-.488v2.35l2.225-.875-.75-.512c.413-.6 1.987-3 2.525-3.8l3.288 5.876z"/><path id="path396" fill="#0055A5" d="M81.729 571.373l-.187-.275-.1-.137-.087-.138-.087-.125-.088-.138-.087-.125-.075-.125-.087-.125-.075-.112-.038-.05-.037-.063-.025-.05-.037-.05-.038-.05-.025-.05-.037-.05-.025-.038-.025-.05-.038-.038-.025-.037-.025-.037a84.89 84.89 0 01-.963 1.75l-.525-.925 1.425-2.55.4.612 1.462 2.2-.551.776z"/><path id="path398" fill="#0055A5" d="M83.229 572.035l.513.8.737-.488.012 2.35-2.225-.875.737-.512c-.075-.112-.187-.288-.338-.513l.564-.762z"/><path id="path400" fill="#0055A5" d="M97.867 556.498l-.05-.05-.062-.05-.05-.037-.063-.037-.062-.025-.063-.025-.062-.013-.062-.013-.063-.012h-.075l-.062.012h-.075l-.075.025-.075.012-.075.025-.075.025-.088.038-.075.037-.075.038-.087.038-.075.05-.087.05-.088.062-.087.05-.075.062-.087.062-.088.075-.087.062-.087.075-.088.075-.087.075-.087.075c-.938.85-1.512 1.725-.963 2.325.5.538 1.45.075 2.387-.775.923-.849 1.51-1.724.973-2.311z"/><path id="path402" fill="#0055A5" d="M96.354 566.998l.012-.012h.013v-.013h.012v-.012h.013v-.012h.012l.013-.013h.012v-.013h.013c.487-.437.762-1.1.762-1.825a2.531 2.531 0 10-5.063 0c0 .188.037.488.037.488-.1-.212-.525-1.175-.612-1.35a3.222 3.222 0 013.1-2.363c1.288 0 2.388.738 2.913 1.813-.2-1.275-.837-2.425-1.287-2.85-.538-.512-1.45-.675-1.45-.675.6.088 1.387-.275 2.275-1.087.837-.775 1.275-1.45 1.3-2.012-.05.8-.025 1.237.2 1.9.313.875 1.138 2.5.85 4.338-.162 1.013-.9 2.513-2.125 3.737-.262.275-.363.688-.388.9 0 0-1.812 0-2.225.037 0 0-.438-.037-.425-.313 0-.263.25-.325.45-.325.225-.001 1.113.012 1.588-.338z"/><path id="path404" fill="#0055A5" d="M84.479 567.523l-.287-.163-.287-.175-.287-.187-.275-.2-.287-.212-.287-.225-.275-.237-.275-.25-.275-.262-.275-.287-.275-.287-.262-.313-.262-.338-.262-.338-.262-.363-.125-.187-.137-.2-.237-.4c.375.162.837.05.837.05.038.037.087.137.112.175 1.275 1.863 2.675 3.05 4.1 3.813l-.417.586z"/><path id="path406" fill="#0055A5" d="M86.379 567.61l.212.075.225.075.212.063.225.063.213.062.212.062.225.05.212.05.213.05.212.038.212.037.212.037.425.075.412.063c.713.112 1.413.15 2.075.125 0 .112 0 .25.05.362 0 0-.112.15-.112.338-.688.013-1.4-.013-2.125-.137-1.2-.188-2.463-.425-3.737-.9l.427-.588z"/><path id="path408" fill="#0055A5" d="M94.629 568.173h.138l.037-.012h.401l.1.012h.088l.1.013h.087l.1.013h.087l.038.012h.05l.037.012h.037c.438.062.938.162 1 .4.05.237-.112.487-.338.837-.137.212-.463.1-.65.025-.187-.075-1.225-.625-1.4-.812-.162-.175-.224-.438.088-.5z"/><path id="path410" fill="#0055A5" d="M93.579 568.873l.013-.012v-.013h.012l.025-.012h.013l.012-.012.013-.013h.012l.025-.013h.013l.025-.012h.013l.025-.012h.037l.025-.013h.038l.025-.013h.175l.025.013h.025l.025.013h.025l.025.012h.025c.287.112 1.313.725 1.387 1 .063.288-.075.438-.225.5-.175.062-.363.125-.513.137a.792.792 0 01-.625-.3c-.137-.162-.612-.737-.675-.875-.075-.113-.112-.313 0-.375z"/><path id="path412" fill="#0055A5" d="M93.442 569.498l.012.013.025.025.013.013.012.025.025.025.025.025.013.025.025.025.025.025.025.037.025.025.025.025.05.062.05.063.05.063.013.025.025.025.025.025.025.025.012.025.025.025.013.025.025.025.012.013.013.025.012.013.012.013v.012l.013.012c.037.075-.037.212-.162.188-.138-.013-.837-.088-1.238-.362-.413-.275-.675-.8-.4-1 .275-.203.712-.103 1.175.41z"/><path id="path414" fill="#0055A5" d="M93.217 567.96h.038l.012-.012h.038l.025-.013h.025l.025-.012h.05l.038-.013h.025l.037-.012h.088l.025-.012h.174l.025.012h.025l.025.012h.025l.013.013h.025v.012h.012l.013.013.012.012.013.012c.137.225.037.45-.375.65-.413.2-1.2.363-1.35.15-.151-.212.062-.574.937-.812z"/></g></g></svg>