<svg xmlns="http://www.w3.org/2000/svg" width="1102.92" height="336.77" viewBox="0 0 1102.92 336.77"><path fill="#ea5616" d="M224.51 0L112.26 112.26h112.25v224.51l112.26-111.99V0H224.51z"/><path d="M112.26 336.77l112.26-112.26H112.26V0L0 111.99v224.78h112.26zM449 280.64h59v-174h89.8v174h58.9V56.13H449zm572.5-140.39h-50.35v-33.61h112.12V56.13H912.22v224.51h112.09c44.94 0 78.62-22.53 78.62-70.2s-33.68-70.19-81.42-70.19m-5.61 92.69h-44.75v-44.86h44.73c13.9 0 28 5.48 28 22.37s-14.08 22.49-28 22.49m-214.94-.14c-39.33 0-61.45-28.84-61.45-64.49 0-28.62 16.1-64.55 60.33-64.55 27.61 0 45.42 16.88 51.74 24.74l35.84-35.83A117.61 117.61 0 00797 50.44c-65.1 0-116.47 48.18-116.47 117.87 0 65.1 51.37 117.87 116.47 117.87a117.69 117.69 0 0095-48.08L855.93 202c-11.41 17.87-30 30.76-55 30.76" fill="#2c2d84"/></svg>