<svg version="1.1" id="Layer_1" xmlns="http://www.w3.org/2000/svg" xmlns:xlink="http://www.w3.org/1999/xlink" x="0" y="0" viewBox="0 0 469.2 203.4" xml:space="preserve"><path fill="#FF8C00" d="M238.4 148.5h9.8c4.8 0 7.9 2.1 7.9 6.1 0 2.3-1.2 4.3-3.4 5.2 3 .7 4.5 3 4.5 5.6 0 4.4-3.6 6.7-8.7 6.7h-10.1v-23.6zm9 10.1c2.7 0 4.1-1.4 4.1-3.6s-1.4-3.3-4.2-3.3H243v6.9h4.4zm.4 10.5c3.3 0 4.8-1.5 4.8-3.7 0-2.3-1.7-3.7-4.9-3.7h-4.8v7.4h4.9zm26.1-21.1c3.1 0 6.7 1.1 8.9 3.5l-2.2 3.2c-1.6-1.6-4.1-2.7-6.6-2.7-4.8 0-8.2 3.6-8.2 8.4 0 4.8 3.5 8.5 8.4 8.5 2.6 0 5.5-1.3 7.3-3.2l1.8 3.3c-2.2 2.3-5.8 3.8-9.5 3.8-7.5 0-12.7-5.3-12.7-12.4.1-7 5.4-12.4 12.8-12.4m24.2 0c6.7 0 10.3 5 10.3 11.1 0 .6-.1 1.3-.2 1.9H291c.2 5.1 3.9 7.9 8.2 7.9 2.5 0 5.1-1.1 7-2.8l1.9 3.3c-2.3 2.1-5.9 3.4-9.2 3.4-7.5 0-12.6-5.4-12.6-12.4-.1-7.5 5.1-12.4 11.8-12.4m5.7 9.7c-.1-4.1-2.7-6.2-5.8-6.2-3.5 0-6.3 2.3-6.9 6.2h12.7zm-11.7-18.6h3.7v4.7h-3.7v-4.7zm7.8 0h3.7v4.7h-3.7v-4.7zm25.7 9.4h20.7v23.8h-4.6v-19.9h-11.6v19.9h-4.5zm27.7 0h4.2v2.1c0 1-.1 1.8-.1 1.8h.1c1.5-2.9 4.5-4.5 8-4.5 6.4 0 10.4 5.1 10.4 12.4 0 7.5-4.5 12.4-10.7 12.4-3 0-5.7-1.5-7.4-4h-.1s.2.8.2 2.1v10.8h-4.5v-33.1zm11.1 20.4c3.8 0 6.8-3 6.8-8.4 0-5.2-2.8-8.5-6.7-8.5-3.6 0-6.8 2.5-6.8 8.5 0 4.2 2.4 8.4 6.7 8.4m28.3-20.9c7.1 0 12.8 5.2 12.8 12.4s-5.7 12.5-12.7 12.5c-7.1 0-12.8-5.2-12.8-12.5-.1-7.2 5.6-12.4 12.7-12.4m0 20.9c4.5 0 8.2-3.6 8.2-8.5s-3.7-8.4-8.2-8.4c-4.5 0-8.2 3.5-8.2 8.4.1 4.9 3.7 8.5 8.2 8.5m17.3-20.4h4.4v19.8h8.7v-19.8h4.4v19.8h8.8v-19.8h4.4v19.8h3.3v9.6h-4.1v-5.6H410zm48.9-.5c6.7 0 10.3 5 10.3 11.1 0 .6-.1 1.3-.2 1.9h-17.2c.2 5.1 3.9 7.9 8.2 7.9 2.5 0 5.1-1.1 7-2.8l1.9 3.3c-2.3 2.1-5.9 3.4-9.2 3.4-7.5 0-12.6-5.4-12.6-12.4-.1-7.5 5.1-12.4 11.8-12.4m5.7 9.7c-.1-4.1-2.7-6.2-5.8-6.2-3.5 0-6.3 2.3-6.9 6.2h12.7z"/><path fill="#0023A0" d="M260.9 93.5c10.6 0 17-9.2 17-24.2 0-15.3-6.3-24.2-17-24.2-10.4 0-17.1 8.9-17.1 24.2 0 15 6.6 24.2 17.1 24.2m29.5 33.5c-.7.5-1.4.4-2-.2l-5.3-7c-4.8-6.5-10.9-10.5-22.3-10.5-21.5 0-34.9-15.4-34.9-40s13.5-40.1 34.9-40.1c21.5 0 34.8 15.4 34.8 40.1 0 12.5-4.4 25.2-11.7 29.6-1.3.8-1.3 1.1 0 1.5 6.4 2.3 9.3 5 12.7 9.4l4.9 6.7c.5.7.4 1.4-.2 2l-10.9 8.5zm35.2-20.4c0 .9-.5 1.4-1.4 1.4h-14.9c-.9 0-1.4-.5-1.4-1.4V31.8c0-.9.5-1.4 1.4-1.4h14.9c.9 0 1.4.5 1.4 1.4v74.8zM427 84.5c-2 7.6-3.6 14.8-5 22.2-.1.9-.7 1.3-1.5 1.3h-20c-.9 0-1.4-.4-1.5-1.3-1.2-6.3-2.4-12.2-3.9-18.2l-3.4-14.2c-.7-2.8-1.5-7.4-2.2-11.3-.2-1.5-1.5-1.5-1.8 0-.7 3.8-1.5 8.3-2.2 11.3L382 88.6c-1.4 6-2.6 11.8-3.9 18.2-.1.9-.7 1.3-1.5 1.3h-20c-.9 0-1.4-.4-1.5-1.3-1.4-7.4-3.1-14.7-5-22.2L336.4 32c-.3-.9.2-1.5 1.2-1.5h15.1c.9 0 1.4.4 1.6 1.2l7.4 29.6c1.9 7.4 3.4 17 4.1 24.1.1 1.4 1.8 1.5 2 0 1-7 2.7-16.6 4.8-24.1l8-29.6c.2-.8.8-1.2 1.5-1.2h12.5c.8 0 1.3.4 1.5 1.2l8.1 29.6c2.1 7.4 3.8 17.1 4.8 24.1.1 1.5 1.8 1.4 1.9 0 .5-7.1 2.2-16.6 4-24.1l7.4-29.6c.2-.8.8-1.2 1.6-1.2H439c1 0 1.5.7 1.2 1.5L427 84.5zm42 22.1c0 .9-.5 1.4-1.4 1.4h-14.9c-.9 0-1.4-.5-1.4-1.4V31.8c0-.9.5-1.4 1.4-1.4h14.9c.9 0 1.4.5 1.4 1.4v74.8z"/><path fill="#FF8C00" d="M196.1 200c1.8 2.3-1 4.6-3 2.7-20.8-18.4-38.3-23.7-55.6-24.4-9.2-.4-18.3.5-27.9 1.3-1.9.2-3.8.3-5.8.5-.8.1-1.7.1-2.6.2-3.4.4-6.8.6-10.2.6-16.3 0-31.7-4-45.7-11.9-14.1-7.9-25.3-18.9-33.3-32.8-8-13.8-12-29.1-12-45.4 0-16.3 4-31.7 12-45.6 8-14 19-25.1 32.9-33.1C58.7 4 73.8 0 89.8 0 106.4 0 122 4 136 11.9c14.1 7.9 25.3 19 33.4 32.9 8.1 13.9 12.1 29.2 12.1 45.6 0 6.3-.6 12.4-1.8 18.4-.2.9-.4 1.9-.7 3.1-.2 1-.5 2-.8 2.9h-.1c-1.6 5.2-4.6 12.5-10.2 21.9-.6 1-.9.2-1-.3-2-13.8-8-24.3-18.7-31.1-.2-.1-.4-.2-.5-.3-1.7-1.1-3.6-2.1-5.6-2.9-2.5-1.1-5.3-2.1-8.2-2.9-1.8-.5-5.8-.3-4.4-1.7.6-.6 9.3-.7 19.4-.1h.6c.2-2.1.3-4.3.3-6.5 0-17.2-5.7-31.3-17.4-42.9-11.7-11.7-25.5-17.3-42-17.3-16.9 0-30.6 5.7-41.9 17.4-11.3 11.6-16.8 25.6-16.8 42.5S37.4 121.3 49 133c11.7 11.7 25.2 17.3 41.4 17.3h2.3v-.6c-.9-11.9-1.1-21.8 1.3-17.8.9 1.4 1.7 2.7 2.6 4 3.2 4.8 6.4 8.7 9.5 12l.5.5c11.5 11.7 22.8 14.6 34.9 17.5.3.1.5.1.8.2l6 1.5c14.2 3.8 29.7 9.9 47.8 32.4m-39.7-71.9c-1.8-.5-3.1-.1-3.8 1.1-1 1.8-.3 5.4 1.7 8.5 2 3.2 3.8 4.8 5.1 4.8.5 0 .9-.2 1.2-.6.8-.9 1-2.7.7-5-.2-2.4-1.6-7.3-4.9-8.8m-20 14.8c-1.8 0-3.3.6-4.3 1.8-2.4 2.9-1.3 8.1 2.3 11.3 1.6 1.4 3.9 2.2 6.2 2.2 2.3 0 4.2-.9 5.4-2.4 2.1-2.9.9-6.9-3.1-10.3-2-1.7-4.3-2.6-6.5-2.6"/></svg>