<svg version="1.1" id="Layer_1" xmlns="http://www.w3.org/2000/svg" xmlns:xlink="http://www.w3.org/1999/xlink" x="0" y="0" viewBox="359.146 611.643 291.665 79.167" xml:space="preserve"><style>.st0{fill:#34a246}</style><g id="Слой_x0020_1"><g id="_153104448"><path id="_152752568" class="st0" d="M636.524 644.719h4.15v-21.81h-4.15v21.81zm14.287-21.81v3.851l-5.48 6.442 4.197 4.8c.438.503.863.961 1.283 1.369v4.9c-1.203-.58-2.502-1.58-3.92-3.319l-6.071-7.412 8.517-10.63h1.474zm-39.767 21.81h4.15v-9.259h10.293v9.259h4.154v-21.81h-4.154v9.238h-10.292v-9.237h-4.15v21.809zm-17.633-2.996c-2.088 0-3.529-.841-3.529-3.312 0-1.993 1.73-3.36 4.73-3.43l4.653-.216v5.037c-.84.358-3.554 1.92-5.854 1.92zm-1.008 3.308c3.742 0 5.996-1.871 7.196-2.708.362 1.917 2.616 2.637 4.654 2.637.338 0 .6 0 .887-.05l.196-3.237c-1.034-.071-1.991-.358-1.991-1.704v-11.422c0-4.482-2.88-6.141-8.255-6.141-3.337 0-6.12.842-7.512 1.417l.842 3.166c1.27-.313 3.67-1.008 5.733-1.008 3.53 0 5.112.65 5.112 3.67v2.451l-4.775.071c-3.816.045-8.687 1.2-8.687 6.596 0 4.104 2.45 6.262 6.6 6.262zm-20.442-3.308c-3.983 0-5.95-3.05-5.95-9.55 0-.721 0-1.755.046-2.47 1.945-1.01 3.983-1.871 6.505-1.871 3.908 0 5.42 2.662 5.42 6.141 0 3.767-1.32 7.75-6.02 7.75zm-.313 3.359c5.976 0 10.534-3.48 10.534-11.28 0-6.621-3.358-9.212-8.592-9.212-3.07 0-5.542.962-7.388 1.966.218-1.917.722-4.483 1.897-5.588 1.34-1.295 6.691-2.258 12.762-3.287l-.67-3.741c-6.838 1.27-12.692 2.662-14.85 4.75-2.521 2.35-3.363 9.379-3.363 13.841 0 8.784 3.67 12.55 9.67 12.55zm-24.761-3.289c-2.16 0-3.188-.262-4.08-.382v-13.822c.72-.408 2.93-1.633 4.754-1.633 4.675 0 5.926 3.338 5.926 7.73 0 4.629-2.255 8.107-6.6 8.107zm-8.23 11.709h4.15v-8.662c1.009.12 2.283.313 3.913.313 5.712 0 10.987-3 10.987-12.093 0-7.08-3.309-10.654-9.066-10.654-2.234 0-4.538 1.27-5.834 2.233v-1.729h-4.15v30.592zm-19.433-21.596c.312-4.267 2.446-6.525 5.42-6.525 3.076 0 4.513 2.642 4.488 6.525h-9.908zm6.478 13.296c3.309 0 6.047-.65 7.246-1.058l-.67-3.308c-1.346.333-4.079.887-5.617.887-4.246 0-7.437-.963-7.508-6.912h14.325v-1.488c0-7.054-2.52-10.962-8.35-10.962-5.783 0-10.175 2.995-10.175 11.804 0 8.466 4.2 11.037 10.75 11.037zm-24.953-3.48c-4.005 0-5.95-3.049-5.95-9.549 0-.721 0-1.755.025-2.47 1.966-1.01 4.008-1.871 6.525-1.871 3.912 0 5.425 2.662 5.425 6.141 0 3.767-1.321 7.75-6.025 7.75zm-.334 3.36c5.997 0 10.554-3.48 10.554-11.28 0-6.621-3.357-9.212-8.587-9.212-3.071 0-5.542.962-7.392 1.966.192-1.917.72-4.483 1.871-5.588 1.371-1.295 6.72-2.258 12.791-3.287l-.695-3.741c-6.816 1.27-12.696 2.662-14.854 4.75-2.495 2.35-3.334 9.38-3.334 13.841 0 8.784 3.67 12.55 9.646 12.55zm-21.233.024c4.387 0 6.742-.624 8.3-1.224l-.983-3.313c-1.73.48-3.913.862-6.6.862-6.263 0-11.23-3.358-11.23-11.058 0-7.534 4.754-10.605 10.438-10.579 3.722 0 5.496.645 7.104 1.125l1.15-3.309c-1.079-.483-3.504-1.487-8.35-1.487-9.524 0-14.73 5.466-14.73 14.658 0 8.663 5.28 14.325 14.901 14.325z"/><path id="_249849760" d="M598.713 685.58h4.15v-9.263h10.291v9.263h4.154v-21.81h-4.154v9.214h-10.292v-9.213h-4.149v21.809zm-26.271 0h4.15l9.284-13.221 1.895-3.046-.095 3v13.267h4.149v-21.81h-4.15l-9.283 13.293-1.896 2.95.096-2.904v-13.338h-4.15v21.809zm9.692-25.289c2.929 0 5.517-1.511 7.029-3.982l-1.967-2.209c-1.633 1.896-3.333 2.567-5.062 2.567-1.68 0-3.43-.671-5.062-2.567l-1.968 2.209c1.513 2.47 4.15 3.982 7.03 3.982zm-27.35 22.289c-2.067 0-3.504-.839-3.504-3.308 0-2.018 1.703-3.363 4.703-3.434l4.676-.217v5.042c-.837.358-3.55 1.917-5.876 1.917zm-.984 3.312c3.742 0 5.97-1.871 7.17-2.712.363 1.92 2.643 2.641 4.68 2.641.312 0 .6 0 .863-.05l.217-3.237c-1.055-.076-1.993-.363-1.993-1.704v-11.422c0-4.487-2.878-6.166-8.274-6.166-3.312 0-6.096.842-7.512 1.442l.84 3.166c1.272-.337 3.672-1.008 5.76-1.008 3.503 0 5.108.646 5.108 3.67v2.447l-4.796.07c-3.792.05-8.663 1.2-8.663 6.6 0 4.105 2.447 6.263 6.6 6.263zm-30.834.359c2.81-.793 4.75-2.16 6-4.317 1.464-2.662 2.184-7.296 2.784-14.9h6.238v18.546h4.15v-21.81h-14.012c-.238 7.51-1.055 13.53-2.23 15.764-.963 1.775-2.687 2.637-4.154 3.191l1.225 3.526zm-23.391-.67h4.15v-9.264h10.292v9.263h4.154v-21.809h-4.154v9.213h-10.292v-9.213h-4.15v21.81zm-20.153-3.047c-6.717 0-9.864-5.16-9.864-11.184 0-6.188 3.264-10.937 10.126-10.937 6.6 0 10.029 4.75 10.029 11.033 0 6.263-3.142 11.088-10.291 11.088zm-.122 3.524c9.333 0 14.754-5.687 14.754-14.586 0-8.471-4.579-14.517-14.008-14.517-8.925 0-14.803 5.304-14.803 14.446 0 8.733 4.94 14.657 14.057 14.657z" fill="#eda042"/><path id="_249849976" class="st0" d="M400.508 690.81c22.841 0 41.337-18.52 41.337-41.337 0-6.818-1.628-13.222-4.533-18.884l-4.75 2.829-48.537 28.913-24.808-15.45a47.89 47.89 0 00-.071 2.592c0 22.816 18.52 41.337 41.362 41.337z"/><path id="_249850048" class="st0" d="M384.025 657.1l48.155-28.696 2.853-1.68c-.816-1.27-1.729-2.47-2.687-3.645l-48.321 28.812-23.128-14.416c-.434 1.487-.793 3-1.08 4.533l24.208 15.092z"/><path id="_249850120" class="st0" d="M384.025 646.423l45.06-26.845a43.43 43.43 0 00-3.6-3.076l-41.46 24.692-19.504-12.142a43.802 43.802 0 00-1.99 3.984l21.494 13.387z"/><path id="_249850360" class="st0" d="M384.025 635.722l37.117-22.096a41.707 41.707 0 00-3.903-1.983h-1.552l-31.662 18.871-14.153-8.83a43.078 43.078 0 00-2.834 3.459l16.987 10.579z"/></g></g></svg>