<svg version="1.1" id="Layer_1" xmlns="http://www.w3.org/2000/svg" xmlns:xlink="http://www.w3.org/1999/xlink" x="0" y="0" viewBox="75.5 7.901 23 7.198" xml:space="preserve"><path d="M84.901 7.901l-1.154 7.183h1.845l1.154-7.183H84.9zm5.566 2.926c-.645-.318-1.04-.533-1.04-.859.007-.296.334-.6 1.063-.6a3.21 3.21 0 011.374.267l.167.075.251-1.503a4.657 4.657 0 00-1.656-.296c-1.822 0-3.105.947-3.113 2.302-.015 1 .919 1.554 1.617 1.887.714.342.957.563.957.866-.008.466-.577.681-1.108.681-.736 0-1.131-.11-1.732-.37l-.243-.11-.258 1.561c.434.193 1.23.362 2.058.37 1.937 0 3.196-.932 3.212-2.376.007-.792-.486-1.399-1.55-1.895zm6.545-2.904h-1.427c-.44 0-.774.127-.965.578l-2.74 6.583h1.936l.533-1.425h2.167l.276 1.431H98.5l-1.488-7.167zm-2.126 4.298c.038.003.743-2.327.743-2.327l.562 2.327h-1.305zM82.206 7.9l-1.808 4.88-.197-.962c-.335-1.11-1.382-2.317-2.552-2.917l1.655 6.175h1.953l2.9-7.175h-1.952z" fill="#2394bc"/><path d="M79.593 8.828c-.141-.548-.59-.917-1.2-.925h-2.864l-.029.133c2.233.55 4.108 2.244 4.716 3.838l-.623-3.046z" fill="#efc75e"/></svg>