<svg xmlns="http://www.w3.org/2000/svg" xmlns:xlink="http://www.w3.org/1999/xlink" width="990" height="300" viewBox="0 0 990 300"><g id="Layer_1"><path id="Combined-Shape" fill="#036CB5" d="M824.042 54.04c15.6 0 30.443 3.573 43.763 9.967 2.089.942 4.191 2.07 6.273 3.2l-9.133 8.089-13.691-14.108-23.592 20.689-13.893-14.861-43.381 38.56 27.774 30.283-10.843 9.403 27.403 30.283-10.844 9.398 39.197 43.074 23.2-21.067 20.177 22.577c-3.999 3.01-8.375 6.026-13.126 8.655a100.33 100.33 0 01-49.092 12.78c-54.992 0-99.698-44.193-99.698-98.546-.194-53.986 44.52-98.377 99.506-98.377zm-18.269 92.353l23.785-21.068 21.314 23.51-23.789 21.066-21.31-23.508zm16.939 40.629l23.59-21.254 21.503 23.508-23.786 21.069-21.307-23.323zm-33.862-80.69l23.777-21.068 21.31 23.51-23.786 21.067-21.301-23.51zm43.562-11.29l17.696-15.799 15.987 17.493-17.697 15.986-15.986-17.68zM864 167.457l17.69-15.8 15.986 17.676-17.698 15.81L864 167.457zm15.6 35.553l17.697-15.803L913.27 204.7l-17.69 15.984-15.98-17.673zm7.231-81.259l11.795-10.534 10.651 11.666-11.793 10.53-10.653-11.662zM871.61 86.954l11.796-10.719 10.66 11.848-11.805 10.533-10.65-11.662zm30.251 69.597l11.795-10.533L924.5 157.68l-11.982 10.53-10.658-11.66zm-53.083-26.146l17.698-15.8 15.978 17.49-17.69 15.803-15.986-17.493z"/><g id="Group-27" transform="translate(0 2.609)"><defs><filter id="Adobe_OpacityMaskFilter" filterUnits="userSpaceOnUse" x="65.5" y="92.345" width="103.995" height="90.915"><feColorMatrix values="1 0 0 0 0 0 1 0 0 0 0 0 1 0 0 0 0 0 1 0"/></filter></defs><mask maskUnits="userSpaceOnUse" x="65.5" y="92.345" width="103.995" height="90.915" id="mask-2_2_"><g filter="url(#Adobe_OpacityMaskFilter)"><path id="path-1_2_" fill="#FFF" d="M65.5 92.345v90.915h103.995V92.345z"/></g></mask><path id="Fill-25" mask="url(#mask-2_2_)" fill="#036CB5" d="M117.69 119.266h-.897l-16.85 63.994h-13.77L65.5 92.345h14.289l14.292 67.838h.892l16.585-67.838h11.36l17.737 67.838h.893l13.017-67.838h14.93l-20.678 90.915h-13.781z"/></g><path id="Fill-28" fill="#036CB5" d="M187.624 147.165h29.214c-.634-13.46-7.145-18.84-14.033-18.84-7.783 0-13.784 6.025-15.181 18.84m39.42 24.114v9.747c-5.74 3.333-13.392 5.9-22.585 5.9-21.43 0-30.234-13.336-30.234-33.594 0-19.499 9.823-33.605 28.963-33.605 15.945 0 25.776 10.394 25.776 31.29v4.746h-41.596c0 15.382 6.248 22.18 19.396 22.18 6.888 0 13.268-2.44 20.28-6.664"/><path id="Fill-30" fill="#036CB5" d="M258.643 176.644c4.084 1.794 8.553 2.06 11.748 2.06 9.44 0 16.578-5.907 16.578-26.675 0-16.285-5.869-21.543-14.414-21.543-5.108 0-8.807 1.415-13.913 4.23v41.928zm.134-51.413c3.818-2.045 10.325-4.748 17.218-4.748 15.823 0 24.374 11.028 24.374 31.546 0 23.98-11.486 35.65-29.978 35.65-6.768 0-17.23-2.181-24.89-6.293V91.89l13.276-3.202v36.542z"/><path id="Fill-32" fill="#036CB5" d="M357.798 166.578h.639l27.3-71.68h15.83v90.921h-13.78v-65.915h-1.15l-26.034 65.915h-8.158l-26.04-64.374h-1.144v64.374h-11.485V94.898h15.444z"/><path id="Fill-34" fill="#036CB5" d="M457.87 153.328c0-17.31-7.014-24.615-15.69-24.615-8.418 0-15.698 7.306-15.698 24.615 0 17.57 6.643 24.615 15.698 24.615s15.69-7.046 15.69-24.615m-44.78 0c0-22.448 12.252-33.6 29.09-33.6 16.848 0 29.094 11.152 29.094 33.6 0 21.923-11.61 33.598-29.094 33.598-17.48 0-29.09-11.675-29.09-33.598"/><path id="Fill-36" fill="#036CB5" d="M481.366 129.224c5.741-3.468 17.868-9.496 32.538-9.496 15.31 0 21.042 6.028 21.042 19.232v46.426h-13.26v-43.473c0-10.128-4.968-11.923-11.484-11.923-5.097 0-11.613 2.312-15.565 4.62v50.776h-13.27v-56.162z"/><path id="Fill-38" fill="#036CB5" d="M563.034 147.165h29.217c-.628-13.46-7.143-18.84-14.033-18.84-7.785 0-13.775 6.025-15.184 18.84m39.422 24.114v9.747c-5.738 3.333-13.394 5.9-22.583 5.9-21.424 0-30.233-13.336-30.233-33.594 0-19.499 9.819-33.605 28.96-33.605 15.956 0 25.785 10.394 25.785 31.29v4.746h-41.602c0 15.382 6.253 22.18 19.396 22.18 6.883 0 13.272-2.44 20.277-6.664"/><path id="Fill-40" fill="#036CB5" d="M657.383 119.728h13.656l-23.097 64.106c-6.388 17.697-14.163 26.93-28.834 26.93v-10.507c8.682 0 14.033-6.928 17.102-16.423l-24.5-64.106h14.038l16.331 47.187h.766l14.538-47.187z"/><path id="Sapienti-sat" fill="#B6B6B6" d="M203.321 244.966v-5.537c4.732 2.402 9.234 3.608 13.5 3.608 3.554 0 6.276-.651 8.178-1.967 1.902-1.306 2.855-3.073 2.855-5.306s-.783-3.908-2.348-5.022c-1.56-1.112-4.479-2.49-8.747-4.122a158.813 158.813 0 01-2.855-1.092c-.42-.168-1.244-.515-2.472-1.028-1.224-.512-2.027-.901-2.406-1.157-.382-.265-1.024-.653-1.934-1.16-.908-.52-1.52-.979-1.84-1.38a28.656 28.656 0 00-1.299-1.553c-.548-.62-.919-1.234-1.11-1.861a24.03 24.03 0 01-.538-2.158 13.133 13.133 0 01-.253-2.64c0-3.647 1.343-6.58 4.025-8.814 2.686-2.226 6.392-3.342 11.126-3.342 4.183 0 8.349.77 12.486 2.316v5.852c-4.013-1.976-8.028-2.955-12.043-2.955-2.831 0-4.945.591-6.34 1.791s-2.092 2.788-2.092 4.765c0 2.103.698 3.698 2.093 4.795 1.394 1.1 3.89 2.312 7.482 3.639 6.168 2.274 10.416 4.333 12.739 6.18 2.326 1.84 3.487 4.593 3.487 8.235 0 3.822-1.595 6.946-4.786 9.37s-7.573 3.636-13.154 3.636c-5.11 0-9.697-1.035-13.754-3.093zm64.499 2.119h-6.021l-.445-3.732c-3.637 3.006-7.27 4.51-10.904 4.51-3.041 0-5.398-.824-7.066-2.48-1.672-1.652-2.506-3.738-2.506-6.276 0-1.332.243-2.604.73-3.828.486-1.224 1.29-2.41 2.408-3.569 1.12-1.16 2.81-2.09 5.07-2.802 2.26-.712 4.977-1.063 8.148-1.063h3.931v-1.738c0-2.874-.528-4.83-1.585-5.887-1.06-1.052-2.833-1.577-5.326-1.577-3.042 0-6.783 1.26-11.219 3.797v-5.147c4.565-2.102 9.042-3.161 13.437-3.161 4.266 0 7.228.885 8.873 2.647 1.65 1.755 2.475 4.42 2.475 7.972v22.334zm-6.591-14.737h-3.363c-6.931 0-10.395 2.083-10.395 6.246 0 1.464.463 2.514 1.394 3.183.931.667 2.093.997 3.49.997 1.77 0 3.484-.43 5.132-1.29 1.648-.853 2.896-1.84 3.741-2.956v-6.18zm16.891 27.613V218.84c1.86-1.42 4.055-2.562 6.593-3.418 2.537-.852 5.026-1.29 7.48-1.29 8.788 0 13.185 5.387 13.185 16.16 0 5.578-1.14 9.848-3.424 12.803-2.282 2.964-5.554 4.437-9.826 4.437-2.959 0-5.43-.75-7.415-2.243v14.672h-6.593zm6.53-38.94v19.507c.845.812 1.91 1.416 3.2 1.827 1.29.407 2.421.61 3.392.61 2.323 0 4.153-.906 5.484-2.73 1.331-1.827 1.994-5.14 1.994-9.942 0-3.904-.683-6.766-2.057-8.558-1.373-1.808-3.16-2.705-5.359-2.705-2.49 0-4.708.661-6.655 1.99zm35.847-6.558v32.622h-6.592v-31.017l6.592-1.605zm-7.607-9.466c0-1.158.432-2.174 1.297-3.059.87-.878 1.873-1.32 3.01-1.32 1.144 0 2.148.442 3.016 1.32.866.885 1.299 1.9 1.299 3.06s-.433 2.18-1.3 3.063c-.867.87-1.87 1.312-3.015 1.312-1.136 0-2.14-.441-3.01-1.312-.865-.883-1.297-1.906-1.297-3.064zm32.297 38.355c3.045 0 6.4-1.116 10.079-3.342v4.89c-3.38 1.977-7.12 2.963-11.22 2.963-5.155 0-8.947-1.481-11.377-4.443-2.43-2.963-3.646-7.1-3.646-12.421 0-5.066 1.248-9.146 3.738-12.225 2.496-3.089 6.043-4.642 10.65-4.642 4.06 0 7.204 1.334 9.449 3.997 2.239 2.664 3.355 6.562 3.355 11.71v2.385h-20.662c0 3.82.782 6.633 2.344 8.424 1.564 1.81 3.994 2.704 7.29 2.704zm-1.967-24.9c-1.983 0-3.655.794-5.007 2.375-1.35 1.59-2.197 3.954-2.535 7.077h14.516c-.17-3.17-.908-5.535-2.219-7.1-1.308-1.57-2.893-2.353-4.755-2.353zm21.394 28.633V218.9c5.198-3.177 10.586-4.768 16.167-4.768 3.761 0 6.442.778 8.048 2.324 1.606 1.546 2.41 3.99 2.41 7.333v23.296h-6.592V225.27c0-2.358-.487-3.948-1.458-4.758-.973-.82-2.387-1.225-4.248-1.225-2.534 0-5.113.775-7.732 2.318v25.48h-6.595zm43.2-31.4h10.017l-1.586 4.377h-8.43v16.986c0 4.292 1.817 6.436 5.45 6.436 1.395 0 2.81-.298 4.252-.9v4.115c-1.988.775-4.356 1.164-7.102 1.164-3.17 0-5.494-.914-6.974-2.743-1.478-1.815-2.219-4.21-2.219-7.178v-26.508l6.593-4.832v9.083zm22.92-1.222v32.622h-6.594v-31.017l6.594-1.605zm-7.607-9.466c0-1.158.434-2.174 1.295-3.059.866-.878 1.87-1.32 3.014-1.32 1.14 0 2.146.442 3.009 1.32.868.885 1.301 1.9 1.301 3.06s-.433 2.18-1.301 3.063c-.863.87-1.87 1.312-3.01 1.312-1.143 0-2.147-.441-3.013-1.312-.862-.883-1.295-1.906-1.295-3.064zm52.485 11.715v5.142c-3.17-2.143-6.383-3.211-9.634-3.211-1.648 0-3 .32-4.06.966-1.054.64-1.583 1.673-1.583 3.082 0 1.337.58 2.396 1.742 3.189 1.163.796 2.99 1.6 5.486 2.41 1.395.473 2.439.84 3.135 1.096.7.264 1.616.693 2.759 1.29 1.14.603 1.998 1.198 2.567 1.804.57.602 1.088 1.391 1.554 2.381.465.987.694 2.078.694 3.28 0 2.963-1.172 5.321-3.514 7.08-2.346 1.76-5.486 2.642-9.413 2.642-4.397 0-8.055-.944-10.97-2.837v-5.016c3.719 2.227 7.121 3.343 10.21 3.343 4.644 0 6.97-1.54 6.97-4.633 0-.598-.138-1.16-.412-1.672-.275-.515-.591-.933-.95-1.256-.36-.321-.943-.684-1.746-1.098-.804-.4-1.477-.699-2.028-.895-.548-.191-1.414-.503-2.596-.93-1.735-.645-3.108-1.2-4.123-1.675a18.025 18.025 0 01-3.042-1.833c-1.016-.751-1.757-1.648-2.218-2.674-.464-1.027-.697-2.253-.697-3.667 0-1.803.421-3.343 1.267-4.627.844-1.296 1.945-2.218 3.295-2.774 1.352-.56 2.589-.948 3.708-1.156a17.128 17.128 0 013.332-.331c3.592 0 7.014.86 10.267 2.58zm35.022 30.373h-6.02l-.447-3.732c-3.637 3.006-7.268 4.51-10.9 4.51-3.043 0-5.4-.824-7.069-2.48-1.671-1.652-2.504-3.738-2.504-6.276 0-1.332.242-2.604.73-3.828.485-1.224 1.288-2.41 2.408-3.569 1.123-1.16 2.81-2.09 5.07-2.802 2.262-.712 4.979-1.063 8.144-1.063h3.934v-1.738c0-2.874-.53-4.83-1.582-5.887-1.063-1.052-2.837-1.577-5.326-1.577-3.045 0-6.786 1.26-11.222 3.797v-5.147c4.565-2.102 9.042-3.161 13.437-3.161 4.27 0 7.225.885 8.874 2.647 1.647 1.755 2.473 4.42 2.473 7.972v22.334zm-6.587-14.737h-3.363c-6.932 0-10.398 2.083-10.398 6.246 0 1.464.465 2.514 1.394 3.183.932.667 2.09.997 3.488.997 1.773 0 3.48-.43 5.135-1.29 1.647-.853 2.896-1.84 3.744-2.956v-6.18zm23.167-16.663h10.014l-1.588 4.377h-8.426v16.986c0 4.292 1.815 6.436 5.445 6.436 1.397 0 2.808-.298 4.251-.9v4.115c-1.987.775-4.35 1.164-7.105 1.164-3.165 0-5.488-.914-6.967-2.743-1.48-1.815-2.223-4.21-2.223-7.178v-26.508l6.599-4.832v9.083z"/><path fill="none" d="M0 0h990v300H0z"/></g></svg>