<svg xmlns="http://www.w3.org/2000/svg" width="546.78" height="353.54" viewBox="0 0 546.78 353.54"><defs><style>.b{fill:#ffd524}.c{fill:#ffc32e}.d{fill:#ffe2b2}.e{fill:#3d4051}.f{fill:#ff582a}.g{fill:#ae1e0b}.k{fill:#cadfef}.l{fill:#fff}.m{fill:#8d5115}.n{fill:#774206}.o{fill:#00c4d8}.p{fill:#008c41}.q{fill:#00b255}</style></defs><path d="M497.28 256.41c-10.73 5.44-35.84 5.06-35.85-9.52 0-12.3 21.88-20.44 34-20.22 22.87.43 15.96 22.59 1.85 29.74zm42.86-4.31a6.5 6.5 0 01-4 3.61 9.38 9.38 0 01-6.38-.64 11 11 0 01-6.45-7.07c-.78-3.2.25-7.87 4.26-9.23a10.9 10.9 0 018.81 1.5 10.46 10.46 0 014.16 6.77 8.7 8.7 0 01-.4 5.06z" style="isolation:isolate" fill="#a5a4d5" opacity=".7"/><path class="b" d="M470.31 260.53l59.23-93a6 6 0 018.25-1.83l6.1 3.89a6 6 0 011.82 8.25l-59.23 93-10.31 7-9.68 6.55 1.85-11.54z"/><path class="c" d="M478.4 265.71l62.45-98 3.06 2a6 6 0 011.82 8.25l-59.23 93z"/><path class="d" d="M470.31 260.53l16.18 10.31-10.31 6.97-9.68 6.55 1.85-11.54 1.96-12.29z"/><path class="e" d="M468.35 272.82l7.83 4.99-9.68 6.55 1.85-11.54z"/><path class="f" d="M523.47 177.09l6.07-9.53a6 6 0 018.25-1.83l6.1 3.89a6 6 0 011.82 8.25l-6.07 9.53z"/><path class="e" d="M519.867 182.741l3.594-5.642 16.176 10.305-3.594 5.642z"/><path class="g" d="M531.56 182.24l9.29-14.53 3.06 2a6 6 0 011.82 8.25l-6.07 9.53z"/><path d="M92.81 89.58l104.58-34.87a6 6 0 017.61 3.78l2.29 6.87a6 6 0 01-3.78 7.55L98.87 107.78l-12.4-1.07-11.64-1 8.7-7.79z" fill="#009fda"/><path d="M95.84 98.71L206.09 62l1.15 3.44a6 6 0 01-3.78 7.56L98.87 107.78z" fill="#0071b8"/><path class="d" d="M92.81 89.58l6.06 18.2-12.4-1.09-11.64-1.01 8.71-7.79 9.27-8.31z"/><path class="e" d="M83.54 97.89l2.93 8.8-11.64-1.01 8.71-7.79z"/><path class="b" d="M186.67 58.29l10.72-3.58a6 6 0 017.61 3.78l2.29 6.87a6 6 0 01-3.78 7.55l-10.72 3.57z"/><path class="e" d="M180.757 59.816l6.356-2.141 6.137 18.221-6.355 2.14z"/><path class="c" d="M189.7 67.39l16.39-5.46 1.15 3.44a6 6 0 01-3.78 7.55l-10.72 3.57z"/><path class="e" d="M301.83 96.56l-73.26 25 12.94 37.27a85 85 0 0073.14-25.39z"/><path class="e" d="M344.06 84.55l-65.98 59.74-88.8-6.02 9.24-8.35 4.97-4.51 51.77-46.88 69.68 4.73 6.69.45 12.43.84z"/><path fill="#484d5b" d="M331.63 83.71l-56.74 51.38-76.37-5.17 4.97-4.51 51.77-46.88 69.68 4.73 6.69.45z"/><path class="b" d="M186.47 189.46l-3.59-.32 4.7-52.12 77.94-31.99 1.37 3.33-75.92 31.16-4.5 49.94z"/><path class="b" d="M186.58 170l-.74-.23c-2.22.84-10 5.15-11.48 24.52l16 2.49c4.2-18.87-1.87-25.26-3.78-26.78z"/><path class="k" d="M506.15 54a8.59 8.59 0 1111.59 3.67A8.59 8.59 0 01506.15 54zm14-7.31a7.17 7.17 0 10-3 9.68 7.18 7.18 0 003-9.7z"/><path class="l" d="M463.804 57.239l2.197-1.15 15.254 29.127-2.197 1.15z"/><path class="k" d="M435.04 112.13l-6.85 6.91 8.07-5.43 7.09-5.86-1.22-1.48-7.09 5.86z"/><path class="e" d="M437.95 109.745l69.12-57.14 3.574 4.324-69.12 57.14z"/><circle class="l" cx="448.38" cy="104.76" r="5.31" transform="rotate(-39.58 448.373 104.756)"/><circle class="k" cx="448.38" cy="104.76" r="3.03" transform="rotate(-39.58 448.373 104.756)"/><path class="k" d="M418.04 79.67l-9.58 1.7 9.06-3.54 8.85-2.49.52 1.84-8.85 2.49z"/><path class="e" d="M419 73.405l86.093-24.213 1.515 5.385-86.093 24.214zm91.94-23.162l13.588-7.119 1.016 1.94-13.588 7.119z"/><path class="k" d="M465.49 74.94a1.62 1.62 0 01.68-2.18L477.24 67a1.62 1.62 0 012.18.68 1.62 1.62 0 01-.68 2.18l-11.07 5.8a1.62 1.62 0 01-2.18-.72z"/><circle class="l" cx="508.5" cy="52.86" r="5.94" transform="rotate(-27.64 508.495 52.854)"/><circle class="k" cx="508.48" cy="52.77" r="3.33" transform="rotate(-27.65 508.467 52.767)"/><rect class="l" x="521.09" y="36.42" width="25.24" height="6.37" rx="2.16" ry="2.16" transform="rotate(-27.64 533.722 39.594)"/><path class="k" d="M336 318.3s-11.1-26.81-33-29.3-64.76 22.7-138.43 22.7l-14.43 21.9H336z"/><path class="l" d="M336 318.3s1.83-23.49-9.87-29.46c-14.5-7.41-68.19 8.46-132.48-36.17l-20 39.15s23.6 15.13 64.37 19.41c52.16 5.48 73.55-25.3 97.98 7.07z"/><path class="k" d="M336 318.3s11.11-26.81 33-29.29 64.68 22.7 138.34 22.7l14.43 21.9H336z"/><path class="l" d="M336 315.16s5.32-26.81 27.22-29.68 71.67 17.29 85.61 18.79S504 307 504 307l7.64 11.29s-47.83-.47-62.39-2.08c-17.92-2-56.74-24.39-83.12-20.66s-29.37 22.76-29.37 22.76z"/><path class="m" d="M141.19 333.63h393.22v10.95H141.19z"/><path class="m" d="M349.91 353.54H322a14.43 14.43 0 01-14.43-14.43h56.74a14.43 14.43 0 01-14.4 14.43z"/><path class="n" d="M347.46 345.48h-23a11.9 11.9 0 01-11.9-11.9L336 315.15l23.39 18.42a11.9 11.9 0 01-11.89 11.91z"/><path class="b" d="M359.36 333.57a11.88 11.88 0 01-2.27 7L336 324l-21.12 16.62a11.89 11.89 0 01-2.27-7L336 315.16z"/><path class="o" d="M173.91 41.78a5 5 0 01-6.6 2.53h-.07L155.65 39a.71.71 0 11.53-1.32h.06L167.83 43a3.62 3.62 0 103-6.58l-13.39-6.09a2.53 2.53 0 10-2.09 4.6l11.07 5a1.49 1.49 0 001.23-2.71l-8.19-3.72a.71.71 0 01.59-1.29l8.19 3.72a2.91 2.91 0 01-2.41 5.3l-11.07-5A4 4 0 01158 29l13.39 6.09a5 5 0 012.53 6.6zm-18.2 100.93c.28-.13.55-.25.8-.39 2.67-1.4 4-3.11 3.86-4.82-.22-2.08-2.69-3.6-6.39-4.27.36-3.75-.44-6.53-2.38-7.31s-4.44.69-6.76 3.66c-3.15-2.07-6-2.66-7.58-1.31-1.31 1.11-1.49 3.3-.52 6.16.09.27.2.55.32.84-3.08 1.41-4.89 3.29-4.68 5.23.16 1.46 1.42 2.65 3.44 3.46a15.48 15.48 0 003 .8c-.36 3.76.44 6.54 2.38 7.31s4.44-.69 6.77-3.66a15.47 15.47 0 002.69 1.45c2 .81 3.76.82 4.88-.14 1.46-1.3 1.46-3.91.17-7.01zm.75-7.36c1.55.62 2.47 1.43 2.56 2.3.12 1.09-1 2.35-3.14 3.46l-.73.35a27 27 0 00-2.09-3.55 28.28 28.28 0 00.75-3.28 14.47 14.47 0 012.65.68zm-9.59 8.24c-.82.09-1.62.14-2.39.17a31.091 31.091 0 01-3.29-3.9c.25-.83.55-1.68.9-2.56s.72-1.7 1.11-2.48c.85-.16 1.75-.3 2.68-.4s1.61-.13 2.38-.16c.54.55 1.08 1.13 1.62 1.76s1.17 1.43 1.67 2.14c-.25.83-.55 1.68-.9 2.56s-.72 1.7-1.11 2.47c-.85.12-1.75.25-2.67.35zm1.86 1.13c-.37.64-.74 1.24-1.12 1.79-.58-.43-1.17-.92-1.77-1.46l1.18-.1a9.38 9.38 0 011.71-.24zm-6.12-1a15.63 15.63 0 01-2.29-.16q.15-1 .42-2.07.53.67 1.08 1.35c.37.45.53.58.8.87zm-2.38-5.35a24.71 24.71 0 01-1.35-2.4 24.7 24.7 0 012.63-.82c-.23.52-.46 1-.68 1.59s-.41 1.09-.6 1.63zm3.8-5.12c.37-.64.74-1.23 1.12-1.78q.87.65 1.77 1.45l-1.17.1c-.59.06-1.16.14-1.74.22zm6.12 1a20.39 20.39 0 012.28.16c-.1.66-.24 1.35-.42 2.06-.35-.45-.7-.9-1.09-1.35s-.5-.63-.77-.92zm2.38 5.35a24.64 24.64 0 011.34 2.4 24.77 24.77 0 01-2.63.81c.24-.52.46-1 .68-1.59s.43-1.13.61-1.67zm-1.44-12.4c1.2.48 1.79 2.68 1.51 5.83a28.49 28.49 0 00-3.77-.16 28.52 28.52 0 00-2.85-2.48c2-2.53 3.92-3.68 5.11-3.24zm-12.95 2.12c.66-.56 1.89-.52 3.44.1a14.45 14.45 0 012.43 1.29 28.3 28.3 0 00-1.72 2.9 26.94 26.94 0 00-4 1.14c-.1-.25-.2-.51-.28-.75-.74-2.29-.7-4 .14-4.73zm-4.41 11c-.13-1.19 1.32-2.63 3.88-3.82a27.29 27.29 0 002.08 3.55 28.22 28.22 0 00-.75 3.29c-3.1-.63-5.06-1.75-5.2-3zm7.93 10.45c-1.2-.48-1.79-2.69-1.51-5.84a28.3 28.3 0 003.77.17 28.3 28.3 0 002.86 2.47c-2 2.48-3.91 3.67-5.11 3.19zm12.95-2.12c-1 .83-3.21.33-5.86-1.39a28.11 28.11 0 001.72-2.91 27.26 27.26 0 004-1.14c1 2.62 1.06 4.65.15 5.43z"/><circle class="o" cx="146.39" cy="138.98" r="2.67" transform="rotate(-68.24 146.396 138.977)"/><path class="o" d="M525.53 255a7.38 7.38 0 003.82 8.71l-1 3.52a4.08 4.08 0 00-3.7 2.64l7.79 2.3a4.08 4.08 0 00-1.67-4.22l1-3.52a7.38 7.38 0 007.93-5.24l2.75-9.33-14.17-4.15zm7.47 18l-9.31-2.75a.76.76 0 10-.43 1.46l9.31 2.75A.76.76 0 10533 273zm-12-23.39a4.11 4.11 0 002.78 5.1l.81.24.46-1.56-.81-.24a2.48 2.48 0 111.13-4.83l.27.08.81.24.46-1.56-.81-.24a4.11 4.11 0 00-5.1 2.77zm22.68 2.39l-.81-.24-.46 1.56.81.24a2.48 2.48 0 11-1.13 4.83l-.27-.08-.81-.24-.46 1.56.81.24a4.11 4.11 0 102.61-7.79l-.29-.09zm-14-150.61L527 96.71l-7.06 4 2.66 4.67a7.36 7.36 0 107.06-4zm2 11.77a5.12 5.12 0 01-7-1.89l8.87-5.06a5.12 5.12 0 01-1.83 7zm-12.31-13.6l6.92-3.95a1.45 1.45 0 00-1.44-2.52L517.93 97a1.45 1.45 0 001.44 2.52zM390.53 57.5a5.47 5.47 0 00-2-8.72l-.38-2.38a3 3 0 00-2.76-2.53l-9.21-.66a3 3 0 00-3.07 2.06l-.79 2.42a5.47 5.47 0 00-3.15 8.31l3.38-2.93.76.87a8.61 8.61 0 00-.77 10.7l-1.6 1.36a1 1 0 001.25 1.44l1.6-1.38a8.61 8.61 0 0010.73.79l1.58 1.82a1 1 0 101.44-1.25L386 65.65a8.61 8.61 0 00.77-10.76l.9-.78zm-4.94.91l-5.59 2.9a1 1 0 01-1.13-.19l-4-4.13a1 1 0 111.43-1.28l3.46 3.62 4.94-2.57a1 1 0 11.88 1.69zm-2.17-9.11l2.93 3.38-.9.78a8.56 8.56 0 00-4.1-2.09l.09-1.24a1.13 1.13 0 10-2.25-.16l-.09 1.24a8.56 8.56 0 00-4.38 1.51l-.75-.87 3.38-2.93a5.47 5.47 0 00-3.66-1.39l.61-1.85a1.74 1.74 0 011.78-1.19l9.21.66a1.73 1.73 0 011.59 1.46l.29 1.83a5.47 5.47 0 00-3.75.85zm8.34-2.88a.63.63 0 00-.72 1 6.08 6.08 0 012.75 5.31c0 .81 1.24.91 1.26.09a7.37 7.37 0 00-3.29-6.4zm2.47-1.59a.63.63 0 00-.72 1 6.08 6.08 0 012.75 5.31c0 .81 1.24.91 1.26.09a7.37 7.37 0 00-3.29-6.4zM369 44.8a.64.64 0 11.56 1.14 6.08 6.08 0 00-3.48 4.86c-.09.81-1.35.72-1.26-.09A7.37 7.37 0 01369 44.8zm-2.16-1.93a.64.64 0 11.56 1.13 6.08 6.08 0 00-3.48 4.86c-.09.81-1.35.72-1.26-.09a7.37 7.37 0 014.18-5.9zm-114.27 5.2l.45 2-5.17 1.14.4 1.83 4.67-1 .45 2-4.67 1 .41 1.84 5.31-1.17.45 2-7.87 1.86-2.16-9.8zm8.07 1.28l.35 1.59-6.23 1.37-.35-1.6zm.66 3l.35 1.59-6.23 1.37-.35-1.59zm14.02-4.01l1 4.77-2.49.55-.89-4.05a1.25 1.25 0 00-1.35-1.14h-.2a1.54 1.54 0 00-1.08 1.89v.11l.82 3.73-2.49.55-.89-4.05a1.25 1.25 0 00-1.35-1.14h-.2a1.55 1.55 0 00-1.09 1.9v.1l.82 3.73-2.47.54-1.66-7.56 2.47-.54.33 1.27a2.76 2.76 0 012.16-1.88 2.57 2.57 0 012.89 1.14 2.76 2.76 0 012.27-2.26 2.69 2.69 0 013.4 2.32zm4.91-1.95a1.65 1.65 0 00-1.15 2v.13c.24 1.1 1 1.7 1.91 1.5a1.59 1.59 0 001.29-1.18l2.06.64a4.08 4.08 0 01-7.77-.4 3.77 3.77 0 012.59-4.66l.46-.1a3.82 3.82 0 013.78 1l-1.57 1.45a1.77 1.77 0 00-1.6-.38zm6.13-5.31c-.07-.3-.34-.43-.75-.34a2.71 2.71 0 00-1.4 1.06l-.79-1a4 4 0 012.14-1.36c1.14-.25 2.09.16 2.29 1a3.1 3.1 0 01-.68 2.11l-.9 1.41 2.4-.53.26 1.18-4.28.94-.22-1L286 42a1.72 1.72 0 00.36-.92zm-88.25 167.63a10.71 10.71 0 00-5.21 8.38 12.12 12.12 0 003.54 9.31 16.39 16.39 0 005.14 3.36c5.21 2.25 12.18 2.64 16.95-.84 1.47-1.07 3-2.78 2.81-4.73-.16-2.18-2.11-2.59-3.74-3.36a8.32 8.32 0 01-3.32-3.55c-1.8-3.09-3.39-6.56-6.42-8.47a9.6 9.6 0 00-9.76-.09zm8.73 20.76a2.16 2.16 0 111.14-2.84 2.16 2.16 0 01-1.14 2.84zm7.67-6.38a1.58 1.58 0 11-2-1 1.58 1.58 0 012 1zm-12.7.38a2.16 2.16 0 11-2.83-1.15 2.16 2.16 0 012.8 1.14zm-4.48-2.65a2.16 2.16 0 111.14-2.84 2.16 2.16 0 01-1.14 2.84zm9.74-7.63a2.16 2.16 0 11-2.84-1.14 2.16 2.16 0 012.84 1.14zm-6.29-1.12a2.16 2.16 0 11-2.84-1.14 2.16 2.16 0 012.84 1.14zm-15.87 18.45a.1.1 0 000 .08l.08.08.17.11.11.06.11.06.17.09c3.15 1.56 15.72 5.61 23.59 7.84l.56.16c.55.15 1.23.33 1.95.5l1.29.29.42.09 1.14.21.62.08h.06a1.87 1.87 0 001.44 1.22 2.13 2.13 0 00.43 0 8.16 8.16 0 001.71-.33 2.83 2.83 0 012.37.59l.12.09.28.23a6.51 6.51 0 00-1.08-2.45 5.07 5.07 0 00-2.26-1.73 2.67 2.67 0 00-2-.06 2.16 2.16 0 00-.4.23 16.75 16.75 0 00-1.74-.71c-1.19-.44-2.6-.89-3.58-1.17-8.85-2.43-25.34-6.37-25.56-5.56z"/><path class="l" d="M125.94 3.79l-2.69 3 .95 3.92-3.69-1.63-3.43 2.11.41-4.01-3.07-2.61 3.94-.84L119.89 0l2.03 3.48 4.02.31zm98.95 169.87l-2.69 3 .95 3.92-3.69-1.63-3.43 2.11.41-4.01-3.07-2.61 3.94-.85 1.53-3.72 2.03 3.48 4.02.31zm108.3-118.57l-3.95.79-1.59 3.71-1.98-3.52-4.01-.36 2.73-2.96-.89-3.93 3.66 1.68 3.46-2.07-.47 4 3.04 2.66zM543.51 8.98l-3.95.79-1.58 3.71L536 9.96l-4.01-.36 2.73-2.96-.89-3.93 3.66 1.68 3.46-2.07-.47 4.01 3.03 2.65zm-41.1 135.8l-3.95.8-1.58 3.7-1.98-3.51-4.01-.36 2.73-2.97-.9-3.92 3.67 1.68 3.46-2.07-.47 4 3.03 2.65zm43.9 158.06l-3.95.79-1.59 3.71-1.98-3.51-4.01-.37 2.73-2.96-.89-3.93 3.66 1.68 3.46-2.06-.47 4 3.04 2.65zM92.61 145.75l-3.95.79-1.58 3.7-1.98-3.51-4.01-.36 2.73-2.97-.89-3.92 3.66 1.68 3.46-2.07-.47 4 3.03 2.66z"/><path class="f" d="M398.18 118.53l-7.49 1.3-6-4.69a14 14 0 00-12.7-2.6c-5.26 1.64-11.23 6.87-14.1 21.23-5.74 28.73 21 33.08 21 33.08s25.6 8.8 34.12-19.23c4.26-14 1.47-21.45-2.39-25.38a14 14 0 00-12.44-3.71z"/><path class="g" d="M386.9 168.13a29.68 29.68 0 01-8-1.28s-26.71-4.35-21-33.07c2.88-14.37 8.85-19.58 14.1-21.23a14 14 0 0112.7 2.59l2.14 1.68c-5 1.93-10.49 7.33-13.22 20.91-3.62 18.34 5.88 26.73 13.28 30.4z"/><path class="e" d="M403.09 109.89a18.06 18.06 0 00-17.34 15.82c-.38 2.83 4 3.87 4.36 1 .94-7 6-12 13.13-12.33 2.88-.16 2.76-4.67-.15-4.49z"/><path class="p" d="M385.94 104.29c4.27 7.13 1 16.94 1 16.94s-10.2-1.74-14.47-8.87-1-16.94-1-16.94 10.21 1.74 14.47 8.87z"/><path class="m" d="M459.4 179.28c-4.35 1.12-18.71 8.66-26.4 13.28-39.62 23.78-109.59 69.64-107.5 73.15S401 229 440.59 205.21c7.69-4.62 21-13.53 24.13-17.06z"/><path class="l" d="M440.59 205.21c7.69-4.62 21-13.53 24.13-17.06l-5.33-8.88c-4.35 1.12-18.71 8.66-26.4 13.28l-2.61 1.57 7.62 12.66z"/><path class="n" d="M332.74 263.77c-4.26 1.79-6.88 2.55-7.24 1.93-2.1-3.5 67.89-49.37 107.49-73.15 7.7-4.62 22.06-12.15 26.4-13.27l2.13 3.55c-4.34 1.12-18.7 8.65-26.4 13.27-32.58 19.61-85.75 54.09-102.38 67.67z"/><path class="k" d="M461.51 182.82c-4.34 1.13-18.7 8.66-26.4 13.28l-2.58 1.61-2.13-3.54 2.6-1.57c7.7-4.62 22.06-12.16 26.4-13.28z"/><path class="e" d="M458.84 185.37a9.35 9.35 0 01-.53-7.76c1-3 3.84-5.32 6.85-6.81a25 25 0 0113.84-2.25 32.16 32.16 0 0112.47 4.4c-.61.07-1.2.14-1.79.24a3.41 3.41 0 00-.71.13c-4.22.79-7.73 2.55-10.14 6.51-1.48 2.45-2.6 5.11-4.61 7.25a10.42 10.42 0 01-1.61 1.41 9.34 9.34 0 01-13.78-3.12z"/><path class="c" d="M18.58 42.09l42.2 43.15a3.1 3.1 0 01-.05 4.38L54.25 96a3.1 3.1 0 01-4.38 0L7.66 52.77a3.11 3.11 0 010-4.4L14.13 42a3.11 3.11 0 014.4 0z"/><path class="b" d="M7.71 48.37a3.11 3.11 0 000 4.4L49.9 95.91a3.11 3.11 0 004.4 0l3.23-3.17L11 45.2z"/><path class="c" d="M1 35a3.26 3.26 0 00-.7 3.65l1 2.22A16.74 16.74 0 004.71 46l2.89 3 3.6-3.52 3.6-3.52-2.89-3a16.74 16.74 0 00-5-3.52l-2.2-1A3.26 3.26 0 001 35z"/><path class="b" d="M3.63 34.13a3.06 3.06 0 00.24 1l1 2.22a16.65 16.65 0 003.41 5.09l2.89 3L7.57 49l-2.89-3a16.65 16.65 0 01-3.41-5.09l-1-2.23A3.24 3.24 0 011 35a3.2 3.2 0 012.63-.87z"/><path class="e" d="M8.717 53.85l10.917-10.676 2.168 2.217-10.918 10.676zm4.41 4.522l10.925-10.683 2.167 2.216-10.924 10.683z"/><ellipse class="e" cx="33.65" cy="68.43" rx="3.87" ry="10.59" transform="rotate(-44.36 33.649 68.426)"/><path class="e" d="M41.895 87.774L52.819 77.09l2.168 2.216L44.062 89.99zm4.425 4.536l10.917-10.677 2.167 2.216-10.917 10.677z"/><path class="p" d="M330 218.87L289.91 264a3.1 3.1 0 01-4.38.26l-6.76-6a3.1 3.1 0 01-.28-4.37l40.11-45.13a3.11 3.11 0 014.39-.27l6.76 6a3.11 3.11 0 01.28 4.39z"/><path class="q" d="M323 208.47a3.11 3.11 0 00-4.39.26l-40.09 45.1a3.11 3.11 0 00.26 4.39l3.39 3 44.22-49.75z"/><path class="p" d="M335.84 200.83a3.26 3.26 0 00-3.66-.46l-2.18 1.11a16.75 16.75 0 00-4.84 3.76l-2.75 3.09 3.79 3.38L330 215l2.75-3.09a16.75 16.75 0 003.16-5.24l.85-2.27a3.26 3.26 0 00-.92-3.57z"/><path class="q" d="M336.92 203.39a3.06 3.06 0 00-1 .31l-2.15 1.12a16.65 16.65 0 00-4.83 3.76l-2.72 3.13-3.76-3.35 2.74-3.09a16.65 16.65 0 014.83-3.76l2.16-1.11a3.24 3.24 0 013.65.45 3.2 3.2 0 011.08 2.54z"/><path class="e" d="M315.55 212.184l2.06-2.317 11.413 10.144-2.06 2.317zm-4.21 4.708l2.06-2.317 11.413 10.144-2.059 2.317z"/><ellipse class="e" cx="304.81" cy="235.73" rx="10.59" ry="3.87" transform="rotate(-48.37 304.813 235.722)"/><path class="e" d="M284.037 247.62l2.06-2.318 11.42 10.151-2.059 2.317zm-4.211 4.728l2.06-2.317 11.42 10.151-2.06 2.317z"/><path class="g" d="M301.39 192l-58 16.69a3.1 3.1 0 01-3.84-2.12l-2.5-8.69a3.1 3.1 0 012.1-3.85l58-16.69a3.11 3.11 0 013.85 2.13l2.5 8.69a3.11 3.11 0 01-2.12 3.86z"/><path class="f" d="M301 179.48a3.11 3.11 0 00-3.85-2.13l-58 16.68a3.11 3.11 0 00-2.13 3.85l1.26 4.35 64-18.41z"/><path class="g" d="M316 179.89a3.26 3.26 0 00-2.84-2.34l-2.41-.21a16.74 16.74 0 00-6.1.59l-4 1.14 1.35 4.83 1.41 4.81 4-1.14a16.75 16.75 0 005.48-2.74l1.93-1.46a3.26 3.26 0 001.18-3.48z"/><path class="f" d="M315.5 182.63a3.06 3.06 0 00-1-.26l-2.42-.2a16.65 16.65 0 00-6.09.59l-4 1.14-1.39-4.84 4-1.14a16.65 16.65 0 016.09-.59l2.42.22a3.24 3.24 0 012.84 2.33 3.2 3.2 0 01-.45 2.75z"/><path class="e" d="M292.734 178.623l2.98-.857 4.221 14.675-2.979.857zm-6.086 1.765l2.98-.857 4.221 14.675-2.979.857z"/><ellipse class="e" cx="271.07" cy="192.81" rx="10.59" ry="3.87" transform="rotate(-16.05 271.07 192.806)"/><path class="e" d="M247.149 191.746l2.979-.857 4.225 14.685-2.98.857zm-6.092 1.736l2.98-.857 4.224 14.685-2.98.857z"/></svg>