<svg xmlns="http://www.w3.org/2000/svg" xmlns:xlink="http://www.w3.org/1999/xlink"><symbol id="chevron-icon" viewBox="0 0 512 512"><path d="M256 512c-68.379 0-132.668-26.629-181.02-74.98C26.63 388.668 0 324.379 0 256S26.629 123.332 74.98 74.98C123.332 26.63 187.621 0 256 0s132.668 26.629 181.02 74.98C485.37 123.332 512 187.621 512 256s-26.629 132.668-74.98 181.02C388.668 485.37 324.379 512 256 512zm0-472C136.898 40 40 136.898 40 256s96.898 216 216 216 216-96.898 216-216S375.102 40 256 40zm104.285 216L222 117.715 193.715 146l110 110-110 110L222 394.285zm0 0"/></symbol><symbol id="chat-icon" viewBox="0 0 60 60"><path d="M30 1.5c-16.542 0-30 12.112-30 27 0 5.204 1.646 10.245 4.768 14.604-.591 6.537-2.175 11.39-4.475 13.689a1 1 0 00.846 1.697c.405-.057 9.813-1.411 16.618-5.339C21.621 54.71 25.737 55.5 30 55.5c16.542 0 30-12.112 30-27s-13.458-27-30-27zm-14 31c-2.206 0-4-1.794-4-4s1.794-4 4-4 4 1.794 4 4-1.794 4-4 4zm14 0c-2.206 0-4-1.794-4-4s1.794-4 4-4 4 1.794 4 4-1.794 4-4 4zm14 0c-2.206 0-4-1.794-4-4s1.794-4 4-4 4 1.794 4 4-1.794 4-4 4z"/></symbol><symbol id="check-icon" viewBox="0 0 448.8 448.8"><path d="M142.8 323.85L35.7 216.75 0 252.45l142.8 142.8 306-306-35.7-35.7z"/></symbol><symbol id="ntf-icon" viewBox="0 0 443.295 443.295"><path d="M367.117 319.43c-4.613-11.499-6.94-23.62-6.94-36.012v-89.476c0-62.068-41.31-114.116-97.677-131.676-3.35-19.579-20.331-34.56-40.852-34.56s-37.502 14.981-40.852 34.56c-56.367 17.56-97.677 69.608-97.677 131.676v89.476c0 12.392-2.327 24.513-6.94 36.012L56.4 368.889a13.87 13.87 0 001.393 12.906 13.84 13.84 0 0011.472 6.088h105.306c9.822 16.694 27.341 27.706 47.077 27.706s37.255-11.012 47.077-27.706H374.03c4.6 0 8.888-2.273 11.472-6.088a13.87 13.87 0 001.393-12.906l-19.778-49.459zM89.72 360.177l12.189-30.466a124.087 124.087 0 008.915-46.294v-89.476c0-61.121 49.716-110.824 110.824-110.824s110.823 49.703 110.823 110.824v89.476a124.09 124.09 0 008.915 46.294l12.189 30.466zM26.096 117.344C9.023 149.325 0 185.391 0 221.647s9.023 72.322 26.096 104.303l24.432-13.041c-15.138-28.382-22.822-59.091-22.822-91.262 0-32.17 7.684-62.879 22.822-91.262l-24.432-13.041zm391.103 0l-24.432 13.041c15.138 28.382 22.822 59.091 22.822 91.262 0 32.17-7.684 62.879-22.822 91.262l24.432 13.041c17.073-31.981 26.096-68.047 26.096-104.303 0-36.255-9.023-72.322-26.096-104.303z"/></symbol><symbol id="settings-icon" viewBox="0 0 54 54"><path d="M27 13c-7.72 0-14 6.28-14 14s6.28 14 14 14 14-6.28 14-14-6.28-14-14-14zm0 26c-6.617 0-12-5.383-12-12s5.383-12 12-12 12 5.383 12 12-5.383 12-12 12z"/><path d="M51.22 21h-2.018a22.792 22.792 0 00-2.26-5.457l1.426-1.426a2.763 2.763 0 00.814-1.966c0-.743-.289-1.441-.814-1.967l-4.553-4.553c-1.05-1.049-2.881-1.051-3.933 0l-1.426 1.426A22.856 22.856 0 0033 4.798V2.78A2.783 2.783 0 0030.22 0h-6.44A2.783 2.783 0 0021 2.78v2.018a22.842 22.842 0 00-5.457 2.26l-1.426-1.426c-1.051-1.052-2.883-1.05-3.933 0l-4.553 4.553a2.764 2.764 0 00-.814 1.967c0 .742.289 1.44.814 1.966l1.426 1.426A22.765 22.765 0 004.798 21H2.78A2.783 2.783 0 000 23.78v6.439A2.783 2.783 0 002.78 33h2.018a22.842 22.842 0 002.26 5.457l-1.426 1.426a2.763 2.763 0 00-.814 1.966c0 .743.289 1.441.814 1.967l4.553 4.553c1.05 1.051 2.882 1.052 3.933 0l1.426-1.426a22.883 22.883 0 005.457 2.26v2.018a2.783 2.783 0 002.78 2.78h6.439a2.783 2.783 0 002.78-2.78v-2.018a22.842 22.842 0 005.457-2.26l1.426 1.426c1.052 1.052 2.882 1.05 3.933 0l4.553-4.553a2.764 2.764 0 00.814-1.967c0-.742-.289-1.44-.814-1.966l-1.426-1.426A22.883 22.883 0 0049.203 33h2.018a2.783 2.783 0 002.78-2.78v-6.44A2.785 2.785 0 0051.22 21zm.78 9.22c0 .43-.35.78-.78.78h-3.592l-.18.773a20.885 20.885 0 01-2.613 6.311l-.42.674 2.539 2.539a.78.78 0 010 1.104l-4.553 4.553a.78.78 0 01-1.104 0l-2.539-2.539-.674.42a20.839 20.839 0 01-6.311 2.613l-.773.18v3.592c0 .43-.35.78-.78.78h-6.44c-.43 0-.78-.35-.78-.78v-3.592l-.773-.18a20.885 20.885 0 01-6.311-2.613l-.674-.42-2.539 2.539a.78.78 0 01-1.104 0l-4.553-4.553a.78.78 0 010-1.104l2.539-2.539-.42-.674a20.839 20.839 0 01-2.613-6.311L6.372 31H2.78c-.43 0-.78-.35-.78-.78v-6.44c0-.43.35-.78.78-.78h3.592l.18-.773a20.864 20.864 0 012.613-6.311l.42-.674-2.539-2.539a.78.78 0 010-1.104l4.553-4.553a.78.78 0 011.104 0l2.539 2.539.674-.42a20.839 20.839 0 016.311-2.613l.773-.18V2.78c0-.43.35-.78.78-.78h6.439c.431 0 .781.35.781.78v3.592l.773.18a20.885 20.885 0 016.311 2.613l.674.42 2.539-2.539a.78.78 0 011.104 0l4.553 4.553a.78.78 0 010 1.104l-2.539 2.539.42.674a20.818 20.818 0 012.613 6.311l.18.773h3.592c.43 0 .78.35.78.78v6.44z"/><path d="M27 17c-5.514 0-10 4.486-10 10s4.486 10 10 10 10-4.486 10-10-4.486-10-10-10zm0 18c-4.411 0-8-3.589-8-8s3.589-8 8-8 8 3.589 8 8-3.589 8-8 8z"/></symbol><symbol id="sort-icon" viewBox="0 0 292.362 292.362"><path d="M286.935 69.377c-3.614-3.617-7.898-5.424-12.848-5.424H18.274c-4.952 0-9.233 1.807-12.85 5.424C1.807 72.998 0 77.279 0 82.228c0 4.948 1.807 9.229 5.424 12.847l127.907 127.907c3.621 3.617 7.902 5.428 12.85 5.428s9.233-1.811 12.847-5.428L286.935 95.074c3.613-3.617 5.427-7.898 5.427-12.847 0-4.948-1.814-9.229-5.427-12.85z"/></symbol><symbol id="wallet-icon" viewBox="0 0 469.341 469.341"><path d="M448.004 236.639v-65.965c0-22.368-17.35-40.559-39.271-42.323l-61.26-107c-5.677-9.896-14.844-16.969-25.813-19.906-10.917-2.917-22.333-1.385-32.104 4.302L79.553 128.007H42.67c-23.531 0-42.667 19.135-42.667 42.667v256c0 23.531 19.135 42.667 42.667 42.667h362.667c23.531 0 42.667-19.135 42.667-42.667v-65.965c12.389-4.418 21.333-16.147 21.333-30.035v-64c0-13.888-8.944-25.617-21.333-30.035zM300.295 24.184a20.64 20.64 0 0115.844-2.135c5.448 1.458 9.99 4.979 12.813 9.906l20.785 36.305c-9.48 4.214-19.598 6.414-29.733 6.414-22.909 0-43.901-10.397-57.992-28.203l38.283-22.287zm-56.813 33.075c18.094 24.393 45.949 38.749 76.522 38.749 13.84 0 27.561-3.263 40.311-9.272l23.629 41.272H121.953l121.529-70.749zM426.67 426.674c0 11.76-9.573 21.333-21.333 21.333H42.67c-11.76 0-21.333-9.573-21.333-21.333v-256c0-11.76 9.573-21.333 21.333-21.333h362.667c11.76 0 21.333 9.573 21.333 21.333v64h-64c-35.292 0-64 28.708-64 64s28.708 64 64 64h64v64zm21.334-96c0 5.885-4.781 10.667-10.667 10.667H362.67c-23.531 0-42.667-19.135-42.667-42.667 0-23.531 19.135-42.667 42.667-42.667h74.667c5.885 0 10.667 4.781 10.667 10.667v64z"/><path d="M362.67 277.341c-11.76 0-21.333 9.573-21.333 21.333 0 11.76 9.573 21.333 21.333 21.333 11.76 0 21.333-9.573 21.333-21.333.001-11.76-9.572-21.333-21.333-21.333z"/></symbol><symbol id="alert-icon" viewBox="0 0 512 512"><path d="M503.839 395.379l-195.7-338.962C297.257 37.569 277.766 26.315 256 26.315c-21.765 0-41.257 11.254-52.139 30.102L8.162 395.378c-10.883 18.85-10.883 41.356 0 60.205 10.883 18.849 30.373 30.102 52.139 30.102h391.398c21.765 0 41.256-11.254 52.14-30.101 10.883-18.85 10.883-41.356 0-60.205zm-25.978 45.207c-5.461 9.458-15.241 15.104-26.162 15.104H60.301c-10.922 0-20.702-5.646-26.162-15.104-5.46-9.458-5.46-20.75 0-30.208L229.84 71.416c5.46-9.458 15.24-15.104 26.161-15.104 10.92 0 20.701 5.646 26.161 15.104l195.7 338.962c5.459 9.458 5.459 20.75-.001 30.208z"/><path d="M241.001 176.01h29.996v149.982h-29.996zM256 355.99c-11.027 0-19.998 8.971-19.998 19.998s8.971 19.998 19.998 19.998c11.026 0 19.998-8.971 19.998-19.998S267.027 355.99 256 355.99z"/></symbol><symbol id="avatar-icon" viewBox="0 0 483 483"><path d="M239.7 260.2h3.2c29.3-.5 53-10.8 70.5-30.5 38.5-43.4 32.1-117.8 31.4-124.9-2.5-53.3-27.7-78.8-48.5-90.7C280.8 5.2 262.7.4 242.5 0h-1.7c-11.1 0-32.9 1.8-53.8 13.7-21 11.9-46.6 37.4-49.1 91.1-.7 7.1-7.1 81.5 31.4 124.9 17.4 19.7 41.1 30 70.4 30.5zm-75.1-152.9c0-.3.1-.6.1-.8 3.3-71.7 54.2-79.4 76-79.4h1.2c27 .6 72.9 11.6 76 79.4 0 .3 0 .6.1.8.1.7 7.1 68.7-24.7 104.5-12.6 14.2-29.4 21.2-51.5 21.4h-1c-22-.2-38.9-7.2-51.4-21.4-31.7-35.6-24.9-103.9-24.8-104.5z"/><path d="M446.8 383.6v-.3c0-.8-.1-1.6-.1-2.5-.6-19.8-1.9-66.1-45.3-80.9-.3-.1-.7-.2-1-.3-45.1-11.5-82.6-37.5-83-37.8-6.1-4.3-14.5-2.8-18.8 3.3-4.3 6.1-2.8 14.5 3.3 18.8 1.7 1.2 41.5 28.9 91.3 41.7 23.3 8.3 25.9 33.2 26.6 56 0 .9 0 1.7.1 2.5.1 9-.5 22.9-2.1 30.9-16.2 9.2-79.7 41-176.3 41-96.2 0-160.1-31.9-176.4-41.1-1.6-8-2.3-21.9-2.1-30.9 0-.8.1-1.6.1-2.5.7-22.8 3.3-47.7 26.6-56 49.8-12.8 89.6-40.6 91.3-41.7 6.1-4.3 7.6-12.7 3.3-18.8-4.3-6.1-12.7-7.6-18.8-3.3-.4.3-37.7 26.3-83 37.8-.4.1-.7.2-1 .3-43.4 14.9-44.7 61.2-45.3 80.9 0 .9 0 1.7-.1 2.5v.3c-.1 5.2-.2 31.9 5.1 45.3 1 2.6 2.8 4.8 5.2 6.3 3 2 74.9 47.8 195.2 47.8s192.2-45.9 195.2-47.8c2.3-1.5 4.2-3.7 5.2-6.3 5-13.3 4.9-40 4.8-45.2z"/></symbol><symbol id="bank-icon" viewBox="0 0 509 509"><circle cx="254.644" cy="254.644" r="254.644" data-original="#886C60" class="active-path" data-old_color="#886C60" fill="#1273eb"/><path data-original="#646B79" fill="#646b79" d="M115.285 161.399h279.057v273.293H115.285z"/><path data-original="#F1F3F7" fill="#f1f3f7" d="M479.449 149.87L254.644 34.246 29.838 149.87z"/><path data-original="#FCFCFD" fill="#fcfcfd" d="M126.474 126.474l128.17-65.78 128.169 65.78z"/><path data-original="#DEDEDF" fill="#dededf" d="M60.016 149.87h389.256v22.718H60.016zm0 273.632h389.256v22.718H60.016z"/><path data-original="#BDBDBE" data-old_color="#BDBDBE" fill="#bdbdbe" d="M40.011 445.203h429.266v22.718H40.011zm30.177-272.276v13.563c0 9.155 7.46 16.615 16.615 16.615h57.642c9.155 0 16.615-7.46 16.615-16.615v-13.563H70.188zm90.872 250.575v-13.563c0-9.155-7.46-16.615-16.615-16.615H86.803c-9.155 0-16.615 7.46-16.615 16.615v13.563h90.872z"/><path data-original="#DEDEDF" fill="#dededf" d="M86.124 203.105h59.338v190.559H86.124z"/><path d="M209.886 172.927v13.563c0 9.155 7.46 16.615 16.615 16.615h57.981c9.155 0 16.615-7.46 16.615-16.615v-13.563h-91.211zm90.872 250.575v-13.563c0-9.155-7.46-16.615-16.615-16.615h-57.981c-9.155 0-16.615 7.46-16.615 16.615v13.563h91.211z" data-original="#BDBDBE" data-old_color="#BDBDBE" fill="#bdbdbe"/><path data-original="#DEDEDF" fill="#dededf" d="M225.483 203.105h59.338v190.559h-59.338z"/><path d="M349.245 172.927v13.563c0 9.155 7.46 16.615 16.615 16.615h57.981c9.155 0 16.615-7.46 16.615-16.615v-13.563h-91.211zm90.872 250.575v-13.563c0-9.155-7.46-16.615-16.615-16.615H365.86c-9.155 0-16.615 7.46-16.615 16.615v13.563h90.872z" data-original="#BDBDBE" data-old_color="#BDBDBE" fill="#bdbdbe"/><path data-original="#DEDEDF" fill="#dededf" d="M365.181 203.105h59.338v190.559h-59.338z"/></symbol><symbol id="biometric-icon" viewBox="0 0 64 64"><path d="M49 33H15.714l-.743.011 1.856 4.176A2.004 2.004 0 0115 40c-.79 0-1.507-.466-1.828-1.188l-2.549-5.735-.223.004-.18.076A2 2 0 009 35v22c0 1.103.897 2 2 2h38c1.103 0 2-.897 2-2V35c0-1.103-.897-2-2-2zM30 54a8 8 0 110-16 8 8 0 010 16z" fill="#f4d75c" data-original="#F0BC5E" data-old_color="#f0bc5e"/><path d="M58 29H27v-6h2a.852.852 0 00.124-.008C34.184 22.36 38 18.037 38 12.938V8c0-1.654-1.346-3-3-3-.817 0-1.583.319-2.156.897a3.005 3.005 0 00-.875 2.154c.012 1.36.02 3.211.024 4.947a3.962 3.962 0 01-1.165 2.828A3.965 3.965 0 0128 17h-2.54A5.97 5.97 0 0027 13c0-3.309-2.691-6-6-6s-6 2.691-6 6a5.97 5.97 0 001.684 4.157C11.763 17.99 8 22.271 8 27.424c0 .533.054 1.057.133 1.576H6c-2.757 0-5 2.243-5 5v24c0 2.757 2.243 5 5 5h52c2.757 0 5-2.243 5-5V34c0-2.757-2.243-5-5-5zM21 9c2.206 0 4 1.794 4 4s-1.794 4-4 4-4-1.794-4-4 1.794-4 4-4zm-2.576 10H28a5.956 5.956 0 004.245-1.761 5.95 5.95 0 001.749-4.245 831.624 831.624 0 00-.024-4.96A1.023 1.023 0 0135 7c.551 0 1 .449 1 1v4.938A8.146 8.146 0 0128.936 21H26a1 1 0 00-1 1v7h-8v-6.421a1 1 0 00-1.449-.893A6.395 6.395 0 0012 27.425c0 .905.186 1.782.554 2.609l3.36 7.56a1.003 1.003 0 01-.507 1.321 1.022 1.022 0 01-1.32-.508l-3.36-7.561A8.346 8.346 0 0110 27.424C10 22.779 13.779 19 18.424 19zM14 27.424a4.39 4.39 0 011-2.798V29h-.69a4.379 4.379 0 01-.31-1.576zM3 41h1c.551 0 1 .448 1 1v8c0 .552-.449 1-1 1H3zm0 17v-5h1c1.654 0 3-1.346 3-3v-8c0-1.654-1.346-3-3-3H3v-5c0-1.654 1.346-3 3-3h2.646c.081.22.157.442.253.658l3.36 7.561a3.002 3.002 0 003.96 1.521 3.004 3.004 0 001.521-3.959L15.172 31H53v30H6c-1.654 0-3-1.346-3-3zm58 0c0 1.654-1.346 3-3 3h-3V31h3c1.654 0 3 1.346 3 3z" data-original="#000000" class="active-path" data-old_color="#000000" fill="#030715"/><path d="M57 41h2v10h-2zm-6-16c6.065 0 11-4.935 11-11v-2c0-6.065-4.935-11-11-11S40 5.935 40 12v2c0 6.065 4.935 11 11 11zm-9-13c0-4.962 4.038-9 9-9s9 4.038 9 9v2c0 4.962-4.038 9-9 9s-9-4.038-9-9z" data-original="#000000" class="active-path" data-old_color="#000000" fill="#030715"/><path d="M51 7c2.757 0 5 2.243 5 5v2c0 .88-.231 1.744-.668 2.499l1.73 1.002A6.987 6.987 0 0058 14v-2c0-3.86-3.14-7-7-7s-7 3.14-7 7h2c0-2.757 2.243-5 5-5zm0 14a6.988 6.988 0 004.667-1.783l-1.334-1.49A4.99 4.99 0 0151 19c-2.757 0-5-2.243-5-5h-2c0 3.86 3.14 7 7 7z" data-original="#000000" class="active-path" data-old_color="#000000" fill="#030715"/><path d="M51 11c.551 0 1 .449 1 1h2c0-1.654-1.346-3-3-3s-3 1.346-3 3v2c0 1.654 1.346 3 3 3s3-1.346 3-3h-2c0 .551-.449 1-1 1s-1-.449-1-1v-2c0-.551.449-1 1-1zm-9.293 27.707l-1.414-1.414-3.194 3.194C35.45 38.37 32.885 37 30 37c-4.962 0-9 4.037-9 9s4.038 9 9 9 9-4.037 9-9a8.94 8.94 0 00-.831-3.755zM37 46c0 3.859-3.14 7-7 7s-7-3.141-7-7 3.14-7 7-7a6.991 6.991 0 015.672 2.914L30 47.586l-3.293-3.293-1.414 1.414L30 50.414l6.633-6.633A6.94 6.94 0 0137 46z" data-original="#000000" class="active-path" data-old_color="#000000" fill="#030715"/></symbol><symbol id="black-back-close-envelope-shape-icon" viewBox="0 0 551 551"><path d="M501.613 491.782c12.381 0 23.109-4.088 32.229-12.16L377.793 323.567a2878.213 2878.213 0 00-10.801 7.767c-11.678 8.604-21.156 15.318-28.434 20.129-7.277 4.822-16.959 9.737-29.045 14.755-12.094 5.024-23.361 7.528-33.813 7.528h-.612c-10.453 0-21.72-2.503-33.813-7.528-12.093-5.018-21.775-9.933-29.045-14.755-7.277-4.811-16.75-11.524-28.434-20.129a1351.934 1351.934 0 00-10.771-7.809L16.946 479.622c9.119 8.072 19.854 12.16 32.234 12.16h452.433zM31.047 225.299C19.37 217.514 9.015 208.598 0 198.555V435.98l137.541-137.541c-27.516-19.21-62.969-43.562-106.494-73.14zm489.012 0c-41.865 28.336-77.447 52.73-106.75 73.195l137.486 137.492V198.555c-8.815 9.841-19.059 18.751-30.736 26.744z"/><path d="M501.613 59.013H49.181c-15.784 0-27.919 5.33-36.42 15.979C4.253 85.646.006 98.97.006 114.949c0 12.907 5.636 26.892 16.903 41.959 11.267 15.061 23.256 26.891 35.961 35.496 6.965 4.921 27.969 19.523 63.012 43.801a20367.497 20367.497 0 0149.505 34.395 8855.122 8855.122 0 0131.022 21.701c.985.691 2.534 1.799 4.59 3.269 2.215 1.591 5.018 3.61 8.476 6.107 6.659 4.816 12.191 8.709 16.597 11.683 4.4 2.975 9.731 6.298 15.985 9.988 6.249 3.685 12.143 6.456 17.675 8.299 5.533 1.842 10.655 2.766 15.367 2.766h.612c4.711 0 9.834-.924 15.368-2.766 5.531-1.843 11.42-4.608 17.674-8.299 6.248-3.69 11.572-7.02 15.986-9.988 4.406-2.974 9.938-6.866 16.598-11.683 3.451-2.497 6.254-4.517 8.469-6.102a643.575 643.575 0 014.596-3.274c6.684-4.651 17.1-11.892 31.104-21.616 25.482-17.705 63.01-43.764 112.742-78.281 14.957-10.447 27.453-23.054 37.496-37.803 10.025-14.749 15.051-30.22 15.051-46.408 0-13.525-4.873-25.098-14.598-34.737-9.736-9.627-21.265-14.443-34.584-14.443z"/></symbol><symbol id="book-icon" viewBox="0 0 496 496"><path data-original="#FFA64D" class="hovered-path" data-old_color="#FFA64D" fill="#f4d75c" d="M368 72h80v416h-80zM64 32h160v144H64z"/><path d="M464 32V0H32v32H0v368h272v56c0 22.056 17.944 40 40 40s40-17.944 40-40v-56h16v-16h-16v-16h16v-16h-16V165.576l-40-60-40 60V352h-16V16h192v80h-32v16h32v16h-48v16h48v16h-32v16h32v16h-48v16h48v16h-32v16h32v16h-48v16h48v16h-32v16h32v16h-48v16h48v16h-32v16h48V48h16v336h-80v16h96V32h-32zM304 176v192h16V176h16v224h-16v-16h-16v16h-16V176h16zm-16 240h48v16h-48v-16zm24 64c-13.232 0-24-10.768-24-24v-8h48v8c0 13.232-10.768 24-24 24zm17.056-320h-34.104L312 134.424 329.056 160zM272 384H16V48h16v320h240v16zm-32-32H48V16h192v336z" data-original="#333333" class="active-path" data-old_color="#333333" fill="#030715"/><path data-original="#333333" class="active-path" data-old_color="#333333" fill="#030715" d="M64 192h160v16H64zm0 32h160v16H64zm0 32h160v16H64zm0 32h160v16H64zm144 32h16v16h-16zm-144 0h128v16H64zm352 96h32v16h-32zm-16 32h48v16h-48z"/></symbol><symbol id="bussinesswoman-icon" viewBox="0 0 64 64"><path d="M51.121 35.131C49.733 32.702 49 29.863 49 26.923V18c0-9.374-7.626-17-17-17S15 8.626 15 18v8.924c0 2.914-.75 5.782-2.17 8.295a21.94 21.94 0 00-2.819 11.489c.041 1.302.209 2.634.501 3.959l.118.539a14.886 14.886 0 014.625-2.992l10.259-4.197A4 4 0 0028 40.315v-1.249a17.546 17.546 0 01-8-14.715v-1.395a6 6 0 013.636-5.515L27 16l1.658.829A30.04 30.04 0 0042.09 20H44v4.351a17.546 17.546 0 01-8 14.715v1.249a4 4 0 002.485 3.702l10.259 4.197a14.893 14.893 0 014.638 3.005l.118-.546c.332-1.533.5-3.106.5-4.673 0-3.812-.996-7.57-2.879-10.869z" fill="#f4d75c" data-original="#F0BC5E" class="hovered-path" data-old_color="#f0bc5e"/><path d="M49.123 47.289l-10.259-4.198A2.988 2.988 0 0137 40.314v-.718c4.921-3.401 8-9.039 8-15.246V19h-2.91c-4.484 0-8.975-1.06-12.985-3.065A1.991 1.991 0 0128 14.146V14c0-1.103.897-2 2-2s2 .897 2 2h2c0-2.206-1.794-4-4-4s-4 1.794-4 4v.146c0 .388.055.767.16 1.126l-2.917 1.25A6.995 6.995 0 0019 22.957v1.395a18.516 18.516 0 008 15.246v.718a2.987 2.987 0 01-1.864 2.776l-10.259 4.197A15.837 15.837 0 005 62v1h54v-1a15.837 15.837 0 00-9.877-14.711zm-6.247 4.916l-5.905 1.181L40.586 57l-4 4h-2.26l4.503-15.762 3.242 1.326zm-21.752 0l.806-5.641 3.241-1.326L29.674 61h-2.26l-4-4 3.614-3.614zm7.376-2.596c1.076.246 2.261.391 3.5.391 1.24 0 2.424-.145 3.5-.391L32.246 61h-.491zM21 24.351v-1.395a4.993 4.993 0 013.031-4.596l3.167-1.357c.293.286.633.53 1.014.72A31.178 31.178 0 0042.09 21H43v3.351a16.526 16.526 0 01-11 15.591 16.525 16.525 0 01-11-15.591zm7.964 16.445c.864.45 1.772.837 2.719 1.152l.317.106.316-.105a18.69 18.69 0 002.719-1.152 4.955 4.955 0 001.978 3.516l-.865 3.029c-2.297.813-5.998.814-8.296 0l-.865-3.029a4.96 4.96 0 001.977-3.517zm-13.33 8.343l4.15-1.698-.908 6.354 4.095.819L20.586 57l4 4H17v-7h-2v7H7.035a13.842 13.842 0 018.599-11.861zM49 61v-7h-2v7h-7.586l4-4-2.386-2.386 4.095-.819-.908-6.353 4.15 1.698A13.84 13.84 0 0156.964 61z" data-original="#000000" class="active-path" data-old_color="#000000" fill="#323232"/><circle cx="26" cy="24" r="1" data-original="#000000" class="active-path" data-old_color="#000000" fill="#323232"/><circle cx="38" cy="24" r="1" data-original="#000000" class="active-path" data-old_color="#000000" fill="#323232"/><path d="M36 32h-2c0 1.103-.897 2-2 2s-2-.897-2-2h-2c0 2.206 1.794 4 4 4s4-1.794 4-4z" data-original="#000000" class="active-path" data-old_color="#000000" fill="#323232"/></symbol><symbol id="calendar-icon" viewBox="0 0 512 512"><path d="M452 40h-24V0h-40v40H124V0H84v40H60C26.916 40 0 66.916 0 100v352c0 33.084 26.916 60 60 60h392c33.084 0 60-26.916 60-60V100c0-33.084-26.916-60-60-60zm20 412c0 11.028-8.972 20-20 20H60c-11.028 0-20-8.972-20-20V188h432v264zm0-304H40v-48c0-11.028 8.972-20 20-20h24v40h40V80h264v40h40V80h24c11.028 0 20 8.972 20 20v48z"/><path d="M76 230h40v40H76zm80 0h40v40h-40zm80 0h40v40h-40zm80 0h40v40h-40zm80 0h40v40h-40zM76 310h40v40H76zm80 0h40v40h-40zm80 0h40v40h-40zm80 0h40v40h-40zM76 390h40v40H76zm80 0h40v40h-40zm80 0h40v40h-40zm80 0h40v40h-40zm80-80h40v40h-40z"/></symbol><symbol id="cancel-icon" viewBox="-45 1 511 512"><path d="M413.465 71.793L350.543 8.871v62.805zm0 0"/><path d="M422.414 101.938h-87.043c-8.351-.016-15.117-6.79-15.117-15.145V0H67.387C59.02 0 52.238 6.781 52.238 15.145V286.09c15.77-6.59 33.059-10.235 51.188-10.235 6.918 0 13.71.532 20.347 1.555a15.056 15.056 0 01-.773-4.75c0-8.363 6.781-15.144 15.148-15.144h182.41c8.364 0 15.145 6.78 15.145 15.144 0 8.363-6.781 15.145-15.144 15.145H158.547c46.027 21.008 78.098 67.46 78.098 121.27 0 20.808-4.801 40.519-13.348 58.081H407.27c8.363 0 15.144-6.781 15.144-15.144zm-156.379 51.578c0 8.367-6.781 15.144-15.144 15.144H138.148c-8.367 0-15.148-6.777-15.148-15.144 0-8.364 6.781-15.145 15.148-15.145h112.743c8.363 0 15.144 6.781 15.144 15.145zm54.524 74.718h-182.41c-8.368 0-15.149-6.78-15.149-15.144 0-8.367 6.781-15.149 15.148-15.149h182.41c8.364 0 15.145 6.782 15.145 15.149 0 8.363-6.781 15.144-15.144 15.144zm0 0"/><path d="M206.352 409.074c0-56.754-46.172-102.926-102.926-102.926C46.672 306.148.5 352.32.5 409.074.5 465.828 46.672 512 103.426 512c56.754 0 102.926-46.172 102.926-102.926zm-59.622 44.262c-2.957 2.957-6.832 4.437-10.707 4.437s-7.753-1.48-10.71-4.437l-21.887-21.887-21.887 21.887a15.097 15.097 0 01-10.707 4.437 15.083 15.083 0 01-10.71-4.437c-5.915-5.914-5.915-15.504 0-21.418l21.886-21.887-21.887-21.886c-5.914-5.915-5.914-15.504 0-21.418s15.504-5.914 21.418 0l21.89 21.886 21.887-21.886c5.914-5.914 15.504-5.918 21.418 0 5.914 5.914 5.914 15.503 0 21.418l-21.886 21.886 21.886 21.887c5.91 5.914 5.91 15.504-.004 21.418zm0 0"/></symbol><symbol id="chat2-icon" viewBox="0 -37 434 434"><path d="M41 265.508h88.945L165.891 325l.086.137a11.612 11.612 0 009.835 5.402A11.606 11.606 0 00185.73 325l13.575-22.465h35.71l31.477 52.102c.028.047.059.09.086.136a11.106 11.106 0 0018.746 0c.028-.046.059-.09.086-.136l31.477-52.102H397c20.426-.02 36.977-16.574 37-37V103.621c-.023-20.426-16.574-36.976-37-37h-43V41c-.027-22.633-18.367-40.973-41-41H41C18.367.027.027 18.367 0 41v183.508c.023 22.633 18.367 40.972 41 41zM397 80.62c12.695.012 22.984 10.3 23 23v161.92c-.016 12.695-10.305 22.984-23 23h-84.063a7.006 7.006 0 00-5.992 3.379l-31 51.3-31-51.3a6.995 6.995 0 00-5.988-3.379h-31.2l13.915-23.031H313c22.633-.028 40.977-18.367 41-41V80.62zM14 41c.016-14.906 12.094-26.984 27-27h272c14.906.016 26.984 12.094 27 27v183.508c-.016 14.902-12.094 26.984-27 27h-95.27a7.001 7.001 0 00-5.992 3.379l-21.84 36.14a7.026 7.026 0 00-1.132 1.88l-12.957 21.44-35.926-59.46a6.996 6.996 0 00-5.992-3.38H41c-14.906-.015-26.984-12.097-27-27zm0 0"/><path d="M151.34 179.93a7 7 0 009.785.11l95.71-91.419a7.006 7.006 0 00.228-9.898 7.006 7.006 0 00-9.899-.227l-90.766 86.695-49.449-49.453c-2.734-2.734-7.164-2.734-9.898 0s-2.735 7.164 0 9.899zm0 0"/></symbol><symbol id="check-list-icon" viewBox="0 0 512 512"><circle cx="256" cy="256" r="256" fill="#31bafd"/><path d="M511.914 262.684L366.792 117.562l-15.969 22.082-37.935-37.933-89.643 204.857-78.35 87.526 117.819 117.819c136.06-3.504 245.712-113.165 249.2-249.229z" fill="#2b9ed8"/><path d="M358.284 398.222h-204.57c-6.347 0-11.493-5.146-11.493-11.493v-261.46c0-6.347 5.146-11.492 11.493-11.492h204.571c6.347 0 11.493 5.146 11.493 11.492v261.46c0 6.347-5.146 11.493-11.494 11.493z" fill="#324a5e"/><path d="M358.284 113.778H254.85v284.444h103.434c6.347 0 11.493-5.146 11.493-11.493V125.271c.001-6.347-5.145-11.493-11.493-11.493z" fill="#2b3b4e"/><path fill="#e9eff4" d="M162.047 131.017h187.906v249.966H162.047z"/><path fill="#cfdbe6" d="M254.845 131.017h95.108v249.966h-95.108z"/><path fill="#f9b54c" d="M199.111 101.71h113.778v39.65H199.111z"/><path fill="#f4a200" d="M254.845 101.71h58.039v39.65h-58.039z"/><path d="M175.407 175.407h18.963v18.963h-18.963zm0 48.994h18.963v18.963h-18.963zm0 48.976h18.963v18.963h-18.963zm0 48.993h18.963v18.963h-18.963z" fill="#c1321f"/><path d="M211.178 186.182h113.778v5.172H211.178zm0 49.424h113.778v5.172H211.178zm0 49.407h113.778v5.172H211.178zm0 49.425h113.778v5.172H211.178z" fill="#d0d1d3"/><path d="M254.845 186.182h70.104v5.172h-70.104zm0 49.424h70.104v5.172h-70.104zm0 49.407h70.104v5.172h-70.104zm0 49.425h70.104v5.172h-70.104z" fill="#a6a8aa"/></symbol><symbol id="click-icon" viewBox="0 0 512 512"><path d="M465.414 365.077l-234.667-192c-4.565-3.723-11.285-3.04-15.008 1.525a10.666 10.666 0 00-2.4 6.731v320a10.667 10.667 0 007.573 10.219c1.003.302 2.046.453 3.093.448a10.668 10.668 0 008.875-4.757L315.057 384h143.616c5.891-.007 10.661-4.788 10.654-10.679a10.669 10.669 0 00-3.913-8.244z" fill="#2196f3"/><path d="M224.006 106.667c-5.891 0-10.667-4.776-10.667-10.667V10.667C213.34 4.776 218.115 0 224.006 0s10.667 4.776 10.667 10.667V96c0 5.891-4.776 10.667-10.667 10.667zM138.673 192H53.34c-5.891 0-10.667-4.776-10.667-10.667s4.776-10.667 10.667-10.667h85.333c5.891 0 10.667 4.776 10.667 10.667S144.564 192 138.673 192zm256 0H309.34c-5.891 0-10.667-4.776-10.667-10.667s4.776-10.667 10.667-10.667h85.333c5.891 0 10.667 4.776 10.667 10.667S400.564 192 394.673 192zm-230.997-60.331a10.663 10.663 0 01-7.552-3.115L95.772 68.267c-4.189-4.189-4.189-10.979 0-15.168s10.979-4.189 15.168 0l60.267 60.352c4.171 4.16 4.179 10.914.019 15.085a10.667 10.667 0 01-7.571 3.134h.021zm-60.352 181.014a10.667 10.667 0 01-7.552-18.219l60.352-60.352c4.237-4.092 10.99-3.975 15.083.262 3.992 4.134 3.992 10.687 0 14.82l-60.267 60.373a10.665 10.665 0 01-7.616 3.116zm181.013-181.014a10.667 10.667 0 01-7.552-18.219l60.288-60.352c4.237-4.093 10.99-3.975 15.083.262 3.992 4.134 3.992 10.687 0 14.82l-60.267 60.352a10.661 10.661 0 01-7.552 3.137z" fill="#455a64"/></symbol><symbol id="clock2-icon" viewBox="-43 1 511 512"><g id="surface1"><path d="M318.305 3.266C316.367 1.223 313.715 0 310.96 0H146.246c-27.129 0-49.773 19.887-54.262 45.793-22.843 3.98-40.796 22.031-44.773 44.777C20.797 94.648.5 117.598.5 145.133v311.484C.5 487.012 25.078 512 55.473 512h223.566c27.129 0 49.672-19.79 54.262-45.695 23.355-3.567 41.918-21.926 45.894-45.18 25.907-4.488 45.59-27.129 45.59-54.363V119.535c0-2.652-.918-5.203-2.754-7.14zm2.449 32.738l70.172 73.129H345.64c-13.465 0-24.887-10.813-24.887-24.278zm-41.715 455.598H55.473c-19.176 0-34.575-15.809-34.575-34.985v-311.48c0-15.914 10.2-29.375 25.497-33.453v300.058c0 30.395 24.582 55.383 54.972 55.383h210.82c-4.386 14.277-17.542 24.477-33.148 24.477zm45.899-44.875h-223.57c-19.071 0-34.575-15.809-34.575-34.985V100.258c0-15.606 10.2-28.762 24.477-33.149v299.758c0 30.39 24.582 55.38 54.976 55.38h211.836c-4.383 14.28-17.543 24.48-33.144 24.48zm44.875-44.88H146.245c-19.074 0-34.574-15.808-34.574-34.984V55.383c0-19.074 15.398-34.985 34.574-34.985h154.11v64.457c0 24.786 20.5 44.676 45.285 44.676h58.746v237.332c0 19.176-15.399 34.985-34.575 34.985zm0 0"/><path d="M341.969 336.574h-167.88c-5.609 0-10.198 4.59-10.198 10.2 0 5.609 4.59 10.199 10.199 10.199h167.98c5.61 0 10.2-4.59 10.2-10.2 0-5.609-4.59-10.199-10.301-10.199zm-49.364-123.41h-28.964v-41.41c0-5.61-4.59-10.2-10.204-10.2-5.609 0-10.199 4.59-10.199 10.2v51.914c0 5.61 4.184 9.894 9.895 9.894h39.574c5.61 0 10.2-4.59 10.2-10.199 0-5.61-4.692-10.199-10.302-10.199zm0 0"/><path d="M258.027 112.293c-57.316 0-103.93 46.61-103.93 103.93 0 57.32 46.614 103.93 103.93 103.93 57.32 0 103.934-46.61 103.934-103.93 0-57.32-46.613-103.93-103.934-103.93zm0 187.46c-46.097 0-83.53-37.429-83.53-83.53 0-46.098 37.433-83.532 83.53-83.532 46.102 0 83.532 37.434 83.532 83.532 0 46.101-37.43 83.53-83.532 83.53zm0 0"/></g></symbol><symbol id="clock-icon" viewBox="0 0 496 496"><circle cx="248" cy="248" r="128" data-original="#F9BA48" data-old_color="#F9BA48" fill="#f4d75c"/><path d="M248 72c-97.048 0-176 78.952-176 176s78.952 176 176 176 176-78.952 176-176S345.048 72 248 72zm0 336c-88.224 0-160-71.776-160-160S159.776 88 248 88s160 71.776 160 160-71.776 160-160 160z" data-original="#333333" class="active-path" data-old_color="#333333" fill="#030614"/><path data-original="#333333" class="active-path" data-old_color="#333333" fill="#030614" d="M240 240H136v16h120V136h-16z"/><circle cx="248" cy="112" r="8" data-original="#333333" class="active-path" data-old_color="#333333" fill="#030614"/><circle cx="248" cy="384" r="8" data-original="#333333" class="active-path" data-old_color="#333333" fill="#030614"/><circle cx="384" cy="248" r="8" data-original="#333333" class="active-path" data-old_color="#333333" fill="#030614"/><circle cx="112" cy="248" r="8" data-original="#333333" class="active-path" data-old_color="#333333" fill="#030614"/><path d="M56.568 341.032L47.32 364.16C26.824 328.888 16 289.056 16 248 16 120.08 120.08 16 248 16c52.904 0 104.68 18.32 145.8 51.584l10.064-12.44C359.904 19.584 304.552 0 248 0 111.248 0 0 111.248 0 248c0 44.232 11.776 87.12 34.024 125.048L9.568 368.16l-3.136 15.68 46.52 9.304 18.48-46.176-14.864-5.936z" data-original="#333333" class="active-path" data-old_color="#333333" fill="#030614"/><circle cx="72" cy="408" r="8" data-original="#333333" class="active-path" data-old_color="#333333" fill="#030614"/><path d="M461.976 122.952l24.456 4.888 3.144-15.688-46.52-9.304-18.48 46.176 14.856 5.936 9.248-23.128C469.176 167.112 480 206.944 480 248c0 127.92-104.08 232-232 232-52.904 0-104.68-18.32-145.8-51.584l-10.064 12.44C136.096 476.416 191.448 496 248 496c136.752 0 248-111.248 248-248 0-44.232-11.776-87.12-34.024-125.048z" data-original="#333333" class="active-path" data-old_color="#333333" fill="#030614"/><circle cx="424" cy="88" r="8" data-original="#333333" class="active-path" data-old_color="#333333" fill="#030614"/></symbol><symbol id="contract-icon" viewBox="0 0 512 512"><circle cx="256" cy="256" r="256" fill="#f9b54c"/><path d="M512 256L369.778 113.778l-112.628 176.7-114.928 107.744L256 512c141.384 0 256-114.616 256-256z" fill="#f4a200"/><path fill="#e9eff4" d="M193.653 113.778l-51.431 51.431v233.013h227.556V113.778z"/><path d="M255.431 113.778h114.347v284.444H255.431zm-61.778 51.431v-51.431l-51.431 51.431z" fill="#cfdbe6"/><path d="M170.667 196.525h170.667v5.172H170.667zm0 28.445h170.667v5.172H170.667zm0 28.444h170.667v5.172H170.667zm0 28.445h170.667v5.172H170.667zm0 28.444h170.667v5.172H170.667zm104.508 43.672c-5.875.757-8.654-1.705-12.122-6.089-.717-.907-1.352-1.96-2.345-2.586-3.906-2.463-7.689.591-11.109 2.488l-9.847 5.465c-1.655.919-7.184 5.068-8.923 4.542.147.045-2.727-11.435-3.6-13.034-1.171-2.145-3.948-1.302-4.727.617-1.072 2.643-2.165 5.501-3.741 7.928-2.963 4.563-8.797 8.482-14.65 6.142-1.651-.66-2.836-1.905-3.636-3.472a21.348 21.348 0 005.463-6.966c1.965-4.024 4.618-10.949 2.788-15.4-1.641-3.993-4.934-4.02-7.858-1.424-5.601 4.973-8.064 14.093-6.26 21.647-3.624 2.103-7.933 2.334-11.91-1.414-2.422-2.281-6.085 1.369-3.656 3.656 5.311 5.004 11.893 5.211 17.449 2.493.862 1.503 1.933 2.875 3.281 4.013 10.2 8.607 19.301-.326 24.619-9.519.205 2.043.205 4.081.746 6.32.281 1.162.49 2.119 1.358 2.951 3.444 3.303 8.618-.598 11.643-2.277l11.254-6.244c3.381-1.876 5.972-4.239 10.385-1.389.743.479 1.022 1.693 1.726 2.231 4.308 3.289 8.04 5.217 13.667 4.491 3.26-.419 3.301-5.596.005-5.17zm-73.068-14.366c.946-1.188 1.117-3.17 1.658-.884.371 1.565-1.374 5.392-1.995 6.818-.648 1.488-1.545 2.95-2.61 4.282-.028-3.885 1.123-7.928 2.947-10.216z" fill="#d0d1d3"/><path d="M255.431 196.525h85.906v5.172h-85.906zm0 28.445h85.906v5.172h-85.906zm0 28.444h85.906v5.172h-85.906zm0 28.445h85.906v5.172h-85.906zm0 28.444h85.906v5.172h-85.906zm19.744 43.672c-5.875.757-8.654-1.705-12.122-6.089-.717-.907-1.352-1.96-2.345-2.586-1.795-1.131-3.562-1.093-5.282-.543v6.363c1.286-.102 2.691.229 4.355 1.305.743.479 1.022 1.693 1.726 2.231 4.308 3.289 8.04 5.217 13.667 4.491 3.256-.421 3.297-5.598.001-5.172z" fill="#a6a8aa"/><path d="M304.052 334.202l-23.957-15.334 99.668-155.724c4.234-6.616 13.029-8.547 19.646-4.311 6.616 4.234 8.547 13.029 4.311 19.646l-99.668 155.723z" fill="#324a5e"/><path d="M399.408 158.832c-.071-.045-.145-.079-.217-.124L291.955 326.461l12.097 7.742 99.668-155.726c4.234-6.616 2.303-15.411-4.312-19.645z" fill="#2b3b4e"/><path fill="#f9b54c" d="M276.74 350.492l27.312-16.29-23.957-15.335z"/><path fill="#f4a200" d="M276.77 350.217l-.03.275 27.312-16.29-12.097-7.743z"/></symbol><symbol id="cross-icon" viewBox="0 0 612 612"><path d="M612 36.004L576.521.603 306 270.608 35.478.603 0 36.004l270.522 270.007L0 575.997l35.478 35.4L306 341.411l270.521 269.986 35.479-35.4-270.541-269.986z" id="cross"/></symbol><symbol id="delete-icon" viewBox="0 0 512 512"><path d="M353.574 176.526l-40.078-1.47-8.689 237.284 40.078 1.464zm-117.626-.735h40.104v237.285h-40.104zm-28.762 236.543l-8.689-237.285-40.078 1.471 8.69 237.284z"/><path d="M17.379 76.867v40.104h41.789L92.32 493.706c.909 10.353 9.579 18.294 19.972 18.294h286.74c10.394 0 19.07-7.947 19.972-18.301l33.153-376.728h42.464V76.867H17.379zm363.286 395.029H130.654L99.426 116.971H411.9l-31.235 354.925z"/><path d="M321.504 0H190.496c-18.428 0-33.42 14.992-33.42 33.42v63.499h40.104V40.104h117.64v56.815h40.104V33.42c0-18.428-14.992-33.42-33.42-33.42z"/></symbol><symbol id="diploma-icon" viewBox="0 0 496 496"><path d="M353.574 176.526l-40.078-1.47-8.689 237.284 40.078 1.464zm-117.626-.735h40.104v237.285h-40.104zm-28.762 236.543l-8.689-237.285-40.078 1.471 8.69 237.284z"/><path d="M17.379 76.867v40.104h41.789L92.32 493.706c.909 10.353 9.579 18.294 19.972 18.294h286.74c10.394 0 19.07-7.947 19.972-18.301l33.153-376.728h42.464V76.867H17.379zm363.286 395.029H130.654L99.426 116.971H411.9l-31.235 354.925z"/><path d="M321.504 0H190.496c-18.428 0-33.42 14.992-33.42 33.42v63.499h40.104V40.104h117.64v56.815h40.104V33.42c0-18.428-14.992-33.42-33.42-33.42z"/></symbol><symbol id="dollar-icon" viewBox="0 -1 354 354"><path d="M49.059 337.836a7.007 7.007 0 005.289 5.621 7.012 7.012 0 007.246-2.664l15-20.36A175.359 175.359 0 00177.508 352c97.601 0 177-79.402 177-177a175.783 175.783 0 00-13.621-68.191 6.997 6.997 0 00-5.57-4.297 6.996 6.996 0 00-6.493 2.71 7.005 7.005 0 00-.855 6.989A161.844 161.844 0 01340.508 175c0 89.879-73.121 163-163 163a161.475 161.475 0 01-92.606-28.844l22.168-30.086a7.004 7.004 0 00.395-7.707 7.003 7.003 0 00-6.93-3.386l-54.945 7.132a7.01 7.01 0 00-6 8.14zm37.011-53.863L69.535 306.41c-.015.02-.031.035-.043.055-.015.02-.043.066-.066.101l-9.371 12.715-5.414-31.226zM177 14.254a161.475 161.475 0 0192.605 28.844l-22.168 30.086a7.007 7.007 0 00-.613 7.308 6.994 6.994 0 007.149 3.785l54.941-7.132a7.005 7.005 0 006-8.137l-9.46-54.59a6.986 6.986 0 00-5.29-5.617 6.997 6.997 0 00-7.242 2.66l-15 20.36A175.363 175.363 0 00177 .253c-97.602 0-177 79.402-177 177a175.854 175.854 0 0013.621 68.191 7.009 7.009 0 005.57 4.301 7.01 7.01 0 006.496-2.715 7.004 7.004 0 00.852-6.988A161.9 161.9 0 0114 177.253c0-89.878 73.121-163 163-163zm117.453 18.719l5.414 31.226-31.43 4.082 16.532-22.437c.015-.02.031-.035.047-.055.015-.02.043-.066.066-.102zm0 0"/><path d="M177.254 108.422c16.523.016 29.914 13.406 29.934 29.933a7.001 7.001 0 0014 0c-.028-21.55-15.665-39.91-36.934-43.37V81.128c0-3.867-3.133-7-7-7s-7 3.133-7 7v13.855c-22.602 3.657-38.606 24.059-36.774 46.88 1.829 22.82 20.88 40.41 43.774 40.421 16.465-.004 29.836 13.293 29.934 29.754.093 16.465-13.125 29.914-29.586 30.102-.118-.004-.23-.016-.348-.016-.117 0-.23.012-.348.016-16.386-.207-29.566-13.536-29.586-29.922a7.001 7.001 0 00-14 0c.028 21.55 15.664 39.91 36.934 43.37v15.54a7.001 7.001 0 0014 0v-15.54c22.601-3.655 38.605-24.058 36.773-46.878-1.828-22.824-20.879-40.414-43.773-40.422-16.465-.094-29.762-13.469-29.762-29.934 0-16.464 13.297-29.84 29.762-29.933zm0 0"/></symbol><symbol id="download-icon" viewBox="0 0 512 512"><path d="M414.317 213.105l-42.422-42.422c-5.859-5.859-15.352-5.859-21.211 0L300 221.367V15c0-8.291-6.709-15-15-15h-60c-8.291 0-15 6.709-15 15v206.367l-50.683-50.684c-5.859-5.859-15.352-5.859-21.211 0l-42.422 42.422c-5.859 5.859-5.859 15.352 0 21.211l148.711 148.711c5.859 5.86 15.351 5.86 21.21 0l148.712-148.711c5.859-5.859 5.859-15.352 0-21.211z"/><path d="M497 332h-60c-8.291 0-15 6.709-15 15v75H90v-75c0-8.291-6.709-15-15-15H15c-8.291 0-15 6.709-15 15v120c0 24.814 20.186 45 45 45h422c24.814 0 45-20.186 45-45V347c0-8.291-6.709-15-15-15z"/></symbol><symbol id="facebook-icon" viewBox="0 0 24 24"><path d="M15.997 3.985h2.191V.169C17.81.117 16.51 0 14.996 0c-3.159 0-5.323 1.987-5.323 5.639V9H6.187v4.266h3.486V24h4.274V13.267h3.345l.531-4.266h-3.877V6.062c.001-1.233.333-2.077 2.051-2.077z" class="active-path"/></symbol><symbol id="gauge-icon" viewBox="0 0 512 512"><circle cx="256" cy="256" r="256" fill="#ffc61b"/><path d="M505.16 314.985L361.398 171.223 215.776 283.582l-61.487 61.58 160.134 160.134c94.277-22.009 168.519-96.113 190.737-190.311z" fill="#eaa22f"/><circle cx="256" cy="256" r="122.397" fill="#ff7f4f"/><path d="M378.397 256c0 67.598-54.8 122.397-122.397 122.397S133.603 323.598 133.603 256h244.794z" fill="#fff"/><path d="M256 391.327c-74.619 0-135.327-60.707-135.327-135.327S181.381 120.673 256 120.673 391.327 181.381 391.327 256 330.619 391.327 256 391.327zm0-237.037c-56.082 0-101.71 45.628-101.71 101.71S199.918 357.71 256 357.71 357.71 312.082 357.71 256 312.082 154.29 256 154.29z" fill="#c92f00"/><path d="M256 120.673c-.193 0-.381.014-.574.014v33.616c.193-.002.381-.014.574-.014 56.082 0 101.71 45.628 101.71 101.71S312.082 357.71 256 357.71c-.193 0-.381-.014-.574-.014v33.616c.193 0 .381.014.574.014 74.619 0 135.327-60.707 135.327-135.327S330.619 120.673 256 120.673z" fill="#930000"/><path d="M318.861 193.05l-75.435 57.959c-5.153 5.153-5.153 13.507 0 18.66 5.153 5.153 13.507 5.153 18.66 0l56.775-76.619z" fill="#386895"/><path d="M243.426 269.667c5.153 5.153 13.507 5.153 18.66 0l56.777-76.619-75.437 76.619z" fill="#273b7a"/></symbol><symbol id="go-back-left-arrow-icon" viewBox="0 0 408 408"><path d="M408 178.5H96.9L239.7 35.7 204 0 0 204l204 204 35.7-35.7L96.9 229.5H408v-51z" id="arrow-back"/></symbol><symbol id="guarantee-icon" viewBox="0 0 291 291"><circle cx="164.57" cy="126.923" r="65.625" data-original="#F9BA48" class="hovered-path" data-old_color="#F9BA48" fill="#f4d75c"/><path d="M261.934 19.111c-32.906 0-65.076-6.197-95.62-18.412L164.57 0l-1.739.698C132.283 12.914 100.112 19.11 67.206 19.11H56.757v98.438H33.32c-7.753 0-14.062 6.309-14.062 14.062v79.688c0 7.753 6.309 14.063 14.062 14.063h42.21c11.072 17.592 26.414 32.123 44.705 42.094l44.334 24.183 44.334-24.183a121.73 121.73 0 0063.478-106.931V19.111h-10.447zM28.632 211.298V131.61c0-2.583 2.1-4.687 4.687-4.687h42.187a4.692 4.692 0 014.687 4.687v79.688c0 2.583-2.1 4.688-4.687 4.688H33.32a4.693 4.693 0 01-4.688-4.688zm60.938-70.354c15.652-.848 28.125-13.852 28.125-29.709V87.08c0-6.459 5.255-11.719 11.719-11.719s11.719 5.259 11.719 11.719v29.503c0 8.287 6.741 15.028 15.028 15.028h34.364c8.948 0 16.233 7.28 16.233 16.233v51.909c0 8.953-7.284 16.233-16.233 16.233h-69.066a11.092 11.092 0 01-9.239-4.945 20.438 20.438 0 00-17.039-9.117H89.57v-60.98zm173.437 19.579a112.365 112.365 0 01-58.589 98.7l-39.848 21.736-39.848-21.736c-16.308-8.897-30.089-21.708-40.223-37.205a13.963 13.963 0 004.978-9.797c9.459 16.317 23.081 29.686 39.736 38.77l35.358 19.289 35.358-19.289a102.986 102.986 0 0053.705-90.464V89.423h-9.375v71.105a93.614 93.614 0 01-48.816 82.233l-30.872 16.838-30.872-16.838c-13.209-7.205-24.305-17.386-32.644-29.705 1.308.82 2.48 1.861 3.366 3.188a20.438 20.438 0 0017.039 9.117h69.066c14.123 0 25.608-11.489 25.608-25.608v-51.909c0-14.119-11.484-25.608-25.608-25.608h-34.364a5.66 5.66 0 01-5.653-5.653V87.08c0-11.63-9.464-21.094-21.094-21.094s-21.094 9.464-21.094 21.094v24.15c0 10.688-8.292 19.378-18.769 20.217-.047-4.073-1.852-7.702-4.669-10.242V46.697a284.205 284.205 0 0079.687-16.566 284.254 284.254 0 0079.687 16.566v5.227h9.375V37.777l-4.472-.206a275.04 275.04 0 01-82.964-16.828l-1.627-.605-1.627.6a275.1 275.1 0 01-82.964 16.828l-4.472.211v79.772h-9.375V28.486h1.073c33.483 0 66.225-6.188 97.364-18.394 31.139 12.206 63.881 18.394 97.364 18.394h1.073v132.037h.002z" data-original="#333333" class="active-path" data-old_color="#333333" fill="#030715"/><path data-original="#333333" class="active-path" data-old_color="#333333" fill="#030715" d="M244.257 70.673h9.375v9.375h-9.375zM38.007 197.236h32.812v9.375H38.007z"/></symbol><symbol id="history-icon" viewBox="0 0 551 551"><path d="M275.531 172.228l-.05 120.493c0 4.575 1.816 8.948 5.046 12.177l86.198 86.181 24.354-24.354-81.153-81.136.05-113.361z"/><path d="M310.011 34.445c-121.23 0-221.563 90.033-238.367 206.674H0l86.114 86.114 86.114-86.114h-65.78C122.925 143.53 207.803 68.891 310.011 68.891c113.966 0 206.674 92.707 206.674 206.674s-92.707 206.674-206.674 206.674c-64.064 0-123.469-28.996-162.978-79.555l-27.146 21.192c46.084 58.968 115.379 92.808 190.124 92.808 132.955 0 241.119-108.181 241.119-241.119S442.966 34.446 310.011 34.445z"/></symbol><symbol id="homework-icon" viewBox="0 0 496 496"><path d="M128 160c-35.288 0-64-28.712-64-64s28.712-64 64-64 64 28.712 64 64-28.712 64-64 64zm240-32H240V32h128v96z" data-original="#F0BC5E" data-old_color="#F0BC5E" fill="#f4d75c"/><path d="M456 288h-24V48h-32V0H32v48H0v416h176.808c3.712 18.232 19.88 32 39.192 32s35.48-13.768 39.192-32H432v-96h24c22.056 0 40-17.944 40-40s-17.944-40-40-40zm-24 32h-32v16h32v16H304v-16h80v-16h-80v-16h128v16zm-144 27.056l-29.264-14.632A4.93 4.93 0 01256 328a4.93 4.93 0 012.736-4.424L288 308.944v38.112zM400 80V64h16v224h-16V96h-16v192h-89.888l-42.536 21.264C244.44 312.84 240 320.016 240 328s4.44 15.16 11.576 18.736L294.112 368H384v48H224V16h160v64h16zM48 16h160v400H48V16zm368 432H240v8c0 13.232-10.768 24-24 24s-24-10.768-24-24v-8H16V64h16v368h368v-64h16v80zm40-96h-8v-48h8c13.232 0 24 10.768 24 24s-10.768 24-24 24z" data-original="#000000" class="hovered-path active-path" data-old_color="#000000" fill="#030715"/><path data-original="#000000" class="hovered-path active-path" data-old_color="#000000" fill="#030715" d="M240 384h128v16H240zM96 176h96v16H96zm-32 32h128v16H64zm0 32h128v16H64zm0 32h128v16H64zm176-128h128v16H240zm0 32h128v16H240zm0 32h128v16H240zm0 32h72v16h-72zM64 304h128v16H64zm48 32h80v16h-80zm-48 0h32v16H64zm0 32h128v16H64zm0-192h16v16H64z"/></symbol><symbol id="information-icon" viewBox="0 0 512 512"><path d="M256 0C120.477 0 10.224 110.255 10.224 245.778c0 62.171 23.12 121.186 65.206 166.725l-13.707 88.342a9.675 9.675 0 009.557 11.156c1.52 0 3.046-.357 4.447-1.083l79.241-41.036c31.825 14.386 65.788 21.675 101.032 21.675 135.521 0 245.778-110.255 245.778-245.778C501.778 110.255 391.523 0 256 0zm0 472.211c-33.973 0-66.646-7.347-97.114-21.835a9.67 9.67 0 00-8.601.146l-66.524 34.45 11.51-74.177a9.675 9.675 0 00-2.582-8.184c-40.704-42.373-63.121-98.072-63.121-156.835C29.568 120.922 131.145 19.344 256 19.344s226.433 101.577 226.433 226.433S380.856 472.211 256 472.211z"/><path d="M256 70.708c-28.236 0-51.208 22.972-51.208 51.208 0 28.236 22.972 51.208 51.208 51.208 28.238 0 51.208-22.972 51.208-51.208 0-28.238-22.972-51.208-51.208-51.208zm0 83.072c-17.57 0-31.864-14.294-31.864-31.864S238.43 90.052 256 90.052c17.571 0 31.864 14.294 31.864 31.864S273.57 153.78 256 153.78zm56.758 203.96h-11.013V199.148c0-5.342-4.331-9.672-9.672-9.672h-92.828c-5.342 0-9.672 4.331-9.672 9.672v32.143c0 5.342 4.331 9.672 9.672 9.672h11.013V357.74h-11.013c-5.342 0-9.672 4.331-9.672 9.672v32.143c0 5.343 4.331 9.673 9.672 9.673h113.514c5.342 0 9.672-4.331 9.672-9.672v-32.143c-.001-5.342-4.332-9.673-9.673-9.673zm-9.673 32.144h-94.17v-12.8h11.013c5.342 0 9.672-4.331 9.672-9.672V231.291c0-5.342-4.331-9.672-9.672-9.672h-11.013v-12.798H282.4v158.593c0 5.342 4.331 9.672 9.672 9.672h11.013v12.798z"/></symbol><symbol id="laptop-icon" viewBox="0 0 496 496"><path d="M176 120v136h24v-16c0-8.84 7.16-16 16-16s16 7.16 16 16v16h88V120H176z" data-original="#FFA64D" data-old_color="#FFA64D" fill="#f4d75c"/><path d="M456 304V72c0-22.056-17.944-40-40-40H307.824C294.888 12.72 272.904 0 248 0s-46.888 12.72-59.824 32H80c-22.056 0-40 17.944-40 40v232H0v40c0 22.056 17.944 40 40 40h101.16a183.027 183.027 0 0025.152 49.8L184 458.56V496h128v-37.816c13.24-22.72 21.136-48.088 23.32-74.184H456c22.056 0 40-17.944 40-40v-40h-40zM248 16c30.88 0 56 25.12 56 56v48h16V96h72v176h16V96c0-8.824-7.176-16-16-16h-72v-8c0-8.424-1.528-16.48-4.2-24H416c13.232 0 24 10.768 24 24v232h-32v-16h-16v16h-62.24c-4.392-4.872-10.696-8-17.76-8-3.16 0-6.16.648-8.928 1.76C300.312 287.56 291.064 280 280 280c-3.16 0-6.16.648-8.928 1.76C268.312 271.56 259.064 264 248 264c-2.816 0-5.488.576-8 1.472V240c0-13.232-10.768-24-24-24s-24 10.768-24 24v64h-19.608c-4.72-4.968-11.328-8-18.632-8-7.312 0-13.88 3.096-18.576 8H104V96h168v24h16V72c0-22.056-17.944-40-40-40s-40 17.944-40 40c0 4.408-3.592 8-8 8s-8-3.592-8-8c0-30.88 25.12-56 56-56zm-56 304v48h-1.584l-10.672-48H192zm80-240h-49.472c.896-2.512 1.472-5.184 1.472-8 0-13.232 10.768-24 24-24s24 10.768 24 24v8zM56 72c0-13.232 10.768-24 24-24h100.2c-2.672 7.52-4.2 15.576-4.2 24 0 2.816.576 5.488 1.472 8H104c-8.824 0-16 7.176-16 16v208H56V72zM40 368c-13.232 0-24-10.768-24-24v-24h112.176c-.04.592-.176 1.152-.176 1.76v4.296c0 1.872.208 3.76.616 5.584l7.808 35.128c.096.416.24.816.336 1.232H40zm280 1.352c0 29.072-7.904 57.608-22.856 82.528L296 453.784V480h-96v-26.56l-20.664-28.936c-13.192-18.472-22.376-39.064-27.296-61.2l-7.808-35.128a9.948 9.948 0 01-.232-2.12v-4.296c0-5.384 4.376-9.76 9.76-9.76 4.608 0 8.52 3.144 9.52 7.64L177.584 384H208V240c0-4.408 3.592-8 8-8s8 3.592 8 8v120h16v-72c0-4.416 3.592-8 8-8 4.408 0 8 3.584 8 8v72h16v-56c0-4.416 3.592-8 8-8s8 3.584 8 8v56h16v-40c0-4.416 3.592-8 8-8s8 3.584 8 8v49.352zM480 344c0 13.232-10.768 24-24 24H336v-48h144v24z" data-original="#333333" class="hovered-path active-path" data-old_color="#333333" fill="#323232"/><path d="M248 144c-13.232 0-24 10.768-24 24 0 10.416 6.712 19.216 16 22.528V224h16v-33.472c9.288-3.312 16-12.112 16-22.528 0-13.232-10.768-24-24-24zm0 32c-4.408 0-8-3.592-8-8s3.592-8 8-8c4.408 0 8 3.592 8 8s-3.592 8-8 8z" data-original="#333333" class="hovered-path active-path" data-old_color="#333333" fill="#323232"/></symbol><symbol id="like-icon" viewBox="0 0 512 512"><path d="M65.742 422.074l-24.159 56.805a6 6 0 006.556 8.259L135.8 471.8a158.969 158.969 0 0053.893 9.434c81.11 0 148.288-60.781 158.385-139.187a160.944 160.944 0 0028.113-7.314l87.666 15.336a6 6 0 006.556-8.258l-24.159-56.805A158.11 158.11 0 00482 184.471c0-88.058-71.64-159.7-159.7-159.7A159.713 159.713 0 00163.923 163.93C88.078 176.291 30 242.254 30 321.538a158.1 158.1 0 0035.742 100.536zm157.11-346.8a147.328 147.328 0 0199.451-38.5c81.44 0 147.7 66.257 147.7 147.7a146.225 146.225 0 01-35.269 95.626 6 6 0 00-.953 6.238l21.272 50.014-78.37-13.709a6 6 0 00-3.119.283 149.473 149.473 0 01-24.374 6.745q.2-4.039.206-8.128a158.726 158.726 0 00-15.375-68.323l.75-.283.131-.052c26.739-10.832 47.519-26.776 60.1-46.106 11.2-17.211 15.475-36.436 12.031-54.177-4.711-23.35-21.691-38.437-43.26-38.437-10.539 0-21.824 3.8-32.857 11.017-11.17-7.552-22.3-11.375-33.138-11.375-21.7 0-38.617 15.255-43.092 38.85a66.893 66.893 0 00-.285 22.9 158.778 158.778 0 00-64.7-13.708c-4.531 0-9.015.2-13.451.572a147.327 147.327 0 0146.602-87.15zm45.458 107.3a57.36 57.36 0 01-1.841-27.671c3.4-17.949 15.4-29.1 31.305-29.1 9.207 0 19.408 3.979 29.5 11.508a6 6 0 007.113.045c10.092-7.324 20.253-11.195 29.384-11.195 15.842 0 27.912 11.039 31.489 28.767 7.522 38.759-27.112 71.517-64.8 86.805l-2.035.77a160.888 160.888 0 00-60.115-59.931zm-78.61-8.734c81.442 0 147.7 66.257 147.7 147.7s-66.257 147.7-147.7 147.7a147.121 147.121 0 01-51.261-9.247 6.021 6.021 0 00-3.119-.284l-78.37 13.71L78.219 423.4a6 6 0 00-.953-6.238A146.22 146.22 0 0142 321.538C42 240.1 108.257 173.84 189.7 173.84z"/><path d="M107.837 405.985h40a6 6 0 006-6V393h3.23a56.222 56.222 0 0129.666 8.455c11.13 6.9 23.376 7.477 35.994 7.477h32.559a17.113 17.113 0 0014.983-25.406 17.107 17.107 0 003.034-25.3 17.45 17.45 0 00.178-22.634 16.428 16.428 0 00-12.381-27.263h-40.37a2.623 2.623 0 01-2.61-2.342 36.835 36.835 0 012.125-16.872 57.6 57.6 0 003.69-20.318v-3.83a24.861 24.861 0 00-24.835-24.834 6 6 0 00-5.931 5.091l-2.119 13.83a88.961 88.961 0 01-15.65 38.305 21.759 21.759 0 01-17.557 8.949h-4.009v-8.67a6 6 0 00-6-6h-40a6 6 0 00-6 6v102.347a6 6 0 006.003 6zm50.008-87.677a33.806 33.806 0 0027.281-13.918 101.007 101.007 0 0017.787-43.518l1.184-7.726a12.854 12.854 0 017.838 11.821v3.83a45.636 45.636 0 01-2.924 16.1 48.919 48.919 0 00-2.821 22.394 14.606 14.606 0 0014.54 13.039h40.37a4.454 4.454 0 110 8.907h-9.62a6.085 6.085 0 00-.743.051h-6.091a6 6 0 000 12h15.39a5.523 5.523 0 110 11.045h-15.39a6 6 0 100 12h15.738a5.175 5.175 0 110 10.349h-22.691a6 6 0 000 12h17.592a5.127 5.127 0 110 10.253h-32.559c-11.228 0-21.21-.427-29.667-5.674A68.211 68.211 0 00157.066 381h-3.23v-62.692zm-44.008-14.67h28v90.347h-28z"/></symbol><symbol id="list2-icon" viewBox="0 0 344 344"><path d="M322.05 161.8h-182.6c-5.5 0-10 4.5-10 10s4.5 10 10 10h182.6c5.5 0 10-4.5 10-10s-4.4-10-10-10zm-264.1-36.5c-25.7 0-46.5 20.8-46.5 46.5s20.8 46.5 46.5 46.5 46.5-20.8 46.5-46.5-20.8-46.5-46.5-46.5zm0 73c-14.7 0-26.5-11.9-26.5-26.5 0-14.7 11.9-26.5 26.5-26.5s26.5 11.9 26.5 26.5-11.9 26.5-26.5 26.5zm264.1-161.5h-182.6c-5.5 0-10 4.5-10 10s4.5 10 10 10h182.6c5.5 0 10-4.5 10-10s-4.4-10-10-10zM57.95 0c-25.7 0-46.5 20.8-46.5 46.5S32.25 93 57.95 93s46.5-20.8 46.5-46.5c0-25.6-20.8-46.4-46.5-46.5zm0 73.1c-14.7 0-26.5-11.9-26.5-26.5s11.9-26.5 26.5-26.5c14.7 0 26.5 11.9 26.5 26.5s-11.9 26.5-26.5 26.5zm264.1 213.7h-182.6c-5.5 0-10 4.5-10 10s4.5 10 10 10h182.6c5.5 0 10-4.5 10-10s-4.4-10-10-10zm-264.1-36.3c-25.7 0-46.5 20.8-46.5 46.5s20.8 46.5 46.5 46.5 46.5-20.8 46.5-46.5c0-25.6-20.8-46.5-46.5-46.5zm0 73.1c-14.7 0-26.5-11.9-26.5-26.5 0-14.7 11.9-26.5 26.5-26.5 14.7 0 26.5 11.9 26.5 26.5s-11.9 26.5-26.5 26.5z"/></symbol><symbol id="list-icon" viewBox="0 0 291 291"><circle cx="65.626" cy="79.688" r="23.438" data-original="#F9BA48" class="hovered-path" data-old_color="#F9BA48" fill="#f4d75c"/><path data-original="#333333" class="active-path" data-old_color="#333333" fill="#333" d="M87.381 69.225l-6.01-7.2L56.542 82.72l-6.352-6.347-6.628 6.629 12.399 12.403zm15.745-3.6h70.312V75h-70.312zm0 18.75h79.687v9.375h-79.687zM87.381 116.1l-6.01-7.2-24.829 20.695-6.352-6.347-6.628 6.629 12.399 12.403zm15.745-3.6h98.437v9.375h-98.437zm0 18.75h18.75v9.375h-18.75zm28.125 0h70.312v9.375h-70.312zm-43.87 31.725l-6.01-7.2-24.829 20.695-6.352-6.347-6.628 6.629 12.399 12.403zm15.745-3.6h98.437v9.375h-98.437zm0 18.75h70.312v9.375h-70.312zm79.687 0h18.75v9.375h-18.75zm0-112.5h18.75V75h-18.75z"/><path d="M276.563 215.625h-37.5V23.438C239.063 10.514 228.549 0 215.626 0H23.439C10.515 0 .001 10.514.001 23.438s10.514 23.438 23.437 23.438v243.75h196.875V262.5h18.75v-18.75h37.5c7.753 0 14.062-6.309 14.062-14.063s-6.309-14.062-14.062-14.062zM229.688 23.438v192.188h-9.375V37.5h-4.688c-7.753 0-14.062-6.309-14.062-14.063s6.309-14.063 14.062-14.063 14.063 6.31 14.063 14.064zm-220.312 0c0-7.753 6.309-14.063 14.062-14.063h173.559c-2.977 3.928-4.809 8.766-4.809 14.063s1.833 10.134 4.809 14.063H23.439c-7.753-.001-14.063-6.31-14.063-14.063zM32.814 281.25V46.875h178.125v168.75H78.929l-42.187 14.063 42.187 14.063h132.009v37.5H32.814v-.001zm33.572-51.562l8.615-2.874v5.742l-8.615-2.868zm163.302 23.437h-9.375v-9.375h9.375v9.375zm9.375-18.75H84.376V225h154.687v9.375zm18.75 0h-9.375V225h9.375v9.375zm18.75 0h-9.375V225h9.375c2.587 0 4.687 2.105 4.687 4.688s-2.099 4.687-4.687 4.687z" data-original="#333333" class="active-path" data-old_color="#333333" fill="#333"/></symbol><symbol id="medal-icon" viewBox="-32 0 486 486"><path d="M421.273 283.547c0-50.684-42.28-91.918-94.257-91.918-40.606 0-75.297 25.172-88.528 60.351A167.157 167.157 0 00167.016 236c-45.082 0-87.04 17.512-118.141 49.305-31.504 32.21-48.86 76.28-48.86 124.101 0 3.867 3.137 7 7 7h253.95v62.63a7 7 0 0011.758 5.137l54.293-50.294 54.3 50.293a7.002 7.002 0 0011.758-5.137V349.051a90.53 90.53 0 0028.2-65.504zm-94.257-77.918c44.254 0 80.257 34.953 80.257 77.918a76.6 76.6 0 01-24.566 56.027 7.096 7.096 0 00-2.395 2.16c-30.66 26.305-75.925 26.305-106.59 0a6.984 6.984 0 00-2.394-2.16 76.6 76.6 0 01-24.566-56.027c0-42.965 36-77.918 80.254-77.918zM14.152 402.402c1.594-41.414 17.336-79.3 44.73-107.308C87.333 266.016 125.73 250 167.017 250a152.916 152.916 0 0167.55 15.625 90.11 90.11 0 0026.399 83.426v53.351zM379.07 463l-47.3-43.809a7.001 7.001 0 00-9.512 0L274.96 463V360.137c31.691 20.433 72.41 20.433 104.102 0zm0 0"/><path d="M274.848 275.809l25.5 18.035-9.72 29.097a7 7 0 0010.68 7.934l25.712-18.176 25.707 18.176a7.001 7.001 0 0010.683-7.934l-9.719-29.097 25.5-18.035a6.999 6.999 0 00-4.043-12.715h-31.726l-9.766-29.25a7 7 0 00-13.281 0l-9.766 29.25h-31.726a6.997 6.997 0 00-6.672 4.879 7.005 7.005 0 002.629 7.836zm40.812 1.285a6.994 6.994 0 006.637-4.785l4.726-14.149 4.723 14.156a7 7 0 006.64 4.782h14.747l-11.77 8.316a7.004 7.004 0 00-2.601 7.934l4.601 13.765-12.3-8.699a7.005 7.005 0 00-8.083 0l-12.3 8.7 4.601-13.766a7.003 7.003 0 00-2.601-7.934l-11.762-8.316zM64.016 103c0 56.887 46.117 103 103 103 56.886 0 103-46.113 103-103s-46.114-103-103-103c-56.856.066-102.934 46.14-103 103zm192 0c0 49.152-39.844 89-89 89-49.153 0-89-39.848-89-89s39.847-89 89-89c49.132.055 88.945 39.871 89 89zm0 0"/></symbol><symbol id="message-icon" viewBox="-7 0 429 429"><path d="M191.672 184.18a7.002 7.002 0 009.742.882l36.227-29.472a7.005 7.005 0 002.558-6.567 6.994 6.994 0 00-4.445-5.464 6.989 6.989 0 00-6.945 1.171l-30.926 25.16-11.117-13.019a7.005 7.005 0 00-6.621-2.39 6.997 6.997 0 00-4.027 11.48zm0 0"/><path d="M207.332 241.895c42.527 0 77-34.473 77-77 0-42.524-34.473-77-77-77-42.523 0-77 34.476-77 77 .05 42.507 34.496 76.953 77 77zm0-140c34.793 0 63 28.207 63 63 0 34.796-28.207 63-63 63s-63-28.204-63-63c.04-34.778 28.223-62.958 63-63zm0 0"/><path d="M401.504 160.766l-65.348-40.328a6.92 6.92 0 00-.73-.391l-1.028-.477v-17.035c0-1.726-.636-3.39-1.789-4.676L247.074 2.504a7.524 7.524 0 00-.344-.348 6.976 6.976 0 00-5.835-2.11l-.122-.01a6.984 6.984 0 00-.699-.036h-120.96C97.741.023 80.421 17.344 80.397 38.715v81.383L13.316 160.75A27.162 27.162 0 00.398 183.79v194.558c.028 28.402 23.043 51.418 51.446 51.449h311.11c28.401-.031 51.417-23.047 51.444-51.45V183.79a27.16 27.16 0 00-12.894-23.023zm-7.328 11.93a13.08 13.08 0 016.222 11.093v10.633l-66 40.336v-98.953zM248.684 25.265l54.222 60.449h-29.508c-13.644-.016-24.699-11.074-24.714-24.719zm-129.57-11.27h115.57v47c.023 21.371 17.343 38.691 38.714 38.719h42.067l4.933 5.5v138.097l-113 69.055-113-69.055V38.715c.012-13.645 11.07-24.703 24.715-24.719zM20.597 172.707l59.8-36.242v98.293l-66-40.336v-10.633a13.077 13.077 0 016.2-11.082zm342.355 243.09H51.843c-20.671-.024-37.425-16.777-37.445-37.45V210.829l68.176 41.668a6.985 6.985 0 002.52 1.54l118.652 72.507a6.993 6.993 0 007.3 0l118.657-72.512a6.985 6.985 0 002.52-1.539l68.175-41.664v167.52c-.02 20.672-16.773 37.425-37.445 37.449zm0 0"/></symbol><symbol id="money-bag-icon" viewBox="0 0 496 496"><path d="M320.352 464v-16c70.578 0 128-57.426 128-128h16c0 79.398-64.598 144-144 144zm0 0" data-original="#000000" class="hovered-path" data-old_color="#000000" fill="#323232"/><path d="M439.281 184.168l-36.273-33.246c3.289-4.113 5.344-9.258 5.344-14.922 0-7.816-3.809-14.695-9.61-19.078l40.64-40.64c5.786-5.786 8.97-13.473 8.97-21.657 0-16.883-13.743-30.625-30.625-30.625-8.176 0-15.872 3.184-21.657 8.969l-27.949 27.953A10.62 10.62 0 01360.688 64c-5.29 0-9.766-3.953-10.422-9.2l-3.993-31.921C344.648 9.832 333.503 0 320.352 0c-13.153 0-24.297 9.832-25.918 22.879L290.44 54.8c-.656 5.246-5.136 9.199-10.425 9.199-2.77 0-5.473-1.129-7.43-3.078l-27.953-27.953C238.848 27.184 231.16 24 222.977 24c-16.88 0-30.625 13.742-30.625 30.625 0 8.176 3.183 15.871 8.968 21.656l40.64 40.64c-5.8 4.384-9.608 11.263-9.608 19.079 0 5.664 2.054 10.809 5.343 14.91l-36.27 33.25c-16.624 15.246-30.019 33.367-39.816 53.848l14.438 6.902c8.906-18.637 21.09-35.11 36.183-48.957L251.465 160h137.773l39.227 35.96c32.976 30.224 51.887 73.208 51.887 117.942V320c0 88.223-71.778 160-160 160-45.91 0-89.72-19.91-120.176-54.625l-12.031 10.547C221.648 474.105 269.84 496 320.352 496c97.046 0 176-78.953 176-176v-6.098c0-49.199-20.809-96.488-57.07-129.734zM208.351 54.625c0-8.066 6.56-14.625 14.626-14.625 3.847 0 7.625 1.559 10.343 4.281l27.953 27.95C266.207 77.167 273.04 80 280.016 80c13.343 0 24.648-9.984 26.296-23.215l3.993-31.914c.632-5.055 4.953-8.871 10.047-8.871 5.097 0 9.418 3.816 10.046 8.863l3.993 31.914C336.039 70.016 347.344 80 360.687 80c6.977 0 13.81-2.832 18.747-7.77l27.949-27.949A14.719 14.719 0 01417.727 40c8.066 0 14.625 6.559 14.625 14.625 0 3.848-1.559 7.621-4.282 10.344L381.04 112H259.663l-47.031-47.031a14.719 14.719 0 01-4.281-10.344zm48 89.375c-4.413 0-8-3.586-8-8s3.587-8 8-8h128c4.419 0 8 3.586 8 8s-3.581 8-8 8zm0 0" data-original="#000000" class="hovered-path" data-old_color="#000000" fill="#323232"/><path d="M120.352 496.703l-3.153-1.351A192.562 192.562 0 01.352 318.152V240h28.777c31.215 0 61.84-10.742 86.223-30.246l5-3.992 5 3.992C149.734 229.258 180.359 240 211.574 240h28.778v78.152a192.554 192.554 0 01-116.848 177.2zm0 0" fill="#f4d75c" data-original="#F0BC5E" class="active-path" data-old_color="#f0bc5e"/><path d="M120.352 344c-8.825 0-16-7.176-16-16s7.175-16 16-16c8.824 0 16 7.176 16 16h16c0-14.871-10.23-27.29-24-30.863V280h-16v17.137c-13.766 3.574-24 15.992-24 30.863 0 17.648 14.351 32 32 32 8.824 0 16 7.176 16 16s-7.176 16-16 16c-8.825 0-16-7.176-16-16h-16c0 14.871 10.234 27.29 24 30.863V424h16v-17.137c13.77-3.574 24-15.992 24-30.863 0-17.648-14.352-32-32-32zm0 0" data-original="#000000" class="hovered-path" data-old_color="#000000" fill="#323232"/></symbol><symbol id="padlock-icon" viewBox="0 0 300 300"><path d="M149.997 161.485c-8.613 0-15.598 6.982-15.598 15.598 0 5.776 3.149 10.807 7.817 13.505v17.341h15.562v-17.341c4.668-2.697 7.817-7.729 7.817-13.505 0-8.616-6.984-15.598-15.598-15.598zm.006-75.636c-13.111 0-23.775 10.665-23.775 23.775v25.319h47.548v-25.319c-.001-13.108-10.665-23.775-23.773-23.775z"/><path d="M149.995.001C67.156.001 0 67.159 0 149.998c0 82.837 67.156 149.997 149.995 149.997s150-67.161 150-149.997c0-82.839-67.161-149.997-150-149.997zm46.09 227.117h-92.173c-9.734 0-17.626-7.892-17.626-17.629V152.57c0-8.491 6.007-15.582 14.003-17.25v-25.697c0-27.409 22.3-49.711 49.711-49.711 27.409 0 49.709 22.3 49.709 49.711v25.697c7.993 1.673 14 8.759 14 17.25v56.919h.002c0 9.736-7.892 17.629-17.626 17.629z"/></symbol><symbol id="phone-call-button-icon" viewBox="0 0 459 459"><path d="M91.8 198.9c35.7 71.4 96.9 130.05 168.3 168.3l56.1-56.1c7.649-7.649 17.85-10.199 25.5-5.1 28.05 10.2 58.649 15.3 91.8 15.3 15.3 0 25.5 10.2 25.5 25.5v86.7c0 15.3-10.2 25.5-25.5 25.5C193.8 459 0 265.2 0 25.5 0 10.2 10.2 0 25.5 0h89.25c15.3 0 25.5 10.2 25.5 25.5 0 30.6 5.1 61.2 15.3 91.8 2.55 7.65 0 17.85-5.1 25.5L91.8 198.9z" id="call"/></symbol><symbol id="map-mark-icon" viewBox="0 0 118 188"><path d="M59 0C34.4 0 14.5 19.9 14.5 44.5c0 12.8 6.4 24.4 12.7 35.1 7.7 13.301 16.9 25.7 27.6 36.7 2.3 2.399 6.101 2.399 8.5 0C72.7 107 81 96.5 88 85.3c7.5-12.101 15.6-26.101 15.6-40.8C103.5 20 83.6 0 59 0zm0 70.3c-14.9 0-27-12.1-27-27s12.1-27 27-27 27 12 27 27-12.1 27-27 27z"/></symbol><symbol id="plus-icon" viewBox="0 0 512 512"><path d="M256 512C114.836 512 0 397.164 0 256S114.836 0 256 0s256 114.836 256 256-114.836 256-256 256zm0-480C132.48 32 32 132.48 32 256s100.48 224 224 224 224-100.48 224-224S379.52 32 256 32zm0 0"/><path d="M368 272H144c-8.832 0-16-7.168-16-16s7.168-16 16-16h224c8.832 0 16 7.168 16 16s-7.168 16-16 16zm0 0"/><path d="M256 384c-8.832 0-16-7.168-16-16V144c0-8.832 7.168-16 16-16s16 7.168 16 16v224c0 8.832-7.168 16-16 16zm0 0"/></symbol><symbol id="portable-document-format-icon" viewBox="0 0 512 512"><path d="M320 12.499v115.499h115.499z"/><path d="M298.667 170.667c-11.776 0-21.333-9.536-21.333-21.333V0h-192C73.557 0 64 9.536 64 21.333v469.333C64 502.464 73.557 512 85.333 512h341.333c11.776 0 21.333-9.536 21.333-21.333v-320H298.667zm-128-42.667h42.667c11.776 0 21.333 9.536 21.333 21.333 0 11.797-9.557 21.333-21.333 21.333h-42.667c-11.776 0-21.333-9.536-21.333-21.333-.001-11.797 9.557-21.333 21.333-21.333zm170.666 256H170.667c-11.776 0-21.333-9.536-21.333-21.333s9.557-21.333 21.333-21.333h170.667c11.776 0 21.333 9.536 21.333 21.333S353.109 384 341.333 384zm0-106.667H170.667c-11.776 0-21.333-9.536-21.333-21.333s9.557-21.333 21.333-21.333h170.667c11.776 0 21.333 9.536 21.333 21.333s-9.558 21.333-21.334 21.333z"/></symbol><symbol id="profits-icon" viewBox="0 0 512 512"><circle cx="256" cy="256" r="256" fill="#31bafd"/><path d="M327.189 501.96c90.526-26.155 160.425-100.923 179.576-194.208L362.477 163.464l-53.322-22.68-18.323 18.323-53.298-53.298-49.878-27.913-37.792 39.321 46.949 46.949-6.642 200.776L327.189 501.96z" fill="#2b9ed8"/><path d="M362.477 163.464l-38.565-38.185a7.757 7.757 0 00-10.969.053l-38.184 38.565a7.755 7.755 0 00.053 10.969 7.728 7.728 0 005.458 2.246 7.727 7.727 0 005.511-2.3l24.922-25.171v142.16a7.759 7.759 0 0015.516 0V149.397l25.343 25.091a7.754 7.754 0 0010.969-.053 7.756 7.756 0 00-.054-10.971z" fill="#fff"/><path d="M362.477 163.464l-38.565-38.185a7.731 7.731 0 00-5.563-2.239v176.511c.038 0 .072.01.11.01a7.759 7.759 0 007.758-7.758V149.397l25.343 25.091a7.754 7.754 0 0010.969-.053 7.754 7.754 0 00-.052-10.971z" fill="#e9eff4"/><path d="M237.534 105.812l-38.567-38.185a7.758 7.758 0 00-10.969.055l-38.185 38.565a7.755 7.755 0 00.053 10.969 7.728 7.728 0 005.458 2.246 7.727 7.727 0 005.511-2.3l24.923-25.169-.007 199.811a7.759 7.759 0 0015.516 0l.007-200.061 25.345 25.093a7.76 7.76 0 0010.971-.055c3.012-3.041 2.988-7.954-.056-10.969z" fill="#fff"/><path d="M237.534 105.812l-38.567-38.185c-1.438-1.424-3.294-2.145-5.168-2.214v234.12c4.148-.155 7.468-3.543 7.468-7.728l.007-200.061 25.345 25.093a7.76 7.76 0 0010.971-.055 7.76 7.76 0 00-.056-10.97z" fill="#e9eff4"/><circle cx="255.983" cy="305.062" r="88.981" fill="#ffc61b"/><path d="M255.984 216.078c-.043 0-.084.003-.126.003v177.955c.043 0 .084.003.126.003 49.143 0 88.981-39.838 88.981-88.981s-39.839-88.98-88.981-88.98z" fill="#eaa22f"/><path d="M286.275 287.72a6.897 6.897 0 006.896-6.896v-4.711c0-14.281-13.502-25.921-30.291-26.374v-1.8a6.897 6.897 0 00-13.792 0v1.8c-16.791.453-30.291 12.093-30.291 26.374v9.425c0 14.279 13.502 25.919 30.291 26.372v34.68c-9.04-.393-16.499-5.987-16.499-12.586v-4.711a6.897 6.897 0 00-13.792 0v4.711c0 14.279 13.502 25.919 30.291 26.372v1.801a6.897 6.897 0 0013.792 0v-1.801c16.791-.453 30.291-12.093 30.291-26.372v-9.425c0-14.281-13.502-25.921-30.291-26.374v-34.68c9.04.393 16.5 5.989 16.5 12.588v4.711a6.896 6.896 0 006.895 6.896zm-53.687-2.183v-9.425c0-6.599 7.459-12.197 16.499-12.588v34.599c-9.038-.391-16.499-5.986-16.499-12.586zm46.792 39.042v9.425c0 6.599-7.459 12.195-16.5 12.586v-34.599c9.04.393 16.5 5.989 16.5 12.588z" fill="#b97850"/><path d="M286.275 287.72a6.897 6.897 0 006.896-6.896v-4.711c0-14.281-13.502-25.921-30.291-26.374v-1.8a6.897 6.897 0 00-6.896-6.896c-.043 0-.083.012-.126.012v128.007c.043 0 .083.012.126.012a6.897 6.897 0 006.896-6.896v-1.801c16.791-.453 30.291-12.093 30.291-26.372v-9.425c0-14.281-13.502-25.921-30.291-26.374v-34.68c9.04.393 16.5 5.989 16.5 12.588v4.711a6.896 6.896 0 006.895 6.895zm-6.895 36.859v9.425c0 6.599-7.459 12.195-16.5 12.586v-34.599c9.04.393 16.5 5.989 16.5 12.588z" fill="#9a4f03"/></symbol><symbol id="reload-icon" viewBox="0 0 512 512"><path d="M410.716 220.103l-160-144c-4.704-4.224-11.456-5.312-17.248-2.72a16.052 16.052 0 00-9.472 14.624v80.448c-114.752 6.432-202.432 81.952-215.68 188.064L.124 421.991c-.928 7.456 3.424 14.56 10.528 17.056 1.76.64 3.552.96 5.344.96 5.376 0 10.592-2.752 13.568-7.52l16.096-25.792c31.936-51.072 95.84-110.688 170.88-110.688h7.456v80a16.052 16.052 0 009.472 14.624c5.792 2.496 12.512 1.536 17.216-2.72l160-144c3.36-3.04 5.312-7.36 5.312-11.904s-1.952-8.864-5.28-11.904z"/><path d="M506.716 220.103l-160-144c-6.56-5.888-16.672-5.344-22.624 1.184-5.92 6.592-5.376 16.704 1.184 22.624l146.816 132.096-146.816 132.096c-6.56 5.952-7.104 16.032-1.184 22.624 3.2 3.488 7.52 5.28 11.904 5.28 3.808 0 7.648-1.344 10.72-4.096l160-144c3.328-3.04 5.28-7.36 5.28-11.904s-1.952-8.864-5.28-11.904z"/></symbol><symbol id="return-icon" viewBox="0 0 512 512"><path d="M288.502 32.502c-108.328 0-198.827 77.485-219.166 179.899l-42.482-53.107L0 180.784l68.769 85.961a17.212 17.212 0 0013.427 6.447c2.596 0 5.226-.585 7.685-1.805l103.153-51.577-15.387-30.757-75.8 37.892c14.063-90.5 92.27-160.059 186.655-160.059 104.271 0 189.114 84.843 189.114 189.114s-84.843 189.114-189.114 189.114v34.384C411.735 479.498 512 379.233 512 256S411.735 32.502 288.502 32.502z"/></symbol><symbol id="right-arrow-forward-icon" viewBox="0 0 408 408"><path d="M204 0l-35.7 35.7 142.8 142.8H0v51h311.1L168.3 372.3 204 408l204-204z"/></symbol><symbol id="right-icon" viewBox="0 0 512 512"><path d="M437.019 74.98C388.667 26.629 324.38 0 256 0 187.619 0 123.331 26.629 74.98 74.98 26.628 123.332 0 187.62 0 256s26.628 132.667 74.98 181.019C123.332 485.371 187.619 512 256 512c68.38 0 132.667-26.629 181.019-74.981C485.371 388.667 512 324.38 512 256s-26.629-132.667-74.981-181.02zM256 482C131.383 482 30 380.617 30 256S131.383 30 256 30s226 101.383 226 226-101.383 226-226 226z"/><path d="M378.305 173.859c-5.857-5.856-15.355-5.856-21.212.001L224.634 306.319l-69.727-69.727c-5.857-5.857-15.355-5.857-21.213 0-5.858 5.857-5.858 15.355 0 21.213l80.333 80.333a14.953 14.953 0 0010.606 4.393c3.838 0 7.678-1.465 10.606-4.393l143.066-143.066c5.858-5.857 5.858-15.355 0-21.213z"/></symbol><symbol id="search-icon" viewBox="0 0 512 512"><path d="M224 170.669h-42.667c-5.888 0-10.667 4.779-10.667 10.667v128c0 5.888 4.779 10.667 10.667 10.667H224c5.888 0 10.667-4.779 10.667-10.667v-128c0-5.888-4.779-10.667-10.667-10.667zm-85.333 64H96c-5.888 0-10.667 4.779-10.667 10.667v64c0 5.888 4.779 10.667 10.667 10.667h42.667c5.888 0 10.667-4.779 10.667-10.667v-64c-.001-5.888-4.779-10.667-10.667-10.667zm170.666-128h-42.667c-5.888 0-10.667 4.779-10.667 10.667v192c0 5.888 4.779 10.667 10.667 10.667h42.667c5.888 0 10.667-4.779 10.667-10.667v-192c0-5.888-4.779-10.667-10.667-10.667z"/><path d="M505.749 475.587L378.411 348.248c30.123-36.779 48.256-83.755 48.256-134.912C426.667 95.704 330.966.003 213.334.003S0 95.704 0 213.336s95.701 213.333 213.333 213.333c51.157 0 98.133-18.133 134.912-48.256l127.339 127.339c4.16 4.16 9.621 6.251 15.083 6.251s10.923-2.091 15.083-6.251c8.341-8.341 8.341-21.824-.001-30.165zm-292.416-91.584c-94.101 0-170.667-76.565-170.667-170.667S119.232 42.669 213.333 42.669 384 119.235 384 213.336s-76.565 170.667-170.667 170.667z"/></symbol><symbol id="security-icon" viewBox="-41 0 374 374"><path d="M287.664 75.746L147.06.824a6.986 6.986 0 00-6.657.04L3.688 75.784a7 7 0 00-3.633 6.14v97.868c.082 80.45 47.746 153.23 121.457 185.46l18.976 8.27a6.992 6.992 0 005.57.008l21.383-9.234c75.079-31.531 123.922-105.016 123.93-186.445V81.926a7.003 7.003 0 00-3.707-6.18zm-10.293 102.106c-.016 75.816-45.504 144.226-115.41 173.566l-.047.023-18.621 8.04-16.18-7.06C58.5 322.422 14.13 254.68 14.051 179.794V86.07l129.762-71.117L277.37 86.121zm0 0"/><path d="M92.168 175.254a7 7 0 00-9.871-.777 6.995 6.995 0 00-.777 9.867l36.976 43.3a6.998 6.998 0 009.738.887l86.118-70.062a7 7 0 00-8.836-10.86l-80.813 65.743zm0 0"/></symbol><symbol id="send-icon" viewBox="0 0 512 512"><path d="M481.508 210.336L68.414 38.926c-17.403-7.222-37.064-4.045-51.309 8.287C2.86 59.547-3.098 78.551 1.558 96.808L38.327 241h180.026c8.284 0 15.001 6.716 15.001 15.001 0 8.284-6.716 15.001-15.001 15.001H38.327L1.558 415.193c-4.656 18.258 1.301 37.262 15.547 49.595 14.274 12.357 33.937 15.495 51.31 8.287l413.094-171.409C500.317 293.862 512 276.364 512 256.001s-11.683-37.862-30.492-45.665z"/></symbol><symbol id="settings2-icon" viewBox="0 0 512 512"><circle cx="256" cy="256" r="256" fill="#b5f1f4"/><path d="M305.976 507.109c101.292-20.047 181.086-99.84 201.131-201.133L376.679 175.547l-22.79 7.677-69.442-69.446-94.815 109.18.6.6-76.452 60.887 65.405 65.405-3.636 26.831 130.427 130.428z" fill="#84dbff"/><path d="M398.224 284.444v-56.889h-32.028c-2.686-10.438-6.839-20.282-12.186-29.336l22.673-22.673-40.227-40.227-22.673 22.673c-9.052-5.349-18.897-9.5-29.336-12.186v-32.028h-56.889v32.028c-10.438 2.686-20.282 6.839-29.336 12.186l-22.673-22.673-40.227 40.226 22.673 22.673c-5.349 9.052-9.5 18.897-12.186 29.336h-32.028v56.889h32.028c2.686 10.438 6.839 20.282 12.186 29.336l-22.673 22.673 40.226 40.227 22.673-22.673c9.052 5.349 18.897 9.5 29.336 12.186v32.03h56.889v-32.028c10.438-2.686 20.282-6.837 29.336-12.186l22.673 22.673 40.226-40.226-22.673-22.673c5.349-9.052 9.5-18.897 12.186-29.336h32.032v-.002zm-142.222 28.445c-31.418 0-56.889-25.471-56.889-56.889s25.471-56.889 56.889-56.889 56.889 25.471 56.889 56.889-25.471 56.889-56.889 56.889z" fill="#324a5e"/><path d="M398.224 284.444v-56.889h-32.028c-2.686-10.438-6.839-20.282-12.186-29.336l22.673-22.673-40.227-40.227-22.673 22.673c-9.052-5.349-18.897-9.5-29.336-12.186v-32.028h-29.019v85.347c.191-.002.381-.014.574-.014 31.418 0 56.889 25.471 56.889 56.889s-25.471 56.889-56.889 56.889c-.193 0-.383-.012-.574-.014v85.347h29.019v-32.028c10.438-2.686 20.282-6.837 29.336-12.186l22.673 22.673 40.226-40.226-22.673-22.673c5.349-9.052 9.5-18.897 12.186-29.336h32.03v-.002z" fill="#2b3b4e"/><path d="M256.002 347.367c-50.381 0-91.367-40.986-91.367-91.367s40.986-91.367 91.367-91.367 91.367 40.986 91.367 91.367-40.988 91.367-91.367 91.367zm0-170.667c-43.725 0-79.3 35.575-79.3 79.3s35.575 79.3 79.3 79.3 79.3-35.575 79.3-79.3-35.575-79.3-79.3-79.3z" fill="#f9b54c"/><path d="M256.002 164.633c-.193 0-.381.014-.574.014v12.067c.193-.002.381-.014.574-.014 43.725 0 79.3 35.575 79.3 79.3s-35.575 79.3-79.3 79.3c-.193 0-.381-.014-.574-.014v12.067c.193.002.381.014.574.014 50.381 0 91.367-40.986 91.367-91.367s-40.988-91.367-91.367-91.367z" fill="#f4a200"/><path fill="#734b46" d="M241.636 287.265l-22.698-22.702 8.054-8.054 14.644 14.648 43.374-43.376 8.056 8.056z"/><path fill="#57442f" d="M285.01 227.781l-29.584 29.584v16.11l37.64-37.638z"/></symbol><symbol id="share-icon" viewBox="0 0 64 64"><path fill="#1D1D1B" d="M63.386 16.193l.002-.002a2.359 2.359 0 00.405-.688c.032-.076.053-.148.076-.225.058-.191.094-.389.106-.596.006-.076.018-.148.016-.226 0-.04.01-.076.008-.115a2.601 2.601 0 00-.136-.687c-.006-.023-.022-.041-.03-.064a2.441 2.441 0 00-.363-.645c-.021-.027-.028-.063-.05-.09L53.109.709c-.789-.93-2.084-.948-2.894-.037-.808.91-.823 2.402-.032 3.334l5.558 6.549c-8.121-1.076-16.104.633-16.481.717C14.614 15.739-2.827 38.499.38 62.008.539 63.172 1.408 64 2.399 64c.106 0 .212-.009.32-.027 1.116-.203 1.878-1.409 1.704-2.696-2.857-20.94 13.056-41.282 35.537-45.358.103-.024 8.351-1.794 16.117-.574L47.5 20.438c-1.005.598-1.398 2.02-.881 3.177.516 1.159 1.748 1.608 2.756 1.017l13.52-8.028c.183-.111.347-.25.491-.411z"/></symbol><symbol id="smile-icon" viewBox="0 0 512 512"><path d="M437.02 74.98C388.667 26.629 324.38 0 256 0S123.333 26.629 74.98 74.98C26.629 123.333 0 187.62 0 256s26.629 132.668 74.98 181.02C123.333 485.371 187.62 512 256 512s132.667-26.629 181.02-74.98C485.371 388.668 512 324.38 512 256s-26.629-132.667-74.98-181.02zM256 472c-119.103 0-216-96.897-216-216S136.897 40 256 40s216 96.897 216 216-96.897 216-216 216z"/><path d="M368.993 285.776c-.072.214-7.298 21.626-25.02 42.393C321.419 354.599 292.628 368 258.4 368c-34.475 0-64.195-13.561-88.333-40.303-18.92-20.962-27.272-42.54-27.33-42.691l-37.475 13.99c.42 1.122 10.533 27.792 34.013 54.273C171.022 389.074 212.215 408 258.4 408c46.412 0 86.904-19.076 117.099-55.166 22.318-26.675 31.165-53.55 31.531-54.681l-38.037-12.377z"/><circle cx="168" cy="180.12" r="32"/><circle cx="344" cy="180.12" r="32"/></symbol><symbol id="star-icon" viewBox="0 0 54 54"><path fill="#efce4a" d="M26.934 1.318l8.322 16.864 18.611 2.705L40.4 34.013l3.179 18.536-16.645-8.751-16.646 8.751 3.179-18.536L0 20.887l18.611-2.705z"/></symbol><symbol id="startup-icon" viewBox="0 0 512 512"><path d="M268.662 243.351a10 10 0 00-14.15 0c-3.9 3.9-3.9 10.23 0 14.14 3.91 3.9 10.24 3.9 14.15 0 3.9-3.91 3.9-10.24 0-14.14zM395.933 116.07c-19.54-19.539-51.172-19.54-70.713 0-19.489 19.489-19.49 51.209.003 70.714 19.496 19.484 51.216 19.492 70.71-.002 19.538-19.538 19.542-51.171 0-70.712zm-14.142 56.569c-11.693 11.694-30.727 11.694-42.426.002-11.695-11.702-11.696-30.736-.002-42.429 11.723-11.723 30.703-11.725 42.428 0 11.723 11.722 11.725 30.703 0 42.427z"/><path d="M509.07 2.929a9.965 9.965 0 00-7.43-2.922c-2.261.081-56.096 2.245-120.091 24.864-51.28 18.106-94.023 44.029-127.042 77.049a380.537 380.537 0 00-21.488 23.396c-32.648-19.218-58.81-13.192-75.349-4.341-38.081 20.38-61.652 75.716-61.652 115.296a10.007 10.007 0 0010.001 10 10 10 0 007.073-2.929c20.083-20.083 44.854-18.827 52.946-17.763l3.502 3.502c-6.892 16.4-12.444 32.708-16.516 48.569-1.47 5.74-.974 11.814 1.211 17.37-9.628 4.437-18.917 10.952-27.005 19.04-25.741 25.742-30.968 88.476-31.178 91.134a10 10 0 0010.755 10.756c2.658-.209 65.394-5.436 91.135-31.177 8.085-8.085 14.599-17.373 19.036-26.999 5.882 2.313 11.936 2.598 17.38 1.203 15.854-4.071 32.16-9.621 48.562-16.514l3.502 3.502c1.063 8.093 2.319 32.864-17.763 52.945a10 10 0 007.071 17.07c39.58 0 94.915-23.571 115.295-61.652 8.851-16.537 14.877-42.699-4.341-75.348a380.674 380.674 0 0023.396-21.488c33.02-33.02 58.942-75.763 77.048-127.039 22.62-63.998 24.783-117.834 24.864-120.094.1-2.775-.959-5.466-2.922-7.43zM118.376 214.762c6.212-30.063 24.255-63.052 48.735-76.154 16.359-8.754 34.24-7.896 53.252 2.511a404.33 404.33 0 00-42.015 68.487c-.149-.092-1.949-2.355-5.293-3.109-1.375-.311-27.834-6.002-54.679 8.265zM183.8 370.63c-13.75 13.75-46.005 21.002-66.392 23.963 2.962-20.388 10.215-52.642 23.964-66.391 7.7-7.7 16.628-13.538 25.602-16.826l33.652 33.652c-3.288 8.974-9.125 17.902-16.826 25.602zm45.59-31.027c-2.894.741-6.246-.347-8.738-2.835l-19.586-19.585-25.826-25.827c-2.494-2.499-3.582-5.85-2.843-8.739 3.203-12.474 7.392-25.272 12.486-38.193l82.695 82.695c-12.923 5.095-25.719 9.283-38.188 12.484zm144.004 5.288c-13.102 24.479-46.09 42.523-76.152 48.734 9.585-18.037 11.698-40.998 8.196-54.921-.813-3.234-2.923-4.86-3.041-5.051a404.48 404.48 0 0068.486-42.015c10.407 19.014 11.264 36.897 2.511 53.253zM395.94 243.35a362.965 362.965 0 01-28.84 25.872c-24.342 19.6-51.134 36.202-79.718 49.418l-94.02-94.018c13.216-28.586 29.818-55.378 49.416-79.717 8.164-10.133 16.868-19.837 25.875-28.843 29.625-29.626 67.859-53.204 113.671-70.176l83.792 83.792c-16.97 45.811-40.548 84.045-70.176 113.672zm77.371-134.763l-69.896-69.896c38.081-11.828 71.21-16.257 87.746-17.849-1.593 16.539-6.023 49.668-17.85 87.745z"/><path d="M240.371 413.049c-3.907-3.905-10.239-3.903-14.143.002l-28.28 28.29c-3.904 3.906-3.903 10.238.002 14.142 3.907 3.904 10.239 3.904 14.143-.002l28.28-28.29c3.904-3.906 3.903-10.238-.002-14.142zM98.954 271.631c-3.904-3.906-10.235-3.906-14.142-.002l-28.29 28.28c-3.906 3.904-3.907 10.236-.003 14.142 3.903 3.904 10.234 3.908 14.142.002l28.29-28.28c3.906-3.904 3.907-10.236.003-14.142zM169.663 427.2c-3.903-3.905-10.236-3.905-14.142-.001l-67.74 67.73c-3.906 3.905-3.906 10.237-.001 14.142 3.903 3.905 10.236 3.907 14.142.001l67.74-67.73c3.906-3.905 3.906-10.237.001-14.142zm-80 0c-3.904-3.905-10.237-3.905-14.142-.001l-67.74 67.73c-3.906 3.905-3.906 10.237-.001 14.142 3.903 3.905 10.236 3.907 14.142.001l67.74-67.73c3.906-3.905 3.906-10.237.001-14.142zm-4.861-84.862c-3.904-3.904-10.237-3.904-14.142.001l-67.73 67.74c-3.905 3.906-3.905 10.237.001 14.143 3.905 3.905 10.237 3.905 14.142-.001l67.73-67.74c3.905-3.906 3.905-10.237-.001-14.143zm226.281-141.419c-3.906-3.905-10.236-3.905-14.143 0l-14.14 14.14c-3.905 3.905-3.905 10.237 0 14.143 3.906 3.905 10.237 3.905 14.143 0l14.14-14.14c3.905-3.905 3.905-10.237 0-14.143z"/></symbol><symbol id="technician-icon" viewBox="0 0 64 64"><path d="M21.158 41.233a37.592 37.592 0 006.086 1.409A3.983 3.983 0 0028 40.315v-1.249a17.546 17.546 0 01-8-14.715V17h1l.172.172A9.656 9.656 0 0028 20v-3l.172.172A9.656 9.656 0 0035 20v-3l.172.172A9.656 9.656 0 0042 20h2v4.351a17.546 17.546 0 01-8 14.715v1.249c0 .855.278 1.662.756 2.328a37.383 37.383 0 006.086-1.409C46.525 40.048 49 36.615 49 32.693V18c0-9.374-7.626-17-17-17S15 8.626 15 18v14.693c0 3.922 2.475 7.355 6.158 8.54z" fill="#f4d75c" data-original="#F0BC5E" data-old_color="#f0bc5e"/><path d="M49.123 47.288l-10.259-4.197A2.988 2.988 0 0137 40.314v-.718c4.921-3.401 8-9.039 8-15.245V19h-3c-2.312 0-4.486-.9-6.121-2.536L34 14.591v4.353a8.586 8.586 0 01-5.122-2.48L27 14.591v4.353a8.586 8.586 0 01-5.122-2.48L21.413 16H19v8.351a18.513 18.513 0 008 15.245v.718a2.987 2.987 0 01-1.864 2.776l-10.259 4.197A15.84 15.84 0 005 62v1h54v-1a15.838 15.838 0 00-9.877-14.712zM21 24.351v-5.972A10.571 10.571 0 0028 21h1v-1.846A10.582 10.582 0 0035 21h1v-1.846A10.582 10.582 0 0042 21h1v3.351a16.526 16.526 0 01-11 15.591 16.526 16.526 0 01-11-15.591zm10.684 17.597l.316.106.316-.105a18.69 18.69 0 002.719-1.152 4.98 4.98 0 00.842 2.349C34.933 44.316 33.528 45 32 45s-2.933-.684-3.878-1.856c.471-.686.76-1.491.842-2.349.864.451 1.773.838 2.72 1.153zm-5.79 2.994c.279-.114.538-.258.787-.415C27.999 46.088 29.914 47 32 47s4.001-.912 5.32-2.473c.248.157.507.301.787.415l3.48 1.424a11.063 11.063 0 01-5.92 4.994l-.667.236V61h-6v-9.404l-.666-.235a11.064 11.064 0 01-5.92-4.994zM15.635 49.14l4.921-2.013A13.076 13.076 0 0027 52.989V61H17v-6h-2v6H7.035a13.839 13.839 0 018.6-11.86zM49 61v-6h-2v6H37v-8.012a13.071 13.071 0 006.444-5.862l4.921 2.013a13.84 13.84 0 018.6 11.86H49z" data-original="#000000" class="active-path" data-old_color="#000000" fill="#030715"/><circle cx="26" cy="24" r="1" data-original="#000000" class="active-path" data-old_color="#000000" fill="#030715"/><circle cx="38" cy="24" r="1" data-original="#000000" class="active-path" data-old_color="#000000" fill="#030715"/><path d="M36 32h-2c0 1.103-.897 2-2 2s-2-.897-2-2h-2c0 2.206 1.794 4 4 4s4-1.794 4-4zm-5 25h2v2h-2zm0-4h2v2h-2zm0-4h2v2h-2zm1-42V5a13.02 13.02 0 00-9.689 4.333l1.49 1.334A11.015 11.015 0 0132 7zm-9.529 5.5l-1.73-1.002a12.976 12.976 0 00-1 2.168l1.885.667c.224-.634.508-1.25.845-1.833z" data-original="#000000" class="active-path" data-old_color="#000000" fill="#030715"/></symbol><symbol id="telegram-icon" viewBox="0 -31 512 512"><path d="M123.195 260.738l63.68 159.188 82.902-82.903L411.918 450 512 0 0 213.266zm242.5-131.629L208.98 272.051l-19.52 73.566-36.058-90.164zm0 0" data-original="#000000" class="active-path" data-old_color="#000000" fill="#FFF"/></symbol><symbol id="view-icon" viewBox="0 0 512 512"><path d="M508.745 246.041c-4.574-6.257-113.557-153.206-252.748-153.206S7.818 239.784 3.249 246.035a16.896 16.896 0 000 19.923c4.569 6.257 113.557 153.206 252.748 153.206s248.174-146.95 252.748-153.201a16.875 16.875 0 000-19.922zM255.997 385.406c-102.529 0-191.33-97.533-217.617-129.418 26.253-31.913 114.868-129.395 217.617-129.395 102.524 0 191.319 97.516 217.617 129.418-26.253 31.912-114.868 129.395-217.617 129.395z"/><path d="M255.997 154.725c-55.842 0-101.275 45.433-101.275 101.275s45.433 101.275 101.275 101.275S357.272 311.842 357.272 256s-45.433-101.275-101.275-101.275zm0 168.791c-37.23 0-67.516-30.287-67.516-67.516s30.287-67.516 67.516-67.516 67.516 30.287 67.516 67.516-30.286 67.516-67.516 67.516z"/></symbol><symbol id="vk-icon" viewBox="0 0 24 24"><path d="M19.915 13.028c-.388-.49-.277-.708 0-1.146.005-.005 3.208-4.431 3.538-5.932l.002-.001c.164-.547 0-.949-.793-.949h-2.624c-.668 0-.976.345-1.141.731 0 0-1.336 3.198-3.226 5.271-.61.599-.892.791-1.225.791-.164 0-.419-.192-.419-.739V5.949c0-.656-.187-.949-.74-.949H9.161c-.419 0-.668.306-.668.591 0 .622.945.765 1.043 2.515v3.797c0 .832-.151.985-.486.985-.892 0-3.057-3.211-4.34-6.886-.259-.713-.512-1.001-1.185-1.001H.9c-.749 0-.9.345-.9.731 0 .682.892 4.073 4.148 8.553C6.318 17.343 9.374 19 12.154 19c1.671 0 1.875-.368 1.875-1.001 0-2.922-.151-3.198.686-3.198.388 0 1.056.192 2.616 1.667C19.114 18.217 19.407 19 20.405 19h2.624c.748 0 1.127-.368.909-1.094-.499-1.527-3.871-4.668-4.023-4.878z" data-original="#000000" class="active-path" data-old_color="#000000" fill="#FFF"/></symbol></svg>